<?xml version="1.0" standalone="no"?>
<!DOCTYPE svg PUBLIC "-//W3C//DTD SVG 20010904//EN"
 "http://www.w3.org/TR/2001/REC-SVG-20010904/DTD/svg10.dtd">
<svg version="1.0" xmlns="http://www.w3.org/2000/svg"
 width="551.000000pt" height="742.000000pt" viewBox="0 0 551.000000 742.000000"
 preserveAspectRatio="xMidYMid meet">

<g transform="translate(0.000000,742.000000) scale(0.100000,-0.100000)"
fill="#000000" stroke="none">
<path d="M0 5411 c0 -1329 3 -2012 10 -2016 6 -3 10 -12 10 -18 0 -7 -4 -6
-10 3 -10 16 -15 -186 -4 -213 8 -22 78 4 82 32 2 12 8 21 13 21 5 0 9 15 10
33 0 27 2 29 9 12 5 -11 9 -36 10 -55 1 -34 2 -34 11 -10 6 14 9 45 8 70 -1
25 2 45 7 45 5 0 7 -21 6 -47 -3 -39 0 -48 17 -58 12 -6 21 -17 21 -24 0 -13
77 -53 92 -49 4 2 5 -4 2 -12 -4 -10 5 -17 28 -23 27 -7 35 -5 46 9 11 16 15
16 40 3 40 -20 48 -17 24 9 -41 43 -24 62 22 26 25 -20 26 -22 11 -45 -17 -26
-20 -48 -5 -39 6 3 14 -5 19 -18 6 -14 15 -28 21 -32 6 -4 15 -18 20 -31 8
-21 15 -24 45 -21 28 3 39 0 50 -16 8 -12 18 -17 22 -13 4 4 0 13 -10 21 -11
8 -20 32 -24 66 -3 30 -11 59 -17 64 -7 6 -15 18 -19 28 -5 12 -17 17 -47 17
-33 0 -40 3 -40 19 0 11 -5 23 -12 27 -8 5 -7 10 4 18 14 11 17 27 20 104 1
46 11 53 30 22 7 -11 21 -20 31 -20 13 0 17 -5 13 -15 -3 -8 -1 -15 5 -15 16
0 65 -56 61 -69 -2 -6 4 -11 13 -11 9 0 41 -24 72 -54 l56 -53 3 -276 c2 -151
1 -283 -3 -294 -9 -19 -34 -24 -45 -8 -4 5 -15 2 -27 -9 -16 -15 -18 -22 -10
-33 7 -7 9 -16 6 -20 -9 -8 -38 17 -31 28 3 5 -2 9 -10 9 -19 0 -21 -40 -3
-59 10 -11 9 -13 -6 -8 -11 4 -17 1 -17 -9 0 -8 4 -13 9 -9 16 9 23 -13 11
-35 -7 -13 -7 -20 0 -20 5 0 10 -7 10 -16 0 -11 -6 -14 -20 -9 -14 4 -20 2
-20 -9 0 -8 4 -17 10 -21 5 -3 8 -11 6 -18 -1 -7 -1 -9 1 -4 7 11 23 -2 23
-19 0 -8 -10 -28 -22 -44 l-21 -29 29 -43 c15 -24 27 -49 26 -55 -2 -7 1 -13
6 -13 11 0 34 -177 31 -240 -1 -25 -5 -52 -9 -60 -4 -8 -4 -33 0 -55 l8 -40 1
43 c1 28 5 42 15 42 21 0 38 -27 31 -49 -4 -12 0 -23 9 -28 16 -9 28 -89 19
-123 -4 -15 -10 -16 -51 -7 -26 5 -50 15 -54 21 -4 6 -8 -10 -8 -36 0 -27 5
-48 12 -50 8 -3 7 -13 -4 -36 -14 -26 -14 -33 -2 -42 7 -7 18 -9 24 -5 5 3 10
2 10 -3 0 -6 -7 -12 -15 -16 -10 -3 -15 -19 -15 -45 0 -22 -5 -41 -11 -43 -6
-2 -13 -23 -15 -47 -4 -52 13 -70 67 -71 35 0 80 -32 62 -43 -5 -3 -183 -7
-396 -8 l-387 -3 0 -559 0 -559 1618 6 c889 4 1681 7 1760 7 l142 0 0 39 c0
38 -2 40 -29 40 -16 0 -36 -7 -45 -15 -8 -8 -26 -15 -40 -15 -16 0 -26 -6 -26
-15 0 -23 -18 -18 -36 10 -9 14 -27 28 -40 31 -12 3 -30 16 -38 29 -13 20 -19
22 -68 14 -42 -7 -54 -6 -61 6 -4 8 -14 12 -22 9 -10 -4 -15 0 -15 11 0 9 4
14 9 10 5 -3 12 -1 16 5 4 6 -12 10 -43 10 -45 0 -50 3 -56 25 -5 20 -13 25
-36 25 -17 0 -30 4 -30 10 0 5 -15 17 -32 26 -43 22 -43 21 -29 38 9 11 10 20
2 33 -10 17 -10 17 -12 -2 -1 -11 -1 -23 0 -28 0 -4 -21 -7 -48 -7 -49 0 -50
-1 -54 -32 -2 -18 -5 2 -5 44 -1 42 -7 80 -13 83 -5 4 -14 18 -20 31 -7 21
-12 23 -29 14 -11 -6 -21 -18 -21 -28 -1 -9 -8 6 -15 33 -11 40 -13 43 -10 15
1 -19 0 -46 -4 -60 -4 -14 -8 126 -9 310 l-1 336 39 -4 c21 -2 42 1 45 7 9 13
208 2 219 -13 5 -6 6 -1 2 11 -6 20 -4 21 29 12 27 -8 41 -6 58 5 34 22 135
46 193 46 62 0 133 -19 204 -53 l54 -27 38 43 c23 25 37 49 35 60 -2 9 0 17 5
17 11 0 12 163 2 174 -11 11 -9 135 2 140 6 3 2 5 -8 5 -11 1 -15 6 -11 12 4
8 282 10 975 7 l969 -3 0 172 0 173 -957 1 c-527 1 -969 5 -983 9 -14 4 -20 8
-13 9 8 1 10 42 8 151 -2 82 -6 154 -9 159 -4 5 -1 13 5 17 8 4 9 31 4 85 -6
74 -5 78 12 72 15 -6 16 -4 5 9 -15 19 -16 363 -2 478 6 41 9 86 8 100 -1 14
-1 70 -1 125 1 55 1 125 1 155 0 30 0 109 1 175 0 66 1 129 0 140 -2 36 -2 59
-1 140 1 44 0 107 -1 140 -1 33 2 81 7 108 7 39 6 51 -8 66 -14 15 -15 26 -6
70 5 29 8 57 5 62 -3 4 0 29 6 55 11 41 10 49 -4 59 -14 10 -15 17 -4 45 9 26
9 34 0 37 -16 6 -17 35 -2 50 9 9 9 20 -2 44 -10 25 -10 34 -1 37 17 5 15 27
-3 42 -20 16 -20 60 0 60 19 0 20 16 1 23 -15 6 -19 84 -4 93 11 7 -30 64 -47
64 -17 0 -27 27 -14 36 6 3 16 1 22 -5 6 -6 16 -11 23 -11 9 0 9 12 -1 52 -10
35 -11 57 -4 70 7 14 6 18 -5 18 -11 0 -14 7 -11 28 10 56 -38 77 -80 35 -9
-8 -19 -12 -23 -8 -4 4 -1 10 6 12 25 9 11 23 -24 23 -32 0 -35 -2 -29 -22 5
-20 4 -21 -5 -5 -16 25 -30 21 -30 -8 0 -22 -4 -25 -34 -25 -19 0 -46 4 -60
10 -24 9 -27 6 -41 -27 -18 -42 -36 -57 -48 -40 -4 7 -5 -1 -1 -18 7 -29 6
-29 -12 -14 -10 10 -27 19 -37 20 -22 5 -18 25 5 22 9 -1 19 4 22 12 4 11 -2
15 -19 15 -23 0 -35 23 -17 33 4 2 2 2 -5 1 -7 -2 -15 1 -18 6 -6 10 -28 3
-62 -20 -26 -17 -31 -50 -8 -50 8 0 15 -4 15 -9 0 -13 -48 -7 -63 8 -9 9 -9
14 0 19 6 4 13 16 15 26 3 23 -32 45 -72 46 l-25 1 25 10 c17 7 26 7 28 0 4
-13 92 -15 92 -3 0 4 -6 14 -12 20 -10 10 -10 17 0 32 16 25 15 40 -1 40 -7 0
-18 -13 -24 -30 -12 -33 -44 -43 -36 -11 3 13 -2 23 -17 31 -26 14 -30 11 -39
-32 -6 -28 -11 -32 -36 -33 -23 0 -31 -5 -33 -22 -2 -16 3 -22 20 -25 26 -3
40 -48 15 -48 -37 0 -75 22 -80 46 -4 22 -1 25 16 20 17 -4 18 -3 6 9 -8 7
-30 16 -49 20 -30 5 -36 3 -45 -16 -15 -33 -35 -36 -35 -5 0 29 -3 30 -31 16
-10 -6 -19 -21 -19 -34 0 -13 -7 -26 -15 -30 -23 -8 -18 -26 8 -27 18 -1 17
-2 -7 -10 -20 -5 -34 -4 -43 3 -19 15 -16 36 4 34 12 0 19 7 21 22 3 20 0 22
-50 22 -30 0 -60 6 -66 12 -10 10 -14 10 -21 0 -4 -7 -15 -10 -24 -6 -19 7
-22 20 -6 29 19 13 -23 41 -54 37 -26 -4 -27 -2 -21 22 7 29 0 32 -42 16 -19
-7 -30 -7 -40 1 -9 8 -14 8 -14 1 0 -12 59 -57 74 -57 5 0 11 -5 13 -12 3 -7
-12 -16 -33 -22 -43 -12 -57 -2 -51 37 3 16 -5 30 -26 48 l-31 26 -8 -22 c-6
-17 -14 -21 -30 -17 -13 4 -26 0 -32 -9 -9 -12 -17 -13 -36 -5 l-25 10 25 7
c24 8 24 8 -10 16 -29 6 -37 4 -49 -12 -7 -11 -23 -21 -35 -21 -17 -1 -17 -2
-3 -6 28 -7 20 -18 -15 -19 -18 -1 -38 5 -46 13 -9 9 -24 12 -42 8 -17 -4 -31
-1 -35 5 -4 7 -18 9 -32 5 -34 -8 -63 3 -63 25 0 14 -5 17 -22 12 -13 -3 -27
-11 -31 -19 -4 -7 -19 -13 -32 -13 -13 0 -26 -6 -29 -12 -5 -10 -7 -10 -12 0
-8 18 -37 15 -30 -3 4 -11 -3 -19 -19 -25 -28 -11 -31 -20 -13 -38 9 -9 7 -12
-10 -12 -12 0 -22 6 -23 13 0 6 -5 2 -11 -10 -12 -26 -16 -27 -52 -13 -19 7
-25 16 -23 32 1 13 6 26 11 30 6 4 5 12 -1 20 -6 7 -13 24 -15 38 -1 14 -10
26 -19 28 -25 5 -50 -26 -43 -52 7 -31 -22 -54 -66 -52 -46 3 -90 16 -90 27 0
5 -6 9 -13 9 -8 0 -24 9 -37 20 -13 11 -29 20 -36 20 -7 0 -25 14 -41 30 -30
33 -46 39 -37 15 8 -19 -1 -19 -47 3 -42 19 -52 37 -16 29 26 -7 61 32 51 57
-10 25 -55 32 -70 12 -11 -16 -13 -16 -19 3 -3 12 -15 21 -25 21 -13 0 -17 -5
-14 -15 4 -8 1 -15 -5 -15 -10 0 -15 14 -12 33 3 20 -29 3 -35 -18 -3 -14 -15
-30 -25 -35 -10 -6 -16 -17 -13 -25 4 -10 -5 -16 -33 -21 l-38 -8 43 -9 c23
-4 40 -12 37 -18 -4 -5 1 -9 9 -9 18 0 24 -21 24 -82 0 -41 -3 -48 -19 -48
-10 0 -19 -4 -19 -9 0 -5 -3 -16 -6 -24 -3 -10 2 -18 15 -22 29 -9 26 -21 -9
-37 -31 -13 -39 -39 -21 -67 8 -12 11 -12 25 1 8 9 12 19 8 23 -4 5 4 5 18 2
14 -4 28 -7 32 -7 4 0 4 -7 1 -17 -4 -11 -3 -14 5 -9 8 4 16 -2 21 -18 6 -13
16 -28 24 -33 8 -4 19 -18 26 -30 6 -13 18 -23 25 -23 7 0 21 -8 30 -19 15
-17 16 -45 11 -297 -3 -154 -5 -286 -5 -294 -1 -14 7 -271 14 -438 1 -40 -2
-76 -7 -79 -5 -3 -6 -17 -2 -31 4 -16 1 -28 -7 -33 -18 -12 -28 -11 -28 2 0 5
5 7 10 4 6 -3 10 -1 10 4 0 6 -4 11 -9 11 -12 0 -11 35 1 78 6 20 6 38 1 45
-13 17 -15 67 -3 67 7 0 7 7 -1 21 -6 12 -8 41 -5 65 2 24 1 46 -4 49 -8 5 -6
74 4 175 2 14 -2 33 -8 43 -8 13 -8 20 2 26 16 10 5 41 -15 41 -7 0 -13 7 -11
17 4 21 -40 33 -129 36 -64 2 -72 6 -89 45 -1 2 -13 0 -28 -4 -30 -7 -25 -24
7 -25 20 -1 20 -1 -3 -8 -27 -7 -44 -60 -38 -117 3 -23 0 -30 -9 -27 -16 6
-16 -10 -3 -58 14 -49 21 -217 9 -224 -5 -4 -9 -1 -9 4 0 6 -8 11 -18 11 -10
0 -23 5 -30 12 -9 9 -12 9 -12 0 0 -7 4 -12 10 -12 5 0 13 -18 16 -40 4 -24
15 -47 28 -56 20 -16 20 -16 -11 -10 -26 4 -31 2 -26 -9 3 -9 0 -22 -7 -30
-17 -21 -4 -32 20 -17 11 7 22 12 25 12 12 0 3 -27 -19 -53 l-23 -28 -31 18
c-18 10 -35 26 -38 35 -4 14 -8 15 -19 5 -7 -6 -9 -14 -5 -17 5 -3 11 -30 14
-60 4 -30 3 -48 -1 -40 -3 8 -14 21 -25 28 -10 7 -18 20 -18 29 0 13 -3 13
-15 3 -16 -14 -15 -17 -21 50 -3 33 -14 1768 -11 1800 4 56 -2 554 -7 575 -6
23 -11 26 -39 24 -18 -2 -38 0 -45 5 -12 7 -18 -46 -13 -123 2 -22 -1 -31 -8
-27 -6 4 -11 13 -11 20 0 20 -67 69 -73 53 -3 -6 -6 -1 -6 12 -1 23 0 23 24 7
33 -21 35 -21 33 12 -1 15 -13 37 -26 50 -17 16 -19 22 -8 22 9 0 16 4 16 8 0
4 -12 7 -27 6 -71 -3 -69 -1 -68 -43 0 -23 9 -48 19 -60 18 -20 18 -20 -16
-14 -34 5 -35 4 -41 -32 -3 -21 -2 -46 4 -57 6 -10 7 -28 4 -39 -4 -11 -1 -26
5 -34 10 -12 10 -15 1 -15 -8 0 -10 -8 -6 -20 3 -11 2 -20 -3 -20 -17 0 -20
51 -21 315 0 143 0 518 0 833 l-1 572 -85 0 -85 0 0 -2009z m445 549 c3 -5 1
-10 -4 -10 -6 0 -11 5 -11 10 0 6 2 10 4 10 3 0 8 -4 11 -10z m-70 -161 c11
-17 -1 -21 -15 -4 -8 9 -8 15 -2 15 6 0 14 -5 17 -11z m-167 -411 c9 -9 12 -9
12 0 0 13 30 5 43 -12 6 -8 10 -7 14 2 8 19 32 14 30 -7 -1 -17 -9 -20 -69
-19 -57 1 -68 4 -68 18 0 30 18 38 38 18z m162 -21 c0 -2 -11 -4 -25 -5 -24
-2 -32 7 -19 21 6 5 44 -9 44 -16z m590 -347 c0 -5 -10 -10 -22 -9 -22 0 -22
1 -3 9 11 5 21 9 23 9 1 1 2 -3 2 -9z m38 -33 c2 -12 -1 -15 -12 -11 -19 7
-22 38 -3 32 6 -3 13 -12 15 -21z m216 -24 l-7 -38 22 19 21 19 -4 -53 c-2
-30 -9 -56 -15 -58 -6 -2 -11 2 -11 8 0 7 -7 10 -14 7 -11 -4 -13 -1 -9 10 4
11 2 14 -5 9 -13 -8 -17 -78 -5 -90 4 -4 8 -25 9 -48 2 -28 -1 -37 -7 -27 -5
8 -9 24 -9 37 0 12 -4 22 -10 22 -5 0 -10 -4 -10 -10 0 -5 -11 -10 -25 -10
-20 0 -25 -5 -25 -24 0 -55 -50 -55 -64 -1 -8 30 -26 33 -33 5 -8 -29 -17 -25
-41 20 -21 40 -39 110 -28 110 6 0 40 -61 41 -74 0 -5 6 -11 13 -13 16 -6 16
39 0 55 -7 7 -13 26 -14 42 l-2 30 29 -32 c25 -30 30 -32 49 -20 28 17 52 -1
44 -33 -3 -13 0 -26 6 -30 21 -13 29 9 20 50 -7 31 -6 42 6 48 7 4 14 22 14
38 0 44 17 69 46 69 23 0 24 -2 18 -37z m636 2 c0 -8 -4 -15 -9 -15 -13 0 -22
16 -14 24 11 11 23 6 23 -9z m-929 -35 c18 -10 27 -40 12 -40 -10 0 -43 32
-43 42 0 11 7 10 31 -2z m139 -21 c0 -11 -3 -11 -24 -3 -23 9 -20 23 4 17 11
-3 20 -9 20 -14z m1473 -19 c6 -25 5 -37 -7 -49 -15 -14 -16 -14 -16 1 0 9 6
19 13 21 6 3 -7 6 -30 6 -42 1 -53 12 -46 42 3 11 15 15 41 14 32 -2 37 -7 45
-35z m-655 -1 c-2 -6 -8 -10 -13 -10 -5 0 -11 4 -13 10 -2 6 4 11 13 11 9 0
15 -5 13 -11z m895 -13 c4 -9 -2 -13 -19 -13 -20 0 -22 2 -13 13 6 8 15 14 19
14 4 0 10 -6 13 -14z m527 -6 c0 -5 -5 -10 -11 -10 -5 0 -7 5 -4 10 3 6 8 10
11 10 2 0 4 -4 4 -10z m-593 -6 c-3 -3 -12 -4 -19 -1 -8 3 -5 6 6 6 11 1 17
-2 13 -5z m783 -4 c0 -5 -2 -10 -4 -10 -3 0 -8 5 -11 10 -3 6 -1 10 4 10 6 0
11 -4 11 -10z m-65 -10 c3 -5 -1 -10 -9 -10 -9 0 -16 5 -16 10 0 6 4 10 9 10
6 0 13 -4 16 -10z m-178 -25 c3 -11 -36 -39 -44 -31 -3 2 -2 14 2 26 7 21 35
25 42 5z m98 5 c-3 -5 -13 -10 -21 -10 -8 0 -14 5 -14 10 0 6 9 10 21 10 11 0
17 -4 14 -10z m99 -27 c-10 -7 -28 -13 -41 -13 -13 0 -26 -1 -30 -2 -4 -2 -9
5 -11 16 -3 16 1 17 37 11 34 -6 42 -4 48 11 5 13 8 14 11 4 3 -7 -3 -19 -14
-27z m-964 17 c0 -5 7 -10 16 -10 13 0 14 -3 4 -14 -6 -8 -17 -13 -24 -10 -13
5 -17 44 -4 44 4 0 8 -4 8 -10z m1006 -76 c-3 -9 -6 -20 -6 -25 0 -6 -4 -7
-10 -4 -16 10 -12 45 6 45 11 0 14 -5 10 -16z m-66 -72 c0 -4 -9 -8 -20 -8
-11 0 -20 4 -20 8 0 4 9 8 20 8 11 0 20 -4 20 -8z m98 -147 c20 -7 14 -34 -13
-59 -14 -13 -25 -29 -25 -36 0 -7 -7 -10 -15 -6 -10 3 -15 -1 -15 -11 0 -13
-3 -14 -12 -5 -10 10 -10 17 -1 31 10 17 9 20 -13 25 -14 4 -30 3 -36 0 -8 -5
-9 -1 -3 12 4 10 7 27 7 37 0 9 3 17 9 17 5 0 9 -6 9 -12 0 -7 5 -5 11 5 10
17 46 17 97 2z m-1288 -64 c0 -14 -6 -17 -25 -13 -14 2 -25 11 -25 18 0 8 10
14 25 14 18 0 25 -5 25 -19z m714 -5 c21 -3 43 -9 49 -15 5 -5 15 -7 22 -5 36
14 55 -251 49 -681 -3 -170 -5 -326 -6 -345 -1 -19 4 -87 10 -151 14 -140 18
-311 8 -357 -6 -26 -12 -33 -29 -30 -32 5 -38 45 -41 268 -2 113 -6 215 -10
226 -4 12 -25 34 -48 49 l-40 27 7 70 c11 118 32 211 49 220 9 5 16 18 16 28
0 10 5 31 12 45 10 21 8 30 -9 53 -11 15 -23 38 -26 52 -11 39 -19 48 -59 55
-30 6 -39 4 -44 -9 -7 -18 -34 -22 -34 -5 0 6 -6 9 -13 6 -7 -3 -21 1 -31 9
-11 7 -23 11 -27 8 -5 -3 -9 -1 -9 5 0 5 -2 15 -5 23 -5 13 36 38 62 38 7 0
13 5 13 10 0 6 -16 10 -35 10 -28 0 -35 4 -35 20 0 13 10 24 28 30 15 6 37 15
49 21 12 7 34 10 50 7 26 -4 29 -1 25 19 -3 16 0 23 11 23 21 0 32 19 18 33
-16 16 -13 47 4 47 33 0 -14 99 -46 100 -9 0 -21 6 -28 13 -8 11 -3 16 24 27
36 14 47 30 20 30 -8 0 -15 -5 -15 -10 0 -14 -50 -2 -72 17 -9 8 -22 13 -30
12 -31 -4 -79 2 -74 9 5 8 173 7 240 -2z m476 -34 c-1 -21 -14 -52 -22 -52
-16 0 -38 28 -33 42 6 14 55 23 55 10z m107 -59 c-3 -3 -11 -2 -17 2 -9 6 -9
10 1 16 14 8 27 -7 16 -18z m-1667 -34 c0 -19 -35 1 -39 22 -3 24 -3 24 18 5
12 -11 21 -23 21 -27z m-70 10 c16 -30 8 -31 -13 -3 -10 13 -13 24 -8 24 6 0
15 -9 21 -21z m1740 -19 c0 -5 -5 -10 -11 -10 -5 0 -7 5 -4 10 3 6 8 10 11 10
2 0 4 -4 4 -10z m-923 -6 c-3 -3 -12 -4 -19 -1 -8 3 -5 6 6 6 11 1 17 -2 13
-5z m254 -47 c-17 -17 -24 -1 -10 25 12 21 14 21 17 4 2 -10 -1 -23 -7 -29z
m-689 -7 c2 -20 8 -24 30 -22 25 2 26 0 30 -54 1 -31 -1 -58 -6 -61 -15 -10
-36 28 -36 64 0 18 -4 33 -10 33 -16 0 -55 -44 -52 -57 2 -7 -5 -13 -14 -13
-11 0 -14 5 -9 18 4 9 11 33 15 52 15 76 44 98 52 40z m738 24 c0 -8 -4 -12
-10 -9 -5 3 -10 10 -10 16 0 5 5 9 10 9 6 0 10 -7 10 -16z m-1095 -17 c0 -26
-20 -25 -23 2 -3 16 1 22 10 19 7 -3 13 -12 13 -21z m35 7 c0 -8 -4 -12 -10
-9 -5 3 -10 10 -10 16 0 5 5 9 10 9 6 0 10 -7 10 -16z m930 -24 c0 -5 -4 -12
-10 -15 -5 -3 -10 -4 -10 -1 0 2 -3 12 -6 20 -5 12 -2 15 10 10 9 -3 16 -10
16 -14z m737 -12 c-3 -8 -6 -5 -6 6 -1 11 2 17 5 13 3 -3 4 -12 1 -19z m-1222
-8 c8 -13 -5 -13 -25 0 -13 8 -13 10 2 10 9 0 20 -4 23 -10z m273 -5 c4 -3 -4
-8 -16 -12 -12 -3 -22 -9 -22 -14 0 -5 -4 -9 -10 -9 -5 0 -10 11 -10 25 0 22
4 25 26 21 15 -3 29 -8 32 -11z m962 -14 c0 -6 -4 -13 -10 -16 -5 -3 -10 1
-10 9 0 9 5 16 10 16 6 0 10 -4 10 -9z m-1670 -44 c24 -39 18 -48 -28 -44 -35
4 -37 6 -40 44 -2 39 -1 40 24 35 15 -3 34 -18 44 -35z m881 28 c-1 -15 -24
-12 -29 3 -3 9 2 13 12 10 10 -1 17 -7 17 -13z m-671 -39 c0 -3 -4 -8 -10 -11
-5 -3 -10 -1 -10 4 0 6 5 11 10 11 6 0 10 -2 10 -4z m266 -25 c-4 -6 -15 -11
-24 -10 -11 0 -12 3 -4 6 6 2 12 12 12 21 0 12 3 13 11 5 6 -6 8 -16 5 -22z
m204 -11 c0 -5 -4 -10 -10 -10 -5 0 -10 5 -10 10 0 6 5 10 10 10 6 0 10 -4 10
-10z m169 -163 l-2 -62 -8 45 c-11 64 -11 92 1 85 6 -3 9 -34 9 -68z m42 -34
c-9 -16 -10 -14 -11 12 0 21 3 26 11 18 8 -8 8 -16 0 -30z m181 -5 c-7 -7 -12
-8 -12 -2 0 6 3 14 7 17 3 4 9 5 12 2 2 -3 -1 -11 -7 -17z m-32 -19 c8 -1 -1
-5 -20 -9 -37 -9 -54 -5 -44 12 3 5 16 7 28 4 11 -3 28 -6 36 -7z m-2170 -363
c0 -28 -15 -50 -29 -42 -11 7 -15 48 -6 58 13 13 35 3 35 -16z m-160 -140 c0
-16 -3 -15 -21 8 -11 14 -27 26 -35 26 -8 0 -14 7 -14 15 0 22 69 -26 70 -49z
m-479 -23 c16 -10 29 -23 29 -30 0 -9 -11 -6 -35 9 -53 35 -48 52 6 21z m66
-5 c-3 -8 -6 -5 -6 6 -1 11 2 17 5 13 3 -3 4 -12 1 -19z m523 -13 c0 -8 -4
-15 -10 -15 -5 0 -10 7 -10 15 0 8 5 15 10 15 6 0 10 -7 10 -15z m-40 -20 c0
-27 -15 -34 -24 -10 -3 8 -15 15 -26 15 -11 0 -20 5 -20 10 0 6 16 10 35 10
31 0 35 -3 35 -25z m68 -71 c-10 -9 -41 24 -33 35 5 9 11 7 22 -9 8 -12 13
-23 11 -26z m-48 29 c0 -5 -4 -14 -9 -21 -7 -11 -9 -11 -14 1 -3 8 -3 18 0 21
9 8 23 7 23 -1z m-396 -58 c12 -18 13 -25 4 -25 -18 1 -48 25 -48 39 0 20 27
12 44 -14z m442 -7 c37 -31 44 -40 44 -55 0 -9 -13 -1 -35 21 -19 20 -35 39
-35 41 0 9 10 5 26 -7z m-366 -33 c0 -8 -4 -15 -9 -15 -5 0 -11 7 -15 15 -3 9
0 15 9 15 8 0 15 -7 15 -15z m735 -148 c0 -82 -2 -90 -24 -107 -25 -18 -24
-54 1 -45 18 7 39 -40 25 -54 -8 -8 -8 -11 0 -11 15 0 21 -52 13 -105 -4 -24
-3 -48 1 -52 12 -13 13 -47 1 -76 -7 -15 -11 -31 -11 -35 6 -38 -21 -43 -44
-8 -11 16 -13 26 -5 34 6 6 7 18 3 29 -4 10 -7 29 -6 42 2 18 -1 22 -13 18 -9
-4 -16 -2 -16 4 0 6 -7 9 -15 5 -13 -5 -14 -2 -4 15 6 12 8 36 4 55 -3 19 -3
49 0 68 5 26 11 33 25 29 25 -7 35 15 17 35 -8 9 -16 23 -19 31 -2 9 -12 -4
-23 -30 -13 -32 -20 -39 -23 -25 -2 10 1 22 7 26 8 4 9 14 2 32 -5 15 -6 30 0
39 5 8 9 20 9 28 0 11 -5 10 -20 -4 -11 -10 -20 -13 -20 -7 0 7 4 12 9 12 5 0
7 9 4 21 -3 12 0 25 7 29 7 4 15 23 17 41 5 46 20 61 62 57 l36 -3 0 -88z
m-125 33 c0 -11 -4 -20 -9 -20 -5 0 -7 9 -4 20 3 11 7 20 9 20 2 0 4 -9 4 -20z
m2272 -175 c0 -49 -1 -103 -2 -120 l-2 -30 -15 35 c-10 22 -12 46 -8 70 4 19
7 69 7 110 -1 60 1 70 9 50 6 -14 11 -65 11 -115z m-12 -165 c0 -5 -4 -10 -10
-10 -5 0 -10 5 -10 10 0 6 5 10 10 10 6 0 10 -4 10 -10z m-3 -87 c-3 -10 -5
-2 -5 17 0 19 2 27 5 18 2 -10 2 -26 0 -35z m0 -65 c-3 -7 -5 -2 -5 12 0 14 2
19 5 13 2 -7 2 -19 0 -25z m8 -38 c3 -5 1 -10 -4 -10 -6 0 -11 5 -11 10 0 6 2
10 4 10 3 0 8 -4 11 -10z m-2436 -467 c1 -174 -2 -263 -9 -263 -5 0 -10 5 -10
11 0 8 -5 8 -15 -1 -8 -7 -15 -9 -16 -4 0 5 -2 19 -3 32 -2 14 4 27 14 32 27
14 31 50 16 121 -8 35 -15 54 -15 41 -1 -13 -5 -21 -10 -17 -11 6 -2 78 11 83
11 5 10 79 -2 103 -8 13 -7 25 0 40 9 16 8 28 -4 54 -20 42 -21 91 -1 99 8 3
15 14 15 24 0 10 3 22 8 26 13 14 20 -113 21 -381z m-79 307 c0 -19 -11 -26
-23 -14 -8 8 3 34 14 34 5 0 9 -9 9 -20z m2810 -247 c-13 -11 -13 -12 0 -13
11 0 11 -3 2 -12 -10 -10 -15 -10 -21 1 -5 8 -11 9 -15 3 -7 -11 19 -42 35
-42 17 0 9 -39 -10 -50 -31 -16 -51 -12 -51 10 0 11 7 20 15 20 8 0 15 5 15
10 0 6 -7 10 -16 10 -12 0 -15 7 -11 26 6 31 -10 94 -23 94 -17 0 -11 58 7 68
10 6 14 16 10 27 -6 15 -8 15 -23 1 -8 -9 -21 -16 -29 -16 -7 0 -15 -5 -17
-11 -2 -7 -4 4 -4 23 0 26 4 34 13 31 8 -3 22 2 33 12 10 9 24 14 29 10 6 -3
14 0 17 9 3 8 12 12 20 9 8 -3 17 3 21 13 5 11 10 -32 13 -101 4 -99 3 -122
-10 -132z m-150 141 c0 -8 -4 -12 -10 -9 -5 3 -10 10 -10 16 0 5 5 9 10 9 6 0
10 -7 10 -16z m6 -68 c4 -16 2 -26 -5 -26 -6 0 -11 7 -11 15 0 8 -4 15 -10 15
-5 0 -10 12 -10 26 0 22 2 24 15 11 7 -8 17 -26 21 -41z m64 -86 c11 -7 12
-12 3 -21 -8 -8 -14 -6 -22 10 -12 22 -5 27 19 11z m-64 -127 c-11 -11 -19 6
-11 24 8 17 8 17 12 0 3 -10 2 -21 -1 -24z m732 -249 c12 -8 22 -22 22 -30 0
-17 -37 -19 -42 -2 -2 6 -10 8 -16 4 -16 -10 -6 -25 24 -36 63 -24 48 -110
-19 -110 -37 0 -57 15 -57 42 0 11 7 18 20 18 11 0 20 -4 20 -10 0 -5 7 -10
15 -10 26 0 17 17 -21 39 -30 18 -35 26 -32 53 2 23 11 36 28 45 32 16 31 16
58 -3z m-632 -19 c13 -20 14 -30 4 -59 -8 -25 -8 -41 -1 -55 16 -29 13 -41 -9
-41 -14 0 -26 11 -35 32 l-13 33 -4 -30 c-2 -22 -8 -30 -23 -30 -18 0 -20 8
-23 88 l-3 87 45 0 c37 0 48 -4 62 -25z m916 8 c35 -31 12 -103 -34 -103 -13
0 -18 -8 -18 -30 0 -23 -4 -30 -20 -30 -19 0 -20 7 -20 90 l0 90 37 0 c20 0
45 -7 55 -17z m-804 -31 c22 -14 27 -78 8 -107 -37 -56 -105 -11 -93 62 4 20
12 40 19 45 17 10 49 10 66 0z m135 -4 c-2 -5 -3 -42 -3 -83 0 -66 -2 -76 -21
-86 -30 -16 -69 3 -69 33 0 13 -2 39 -6 58 -3 19 -1 48 5 63 10 26 15 28 53
25 24 -2 42 -6 41 -10z m117 -8 c12 -22 11 -76 -2 -102 -11 -23 -61 -24 -79
-2 -17 20 -16 88 1 109 18 22 67 19 80 -5z m100 0 c0 -11 -7 -20 -15 -20 -11
0 -15 -12 -15 -50 0 -43 -3 -50 -20 -50 -18 0 -20 7 -20 70 l0 70 35 0 c28 0
35 -4 35 -20z m560 5 c0 -7 -6 -18 -14 -22 -8 -5 -16 -27 -18 -53 -2 -33 -8
-46 -20 -48 -16 -3 -18 5 -18 67 l0 71 35 0 c24 0 35 -5 35 -15z m100 -4 c5
-11 9 -38 7 -62 -3 -53 -29 -75 -67 -56 -20 10 -26 21 -28 54 -2 23 2 51 8 63
14 27 65 27 80 1z m110 4 c10 -12 10 -18 1 -29 -8 -10 -9 -16 -1 -21 14 -8 13
-48 -2 -63 -19 -19 -66 -15 -78 8 -9 16 -7 22 6 27 10 4 19 2 22 -5 4 -14 22
-16 22 -3 0 5 -9 13 -20 16 -29 9 -43 40 -30 65 13 24 62 27 80 5z m110 0 c10
-12 10 -18 1 -29 -8 -10 -9 -16 -1 -21 14 -8 13 -48 -2 -63 -20 -20 -66 -15
-78 9 -15 26 -5 37 20 21 24 -14 30 -15 30 -3 0 5 -9 13 -21 16 -29 9 -46 50
-29 70 16 19 64 19 80 0z m178 3 c7 -6 12 -34 12 -69 0 -52 -2 -59 -20 -59
-17 0 -20 7 -20 50 0 28 -4 50 -10 50 -5 0 -10 -22 -10 -50 0 -43 -3 -50 -20
-50 -17 0 -20 7 -20 50 0 28 -4 50 -10 50 -5 0 -10 -22 -10 -50 0 -43 -3 -50
-20 -50 -18 0 -20 7 -20 70 l0 70 68 -1 c37 -1 73 -6 80 -11z m132 -58 l0 -70
-40 0 c-44 0 -60 18 -60 70 0 52 16 70 60 70 l40 0 0 -70z m118 -2 c2 -55 0
-68 -12 -68 -11 0 -16 13 -18 48 -2 26 -7 47 -13 47 -5 0 -11 -21 -13 -47 -2
-34 -7 -48 -18 -48 -11 0 -14 16 -14 71 l0 70 43 -3 42 -3 3 -67z m-4248 -38
c0 -5 -4 -10 -10 -10 -5 0 -10 5 -10 10 0 6 5 10 10 10 6 0 10 -4 10 -10z
m3198 -7 c-5 -26 -38 -29 -38 -4 0 15 6 21 21 21 14 0 19 -5 17 -17z m-3268
-3 c0 -5 -11 -10 -25 -10 -14 0 -25 5 -25 10 0 6 11 10 25 10 14 0 25 -4 25
-10z m-110 -84 c0 -8 -7 -16 -15 -20 -13 -4 -14 -2 -5 14 13 23 20 26 20 6z
m4 -85 c8 -13 -3 -19 -24 -14 -11 3 -17 9 -14 14 7 11 31 12 38 0z m2696 -381
c0 -5 -4 -10 -10 -10 -5 0 -10 5 -10 10 0 6 5 10 10 10 6 0 10 -4 10 -10z
m-1450 -62 c18 -77 22 -78 39 -12 l16 59 41 3 c39 3 42 1 46 -25 2 -15 2 -65
0 -110 -4 -80 -5 -83 -28 -83 -23 0 -24 3 -25 68 l0 67 -22 -65 c-19 -56 -25
-65 -46 -65 -21 0 -26 8 -42 64 -10 35 -21 66 -24 69 -3 3 -4 -25 -3 -63 3
-69 3 -70 -22 -70 -25 0 -25 0 -28 108 l-3 107 45 0 44 0 12 -52z m278 -20
c18 -18 14 -45 -8 -51 -11 -3 -23 -1 -26 4 -13 21 -34 8 -34 -21 0 -30 21 -42
35 -20 3 6 15 10 26 10 26 0 26 -46 0 -60 -29 -15 -77 -12 -95 6 -22 21 -21
102 1 126 19 21 82 25 101 6z m-216 -175 c29 -26 23 -53 -12 -53 -16 0 -30 5
-30 11 0 6 -12 9 -27 7 -26 -3 -28 -7 -31 -55 -3 -45 0 -52 19 -58 29 -9 51
12 27 26 -10 6 -18 19 -18 30 0 18 6 20 43 17 l42 -3 -1 -49 c0 -35 -5 -52
-19 -62 -35 -26 -125 -14 -147 20 -4 6 -8 41 -8 79 0 87 17 107 92 107 34 0
58 -6 70 -17z m138 -63 c17 -32 12 -50 -15 -50 -17 0 -25 6 -25 17 0 40 -19
-6 -22 -52 -3 -42 -6 -50 -23 -50 -18 0 -20 8 -23 64 -2 35 -1 69 2 76 2 7 24
12 50 13 35 0 49 -4 56 -18z m135 4 c12 -12 15 -32 13 -77 l-3 -62 -58 -2
c-53 -2 -59 0 -69 22 -8 19 -8 32 1 51 10 22 17 26 46 22 24 -3 35 0 35 9 0
10 -10 12 -40 7 -42 -7 -54 8 -28 34 17 17 84 15 103 -4z m69 -33 l10 -45 10
45 c9 37 15 44 38 47 25 3 28 0 34 -38 7 -45 21 -42 26 5 2 23 9 31 27 33 22
4 23 2 16 -48 -13 -94 -18 -105 -53 -108 -33 -3 -32 -4 -45 63 -3 16 -5 14
-11 -10 -14 -56 -15 -56 -48 -53 -32 3 -33 4 -44 73 -13 76 -11 88 14 83 11
-2 20 -19 26 -47z m-446 -163 c3 -35 6 -38 33 -38 27 0 29 2 29 40 0 35 3 40
24 40 30 0 32 -11 28 -127 -3 -90 -4 -93 -27 -93 -21 0 -24 5 -27 43 -3 37 -6
42 -30 45 -25 3 -27 0 -30 -40 -3 -38 -6 -43 -28 -43 -25 0 -25 0 -28 108 l-3
108 28 -3 c24 -3 28 -8 31 -40z m182 22 c0 -15 -7 -20 -25 -20 -18 0 -25 5
-25 20 0 15 7 20 25 20 18 0 25 -5 25 -20z m60 -90 c0 -101 -2 -110 -19 -110
-25 0 -31 19 -31 103 0 91 7 117 31 117 17 0 19 -9 19 -110z m70 -1 c0 -109 0
-110 -22 -107 -22 3 -23 8 -26 97 -3 108 0 121 28 121 19 0 20 -6 20 -111z
m-135 -29 c0 -68 -2 -75 -20 -75 -18 0 -20 8 -23 64 -4 75 2 94 25 89 15 -3
18 -15 18 -78z m529 -62 c-3 -4 -11 -8 -17 -7 -9 0 -9 2 0 5 7 3 9 13 6 22 -4
14 -3 14 5 2 6 -8 8 -18 6 -22z m583 -324 c-3 -3 -12 -4 -19 -1 -8 3 -5 6 6 6
11 1 17 -2 13 -5z"/>
<path d="M2910 4101 c0 -6 5 -13 10 -16 6 -3 10 1 10 9 0 9 -4 16 -10 16 -5 0
-10 -4 -10 -9z"/>
<path d="M2860 4051 c0 -18 17 -38 25 -30 12 14 8 44 -7 47 -13 2 -18 -3 -18
-17z"/>
<path d="M3467 2304 c-14 -15 -6 -34 14 -34 14 0 19 5 17 17 -3 18 -20 27 -31
17z"/>
<path d="M3470 2220 c0 -5 5 -10 10 -10 6 0 10 5 10 10 0 6 -4 10 -10 10 -5 0
-10 -4 -10 -10z"/>
<path d="M3410 1700 c0 -11 5 -20 10 -20 6 0 10 9 10 20 0 11 -4 20 -10 20 -5
0 -10 -9 -10 -20z"/>
<path d="M4330 1700 c0 -13 5 -20 13 -17 6 2 12 10 12 17 0 7 -6 15 -12 18 -8
2 -13 -5 -13 -18z"/>
<path d="M3530 1650 c0 -20 5 -30 15 -30 10 0 15 10 15 30 0 20 -5 30 -15 30
-10 0 -15 -10 -15 -30z"/>
<path d="M3650 1650 c0 -20 5 -30 15 -30 10 0 15 10 15 30 0 20 -5 30 -15 30
-10 0 -15 -10 -15 -30z"/>
<path d="M3780 1680 c0 -5 5 -10 10 -10 6 0 10 5 10 10 0 6 -4 10 -10 10 -5 0
-10 -4 -10 -10z"/>
<path d="M3780 1628 c0 -4 4 -8 9 -8 6 0 12 4 15 8 3 5 -1 9 -9 9 -8 0 -15 -4
-15 -9z"/>
<path d="M4540 1680 c0 -5 5 -10 10 -10 6 0 10 5 10 10 0 6 -4 10 -10 10 -5 0
-10 -4 -10 -10z"/>
<path d="M4545 1631 c-6 -11 9 -23 19 -14 9 9 7 23 -3 23 -6 0 -12 -4 -16 -9z"/>
<path d="M4660 1680 c0 -5 5 -10 11 -10 5 0 7 5 4 10 -3 6 -8 10 -11 10 -2 0
-4 -4 -4 -10z"/>
<path d="M5060 1650 c0 -16 5 -30 10 -30 6 0 10 14 10 30 0 17 -4 30 -10 30
-5 0 -10 -13 -10 -30z"/>
<path d="M2320 640 c0 -5 6 -10 14 -10 8 0 18 5 21 10 3 6 -3 10 -14 10 -12 0
-21 -4 -21 -10z"/>
<path d="M5490 7386 c0 -8 5 -18 10 -21 6 -3 10 3 10 14 0 12 -4 21 -10 21 -5
0 -10 -6 -10 -14z"/>
<path d="M5497 7320 c3 -11 7 -20 9 -20 2 0 4 9 4 20 0 11 -4 20 -9 20 -5 0
-7 -9 -4 -20z"/>
<path d="M3146 6703 c-27 -4 -28 -6 -23 -49 2 -24 0 -47 -5 -50 -5 -4 -7 -17
-4 -30 4 -14 2 -24 -4 -24 -5 0 -10 -16 -10 -35 0 -24 -5 -35 -15 -35 -8 0
-15 -4 -15 -10 0 -5 6 -10 14 -10 8 0 16 -4 18 -10 6 -18 -25 -17 1058 -35
162 -3 504 -7 760 -10 256 -3 493 -8 528 -11 l62 -6 0 156 0 156 -447 0 c-247
0 -772 2 -1168 4 -396 3 -733 2 -749 -1z m-21 -172 c3 -5 1 -12 -5 -16 -5 -3
-10 1 -10 9 0 18 6 21 15 7z"/>
<path d="M3030 6691 c0 -4 11 -6 25 -3 20 3 25 0 25 -17 0 -12 5 -19 10 -16 6
3 10 15 10 26 0 15 -7 19 -35 19 -19 0 -35 -4 -35 -9z"/>
<path d="M3066 6613 c-2 -10 -4 -43 -4 -73 0 -50 1 -52 8 -18 3 20 12 44 19
52 9 11 10 20 1 35 -13 26 -17 26 -24 4z"/>
<path d="M2940 6440 c0 -5 5 -10 10 -10 6 0 10 5 10 10 0 6 -4 10 -10 10 -5 0
-10 -4 -10 -10z"/>
<path d="M2524 6295 c-8 -19 0 -28 27 -32 11 -2 22 4 26 12 7 19 5 20 -25 29
-16 5 -24 3 -28 -9z"/>
<path d="M3117 6304 c-4 -4 -7 -24 -7 -45 0 -37 -1 -38 -30 -33 -43 9 -77 -17
-91 -68 -15 -58 -6 -154 19 -187 18 -24 25 -26 93 -26 l74 0 0 180 0 180 -25
3 c-14 2 -29 0 -33 -4z m-12 -219 c0 -60 -3 -70 -19 -73 -26 -5 -36 15 -36 74
0 52 14 77 40 72 12 -3 15 -19 15 -73z"/>
<path d="M3610 6283 c-36 -32 -49 -93 -28 -133 7 -14 39 -38 73 -55 49 -25 60
-34 60 -55 0 -20 -6 -26 -27 -28 -22 -3 -30 2 -38 22 -8 21 -16 26 -45 26 -31
0 -35 -3 -35 -25 0 -70 56 -111 136 -102 83 9 124 81 90 161 -13 31 -26 42
-76 63 -54 24 -61 30 -58 52 4 34 42 41 58 12 8 -15 21 -21 46 -21 34 0 36 1
30 28 -11 46 -59 82 -111 82 -35 0 -52 -6 -75 -27z"/>
<path d="M4113 6295 c-21 -9 -33 -21 -33 -34 0 -11 -7 -27 -16 -36 -19 -18
-22 -64 -6 -74 7 -4 12 -50 14 -111 l3 -105 33 -3 32 -3 0 95 c0 103 5 126 26
126 21 0 18 57 -3 69 -17 9 -17 11 0 23 22 17 20 62 -3 65 -8 1 -30 -4 -47
-12z"/>
<path d="M1914 6254 c3 -8 0 -21 -7 -28 -9 -9 -11 -48 -9 -140 3 -124 4 -127
25 -124 20 3 22 10 25 65 3 58 2 61 -18 56 -25 -7 -26 13 -1 27 11 5 21 20 23
31 7 51 68 45 68 -6 0 -24 35 -41 46 -23 9 15 -5 95 -19 107 -18 15 -68 7 -79
-12 -5 -10 -16 -17 -23 -17 -16 0 -20 12 -8 23 3 4 8 18 9 32 2 19 -2 25 -18
25 -14 0 -18 -5 -14 -16z"/>
<path d="M4240 6246 c0 -16 -6 -26 -15 -26 -20 0 -20 -57 1 -77 13 -13 14 -29
9 -89 -4 -40 -4 -85 -1 -99 6 -22 11 -26 39 -23 l32 3 3 103 c2 79 6 104 17
109 8 3 15 17 15 31 0 43 7 22 35 -103 15 -66 32 -126 37 -132 6 -7 23 -13 39
-13 31 0 31 1 47 95 l9 50 11 -40 c7 -22 12 -49 12 -60 0 -29 11 -41 43 -47
22 -4 30 -1 38 16 16 37 60 248 55 262 -4 11 -21 12 -68 5 -5 0 -8 -18 -9 -38
-1 -21 -4 -49 -8 -63 -7 -23 -9 -21 -20 20 -18 71 -29 90 -50 90 -26 0 -36
-16 -51 -85 l-13 -60 -9 40 c-23 103 -21 100 -63 101 -62 2 -63 3 -67 27 -2
17 -11 23 -35 25 -30 3 -33 1 -33 -22z"/>
<path d="M1770 6209 c0 -11 4 -29 10 -39 13 -24 50 -15 50 13 0 20 0 20 -15 1
-14 -18 -14 -17 -15 14 0 22 -5 32 -15 32 -8 0 -15 -9 -15 -21z"/>
<path d="M2174 6222 c-5 -4 -19 -23 -31 -42 -30 -50 -28 -170 3 -201 12 -11
32 -21 45 -20 13 0 45 1 71 1 l47 0 0 130 c1 129 0 130 -22 130 -39 0 -45 -16
-40 -104 5 -66 3 -84 -10 -95 -64 -53 -93 105 -30 163 14 13 22 29 19 35 -8
12 -36 14 -52 3z m103 -44 c-3 -8 -6 -5 -6 6 -1 11 2 17 5 13 3 -3 4 -12 1
-19z"/>
<path d="M2445 6216 c-15 -10 -25 -11 -43 -3 -36 16 -42 -3 -42 -135 l0 -118
30 0 30 0 0 86 c0 95 10 125 39 117 24 -6 33 9 25 42 -7 29 -13 30 -39 11z"/>
<path d="M2656 6199 c-31 -36 -41 -99 -26 -164 17 -75 30 -85 117 -85 l74 0
-3 137 -3 137 -67 2 c-64 2 -69 0 -92 -27z m90 -54 c12 -18 15 -38 11 -71 -6
-55 -20 -73 -45 -58 -12 8 -18 27 -20 68 -4 81 22 110 54 61z"/>
<path d="M3269 6215 c-31 -17 -59 -80 -59 -133 0 -46 32 -117 58 -131 27 -14
75 -14 106 0 26 12 52 61 41 78 -10 17 -45 13 -72 -9 -29 -23 -53 -13 -53 22
0 17 6 19 63 16 l62 -3 0 59 c-1 53 -4 61 -33 87 -36 32 -72 36 -113 14z m69
-57 c21 -21 13 -38 -18 -38 -23 0 -30 5 -30 19 0 17 11 27 31 30 3 1 10 -4 17
-11z"/>
<path d="M3889 6215 c-38 -21 -58 -57 -65 -119 -11 -94 38 -166 114 -166 62 0
102 60 102 153 0 44 -6 62 -30 95 -17 24 -38 42 -49 42 -11 0 -25 2 -33 5 -7
2 -25 -2 -39 -10z m71 -135 c0 -41 -5 -61 -16 -71 -14 -11 -18 -10 -30 6 -19
26 -18 109 2 130 27 26 44 1 44 -65z"/>
<path d="M2522 6088 l3 -133 28 -3 27 -3 0 135 0 136 -30 0 -31 0 3 -132z"/>
<path d="M4704 6197 c-22 -19 -28 -34 -32 -80 -7 -81 5 -139 34 -170 22 -24
30 -26 87 -24 34 2 68 6 75 11 14 9 17 261 3 270 -5 4 -39 8 -75 11 -58 4 -68
2 -92 -18z m94 -118 c2 -41 -1 -59 -13 -69 -23 -19 -38 0 -39 52 -1 55 9 80
31 76 14 -2 19 -15 21 -59z"/>
<path d="M5007 6213 c-4 -3 -28 -6 -52 -4 l-45 2 0 -140 0 -141 25 -6 c49 -12
55 -2 55 90 0 97 5 116 31 116 16 0 19 -8 19 -52 0 -61 29 -131 58 -147 12 -6
41 -11 66 -11 62 0 82 27 91 124 6 62 4 79 -13 112 -35 69 -100 83 -156 34
l-35 -31 -3 28 c-3 27 -26 42 -41 26z m161 -75 c19 -19 14 -28 -13 -28 -27 0
-28 1 -19 24 7 19 16 20 32 4z m12 -117 c0 -4 -5 -12 -11 -18 -15 -15 -39 -5
-39 17 0 13 6 16 25 12 14 -2 25 -7 25 -11z"/>
<path d="M1205 6201 c-3 -5 5 -17 17 -25 25 -18 38 -20 38 -7 0 14 -48 42 -55
32z"/>
<path d="M1704 6196 c-35 -15 -42 -39 -36 -117 l4 -46 25 23 c21 19 24 30 21
61 -3 22 1 50 9 66 7 15 12 27 11 27 -2 -1 -17 -7 -34 -14z"/>
<path d="M250 6190 c0 -5 5 -10 10 -10 6 0 10 5 10 10 0 6 -4 10 -10 10 -5 0
-10 -4 -10 -10z"/>
<path d="M1275 6190 c-3 -5 -2 -10 4 -10 5 0 18 -3 28 -7 16 -6 16 -5 4 10
-15 19 -27 22 -36 7z"/>
<path d="M960 6154 c0 -21 3 -25 11 -17 6 6 18 9 25 6 8 -3 14 1 14 11 0 9 -4
16 -9 16 -5 0 -16 3 -25 6 -12 5 -16 0 -16 -22z"/>
<path d="M1431 6162 c-13 -25 -14 -32 -2 -32 9 0 23 41 16 48 -2 2 -8 -5 -14
-16z"/>
<path d="M1555 6170 c4 -6 11 -8 16 -5 14 9 11 15 -7 15 -8 0 -12 -5 -9 -10z"/>
<path d="M338 6163 c7 -3 16 -2 19 1 4 3 -2 6 -13 5 -11 0 -14 -3 -6 -6z"/>
<path d="M742 6133 c9 -10 13 -24 10 -32 -3 -8 1 -12 9 -9 34 11 17 57 -20 58
-12 0 -11 -3 1 -17z"/>
<path d="M220 6128 c0 -4 5 -8 11 -8 6 0 9 -9 6 -19 -5 -20 27 -41 63 -41 18
0 18 2 -3 34 -14 22 -32 36 -49 38 -16 3 -28 1 -28 -4z"/>
<path d="M1076 6123 c-8 -9 4 -55 20 -74 20 -22 19 -63 -1 -55 -10 4 -15 -1
-15 -16 0 -16 3 -19 11 -11 6 6 18 9 26 6 11 -4 13 4 9 43 -3 27 -5 59 -5 71
-1 22 -33 48 -45 36z"/>
<path d="M1460 6101 c0 -12 -6 -21 -15 -21 -17 0 -20 -16 -4 -25 5 -4 18 0 28
9 10 9 32 16 49 16 25 0 32 4 32 20 0 14 -7 20 -24 20 -13 0 -26 -6 -29 -12
-3 -10 -7 -10 -20 1 -15 12 -17 11 -17 -8z"/>
<path d="M310 6100 c0 -5 7 -7 15 -4 8 4 15 8 15 10 0 2 -7 4 -15 4 -8 0 -15
-4 -15 -10z"/>
<path d="M390 6103 c0 -14 45 -93 52 -93 5 0 8 11 8 25 0 14 -5 25 -11 25 -6
0 -9 7 -5 15 3 8 -3 19 -14 25 -22 12 -30 13 -30 3z"/>
<path d="M1797 6082 c-5 -7 -10 -74 -8 -99 2 -30 51 1 51 32 0 9 -9 19 -20 22
-20 5 -28 23 -10 23 6 0 10 7 10 15 0 16 -15 21 -23 7z"/>
<path d="M2020 6025 l0 -66 28 3 c26 3 27 4 24 58 -2 30 -5 56 -5 56 -1 1 -12
5 -24 8 -22 7 -23 5 -23 -59z"/>
<path d="M954 6069 c-3 -6 -1 -16 5 -22 8 -8 11 -5 11 11 0 24 -5 28 -16 11z"/>
<path d="M742 6051 c-10 -6 -10 -10 2 -20 10 -9 16 -9 21 -1 10 16 -7 31 -23
21z"/>
<path d="M1220 6052 c0 -4 5 -13 12 -20 9 -9 7 -16 -6 -31 -20 -22 -12 -30 28
-26 40 5 53 28 21 38 -13 5 -27 17 -30 28 -6 18 -25 27 -25 11z"/>
<path d="M1457 6026 c-19 -14 -14 -41 8 -50 8 -3 16 5 20 21 8 33 -5 46 -28
29z"/>
<path d="M1564 6025 c-4 -8 -14 -15 -25 -15 -16 0 -39 -26 -39 -44 0 -8 44 -8
64 0 9 3 16 15 16 25 0 10 5 19 10 19 16 0 12 17 -5 24 -9 3 -18 -1 -21 -9z"/>
<path d="M1347 6024 c-8 -8 3 -34 14 -34 5 0 9 9 9 20 0 19 -11 26 -23 14z"/>
<path d="M808 6003 c7 -3 16 -2 19 1 4 3 -2 6 -13 5 -11 0 -14 -3 -6 -6z"/>
<path d="M860 5990 c-12 -8 -12 -10 3 -16 21 -8 35 2 21 16 -5 5 -15 6 -24 0z"/>
<path d="M960 5980 c0 -5 5 -10 11 -10 5 0 7 5 4 10 -3 6 -8 10 -11 10 -2 0
-4 -4 -4 -10z"/>
<path d="M350 5961 c0 -6 4 -13 10 -16 6 -3 7 1 4 9 -7 18 -14 21 -14 7z"/>
<path d="M1307 5930 c-13 -19 -57 -18 -57 1 0 5 -11 9 -25 9 -30 0 -33 -20 -5
-45 18 -16 20 -17 26 -1 4 10 13 15 21 11 17 -6 93 14 93 25 0 18 -41 17 -53
0z"/>
<path d="M3320 5370 c-12 -8 -9 -10 13 -10 16 0 26 4 22 10 -8 12 -16 12 -35
0z"/>
<path d="M3478 5364 c17 -8 32 -19 32 -26 0 -9 3 -9 11 -1 22 22 2 43 -38 42
l-38 -1 33 -14z"/>
<path d="M3170 5355 c0 -17 2 -18 24 -9 18 7 12 24 -10 24 -8 0 -14 -7 -14
-15z"/>
<path d="M3375 5346 c-16 -12 -16 -13 -1 -19 23 -9 20 -27 -4 -27 -17 0 -19
-3 -10 -19 9 -18 7 -19 -27 -14 -21 3 -41 10 -44 16 -4 5 -15 7 -25 5 -20 -4
-22 0 38 -55 7 -7 19 -19 27 -28 10 -13 16 -14 25 -5 8 9 8 14 -2 17 -6 3 -9
9 -6 14 3 6 11 5 20 -2 11 -9 14 -8 14 5 0 11 7 16 18 14 11 -2 18 5 20 20 2
13 10 26 18 29 8 3 14 14 14 26 0 11 -3 17 -7 14 -3 -4 -16 -1 -29 7 -18 12
-25 13 -39 2z"/>
<path d="M1650 5330 c0 -5 5 -10 10 -10 6 0 10 5 10 10 0 6 -4 10 -10 10 -5 0
-10 -4 -10 -10z"/>
<path d="M917 5303 c-10 -9 -9 -23 1 -23 5 0 9 7 9 15 0 17 -1 18 -10 8z"/>
<path d="M2670 5285 c0 -5 5 -17 10 -25 5 -8 10 -10 10 -5 0 6 -5 17 -10 25
-5 8 -10 11 -10 5z"/>
<path d="M3443 5257 c-8 -17 -7 -28 2 -40 13 -18 55 -24 55 -7 0 6 -7 10 -15
10 -8 0 -15 5 -15 11 0 6 6 9 14 6 17 -7 27 14 16 32 -5 10 -9 10 -15 2 -5 -9
-11 -9 -19 -2 -10 8 -16 5 -23 -12z"/>
<path d="M2590 5240 c0 -11 7 -20 15 -20 8 0 15 6 15 14 0 8 -7 16 -15 20 -10
4 -15 -1 -15 -14z"/>
<path d="M2960 5250 c0 -6 7 -10 15 -10 8 0 15 2 15 4 0 2 -7 6 -15 10 -8 3
-15 1 -15 -4z"/>
<path d="M2210 5230 c0 -5 5 -10 10 -10 6 0 10 5 10 10 0 6 -4 10 -10 10 -5 0
-10 -4 -10 -10z"/>
<path d="M3407 5193 c-4 -3 -7 -15 -7 -25 0 -10 -4 -18 -10 -18 -5 0 -10 -17
-9 -37 1 -37 1 -38 11 -10 6 16 17 27 29 27 15 0 19 7 19 35 0 33 -16 46 -33
28z"/>
<path d="M1970 5181 c0 -6 5 -13 10 -16 6 -3 10 1 10 9 0 9 -4 16 -10 16 -5 0
-10 -4 -10 -9z"/>
<path d="M2062 5141 c-11 -7 -11 -9 0 -13 18 -7 39 2 32 13 -6 11 -15 11 -32
0z"/>
<path d="M2120 5141 c0 -6 5 -13 10 -16 6 -3 10 1 10 9 0 9 -4 16 -10 16 -5 0
-10 -4 -10 -9z"/>
<path d="M3503 5139 c-17 -17 -16 -38 2 -45 8 -4 15 -12 15 -20 0 -16 16 -19
25 -4 3 6 1 10 -5 10 -6 0 -8 5 -5 10 3 6 2 10 -4 10 -5 0 -11 12 -13 26 -2
20 -5 23 -15 13z"/>
<path d="M1430 5130 c0 -6 7 -10 15 -10 8 0 15 2 15 4 0 2 -7 6 -15 10 -8 3
-15 1 -15 -4z"/>
<path d="M3270 5121 c0 -11 31 -24 39 -16 3 3 -1 10 -9 15 -19 12 -30 12 -30
1z"/>
<path d="M1160 5110 c0 -5 5 -10 10 -10 6 0 10 5 10 10 0 6 -4 10 -10 10 -5 0
-10 -4 -10 -10z"/>
<path d="M3211 5094 c0 -11 3 -14 6 -6 3 7 2 16 -1 19 -3 4 -6 -2 -5 -13z"/>
<path d="M4176 5094 c-9 -8 -16 -22 -16 -30 0 -16 30 -49 51 -56 8 -3 11 -9 6
-13 -4 -5 -13 -3 -19 3 -16 16 -38 15 -38 -2 0 -39 65 -61 90 -31 12 14 15 14
31 -1 24 -22 69 -11 69 16 0 11 5 20 10 20 6 0 10 -6 9 -12 -3 -27 2 -38 16
-38 10 0 15 10 15 34 0 19 4 38 10 41 6 4 8 -6 6 -24 -4 -32 15 -58 34 -46 15
9 9 133 -6 146 -14 11 -29 -5 -19 -20 3 -5 1 -12 -5 -16 -6 -3 -13 1 -16 9 -8
20 -30 21 -38 1 -8 -23 -29 -18 -23 5 12 48 -44 35 -63 -15 -8 -19 -17 -35
-21 -35 -13 0 -20 18 -9 25 5 3 10 10 10 15 0 15 -31 40 -50 40 -10 0 -26 -7
-34 -16z m49 -34 c3 -5 1 -10 -4 -10 -6 0 -11 5 -11 10 0 6 2 10 4 10 3 0 8
-4 11 -10z m145 -45 c0 -5 -5 -3 -10 5 -5 8 -10 20 -10 25 0 6 5 3 10 -5 5 -8
10 -19 10 -25z"/>
<path d="M5090 5095 c-7 -8 -7 -14 -1 -17 7 -2 7 -8 1 -18 -7 -12 -12 -12 -22
-2 -18 18 -58 15 -66 -5 -5 -14 -8 -12 -12 12 -3 18 -12 31 -23 33 -15 3 -17
-6 -17 -72 0 -69 2 -76 20 -76 12 0 20 7 20 17 0 15 2 14 15 -4 8 -12 12 -28
9 -36 -6 -18 30 -29 45 -14 6 6 11 20 11 30 0 15 4 17 18 11 23 -10 76 -7 80
6 2 5 14 3 28 -7 22 -14 28 -14 50 -2 23 12 25 18 21 53 -7 53 -28 73 -64 60
-25 -9 -29 -7 -38 15 -12 27 -57 37 -75 16z m-14 -88 c4 -4 -5 -7 -19 -7 -15
0 -27 4 -27 10 0 11 35 8 46 -3z m148 -2 c-4 -8 -8 -15 -10 -15 -2 0 -4 7 -4
15 0 8 4 15 10 15 5 0 7 -7 4 -15z"/>
<path d="M4762 5028 l3 -73 38 -3 c32 -3 37 0 37 17 0 12 -7 21 -15 21 -8 0
-15 5 -15 10 0 6 9 10 20 10 13 0 20 -7 20 -19 0 -23 17 -37 53 -43 33 -6 40
11 35 92 -2 43 -7 56 -20 58 -11 2 -18 -3 -18 -12 0 -9 -6 -16 -14 -16 -8 0
-22 -10 -30 -22 -9 -12 -16 -17 -16 -10 0 6 -8 12 -17 12 -15 1 -15 3 3 13 32
18 18 37 -27 37 l-40 0 3 -72z m135 -30 c-3 -8 -6 -5 -6 6 -1 11 2 17 5 13 3
-3 4 -12 1 -19z"/>
<path d="M1863 5083 c-27 -10 -11 -29 32 -39 35 -8 45 -8 45 2 0 7 -9 16 -20
19 -11 3 -20 11 -20 16 0 10 -17 11 -37 2z"/>
<path d="M4472 5013 c2 -34 8 -58 16 -61 7 -2 12 6 13 20 l0 23 9 -22 c10 -25
29 -30 48 -11 9 9 12 9 12 0 0 -7 7 -12 15 -12 10 0 15 10 15 28 l0 27 13 -25
c9 -19 22 -26 50 -28 l38 -3 -3 58 c-3 58 -3 58 -36 61 -23 2 -38 -2 -46 -14
-12 -15 -13 -15 -19 0 -5 12 -20 16 -67 16 l-61 0 3 -57z m188 -4 c0 -11 -4
-18 -10 -14 -5 3 -7 12 -3 20 7 21 13 19 13 -6z"/>
<path d="M2595 5050 c-8 -13 23 -33 41 -26 8 3 13 10 10 15 -8 12 -45 21 -51
11z"/>
<path d="M3456 5033 c-12 -12 -5 -23 14 -23 11 0 20 4 20 9 0 11 -26 22 -34
14z"/>
<path d="M1525 5000 c3 -5 8 -10 11 -10 2 0 4 5 4 10 0 6 -5 10 -11 10 -5 0
-7 -4 -4 -10z"/>
<path d="M900 4689 c0 -5 12 -27 26 -47 21 -30 25 -32 19 -12 -9 36 -27 70
-37 70 -4 0 -8 -5 -8 -11z"/>
<path d="M894 4583 c10 -11 36 -12 36 -2 0 5 -10 9 -22 9 -12 0 -18 -3 -14 -7z"/>
<path d="M710 4553 c0 -10 5 -25 10 -33 8 -12 10 -9 10 12 0 15 -4 30 -10 33
-5 3 -10 -2 -10 -12z"/>
<path d="M764 4499 c-3 -5 -2 -9 3 -9 4 0 18 -3 31 -6 12 -4 22 -2 22 4 0 13
-49 22 -56 11z"/>
<path d="M798 4453 c7 -3 16 -2 19 1 4 3 -2 6 -13 5 -11 0 -14 -3 -6 -6z"/>
<path d="M715 4398 c8 -39 25 -61 25 -32 0 31 -12 64 -22 64 -6 0 -7 -14 -3
-32z"/>
<path d="M790 4371 c0 -6 5 -13 10 -16 6 -3 10 1 10 9 0 9 -4 16 -10 16 -5 0
-10 -4 -10 -9z"/>
<path d="M700 4261 c0 -46 2 -51 17 -43 24 14 25 42 2 70 l-19 25 0 -52z"/>
<path d="M570 3649 c0 -5 5 -7 10 -4 6 3 10 8 10 11 0 2 -4 4 -10 4 -5 0 -10
-5 -10 -11z"/>
<path d="M540 3610 c0 -5 5 -10 10 -10 6 0 10 5 10 10 0 6 -4 10 -10 10 -5 0
-10 -4 -10 -10z"/>
<path d="M500 3230 c0 -5 7 -10 15 -10 8 0 15 5 15 10 0 6 -7 10 -15 10 -8 0
-15 -4 -15 -10z"/>
<path d="M8 3085 c5 -28 4 -27 26 -19 12 5 13 9 3 25 -17 27 -35 24 -29 -6z"/>
<path d="M290 3089 c0 -5 5 -7 10 -4 6 3 10 8 10 11 0 2 -4 4 -10 4 -5 0 -10
-5 -10 -11z"/>
<path d="M350 3071 c0 -5 5 -13 10 -16 6 -3 10 -2 10 4 0 5 -4 13 -10 16 -5 3
-10 2 -10 -4z"/>
<path d="M620 2910 c0 -5 5 -10 11 -10 5 0 7 5 4 10 -3 6 -8 10 -11 10 -2 0
-4 -4 -4 -10z"/>
<path d="M658 2893 c7 -3 16 -2 19 1 4 3 -2 6 -13 5 -11 0 -14 -3 -6 -6z"/>
<path d="M5 2780 c-4 -12 -2 -27 4 -34 7 -8 8 -41 5 -88 -4 -53 -3 -78 6 -83
19 -12 22 0 24 92 l1 88 35 -2 c19 0 29 1 23 4 -7 2 -13 12 -13 20 0 13 -2 13
-16 2 -14 -11 -18 -11 -29 4 -16 23 -32 21 -40 -3z"/>
<path d="M132 2710 l1 -85 10 53 c7 36 7 62 -1 85 -8 27 -10 20 -10 -53z"/>
<path d="M74 2694 c3 -9 6 -19 6 -23 0 -4 7 -8 15 -8 19 0 19 14 1 33 -19 19
-30 18 -22 -2z"/>
<path d="M740 2610 c0 -7 -7 -21 -16 -31 -15 -17 -12 -39 6 -39 11 0 25 68 16
77 -3 4 -6 0 -6 -7z"/>
<path d="M576 2241 c-3 -4 6 -13 19 -19 19 -9 23 -8 19 3 -7 17 -31 27 -38 16z"/>
<path d="M593 2084 c-3 -9 -1 -19 4 -23 6 -3 13 -16 17 -29 9 -26 26 -20 26 9
0 10 5 19 12 19 6 0 3 9 -7 20 -22 24 -43 26 -52 4z"/>
<path d="M495 1781 c-3 -5 -1 -12 5 -16 5 -3 10 1 10 9 0 18 -6 21 -15 7z"/>
<path d="M640 1746 c14 -14 12 -26 -4 -26 -16 0 -28 -38 -14 -42 6 -2 19 -24
29 -48 l17 -45 -1 53 c0 36 -4 52 -14 52 -18 0 -17 16 2 24 23 9 19 45 -5 43
-13 -1 -16 -5 -10 -11z"/>
<path d="M135 1431 c-8 -26 -2 -141 8 -141 4 0 7 36 7 80 0 81 -4 96 -15 61z"/>
<path d="M1 1275 c0 -50 3 -64 9 -48 5 12 25 27 44 34 23 8 36 20 36 30 0 22
-7 26 -45 30 -17 2 -33 8 -37 14 -4 5 -7 -21 -7 -60z"/>
<path d="M101 1284 c0 -11 3 -14 6 -6 3 7 2 16 -1 19 -3 4 -6 -2 -5 -13z"/>
<path d="M3171 1044 c-113 -23 -207 -104 -253 -217 -25 -61 -23 -182 3 -251
28 -76 96 -148 176 -188 58 -28 75 -32 148 -32 73 0 90 4 148 32 221 109 270
389 97 562 -89 89 -193 120 -319 94z m58 -139 l18 -48 19 54 19 54 6 -95 c3
-52 6 -76 7 -53 2 43 39 133 55 133 5 0 7 -38 5 -84 -2 -46 0 -82 5 -79 4 2 7
21 7 42 0 22 6 44 15 51 13 11 15 -1 15 -97 l0 -110 -59 -32 -60 -31 -24 24
c-14 14 -28 31 -31 38 -3 7 -4 0 -1 -15 4 -18 2 -26 -4 -22 -7 3 -8 0 -5 -9 9
-23 -1 -20 -67 16 l-59 33 0 109 c0 108 0 109 20 91 20 -18 20 -17 20 28 0 26
4 47 8 47 4 0 19 -21 33 -47 l24 -48 3 54 c4 61 6 61 31 -4z m-177 -345 c16
-15 25 -17 40 -9 13 7 23 7 31 0 8 -6 18 -6 27 -1 8 5 23 7 33 4 11 -3 17 0
17 10 0 9 5 16 10 16 6 0 10 -9 10 -20 0 -14 5 -18 17 -13 11 4 14 3 9 -5 -4
-7 -4 -18 0 -24 6 -9 10 -5 14 12 5 21 12 25 45 25 34 0 40 -3 43 -23 2 -12 8
-19 14 -16 6 4 14 0 19 -7 6 -10 8 -7 6 9 0 12 -7 22 -15 22 -7 0 -11 4 -8 8
4 7 59 8 99 3 11 -2 8 -61 -3 -61 -5 0 -10 11 -10 25 0 14 -4 25 -10 25 -5 0
-10 -11 -10 -25 0 -24 -3 -26 -45 -24 -40 2 -45 5 -45 26 0 13 -4 23 -10 23
-5 0 -10 -11 -10 -25 0 -14 -4 -25 -10 -25 -5 0 -10 11 -10 25 0 14 -4 25 -10
25 -5 0 -10 -11 -10 -25 0 -30 -26 -34 -46 -7 -11 14 -13 14 -14 2 0 -12 -14
-16 -62 -17 -35 0 -69 4 -75 9 -9 7 -13 7 -13 -1 0 -6 -11 -11 -25 -11 -23 0
-25 4 -25 45 0 25 2 45 5 45 3 0 15 -9 27 -20z"/>
<path d="M3192 800 c0 -14 2 -19 5 -12 2 6 2 18 0 25 -3 6 -5 1 -5 -13z"/>
<path d="M3130 784 c0 -6 7 -19 16 -30 14 -18 14 -18 3 6 -14 31 -19 36 -19
24z"/>
<path d="M3281 754 c0 -11 3 -14 6 -6 3 7 2 16 -1 19 -3 4 -6 -2 -5 -13z"/>
<path d="M3201 744 c0 -11 3 -14 6 -6 3 7 2 16 -1 19 -3 4 -6 -2 -5 -13z"/>
<path d="M3211 704 c0 -11 3 -14 6 -6 3 7 2 16 -1 19 -3 4 -6 -2 -5 -13z"/>
<path d="M3290 670 c-6 -11 -8 -20 -6 -20 3 0 10 9 16 20 6 11 8 20 6 20 -3 0
-10 -9 -16 -20z"/>
<path d="M3040 519 c0 -11 5 -17 10 -14 6 3 10 13 10 21 0 8 -4 14 -10 14 -5
0 -10 -9 -10 -21z"/>
<path d="M3100 520 c0 -11 5 -20 10 -20 6 0 10 9 10 20 0 11 -4 20 -10 20 -5
0 -10 -9 -10 -20z"/>
<path d="M3160 520 c0 -11 5 -20 10 -20 6 0 10 9 10 20 0 11 -4 20 -10 20 -5
0 -10 -9 -10 -20z"/>
<path d="M2671 754 c0 -11 3 -14 6 -6 3 7 2 16 -1 19 -3 4 -6 -2 -5 -13z"/>
<path d="M2671 714 c0 -11 3 -14 6 -6 3 7 2 16 -1 19 -3 4 -6 -2 -5 -13z"/>
<path d="M2670 545 c0 -19 2 -35 4 -35 2 0 6 16 8 35 2 19 0 35 -4 35 -4 0 -8
-16 -8 -35z"/>
<path d="M2704 558 c3 -13 6 -29 6 -35 0 -7 6 -13 14 -13 12 0 12 6 3 35 -11
38 -33 50 -23 13z"/>
<path d="M2851 575 c1 -19 18 -51 18 -35 0 8 -4 22 -9 30 -5 8 -9 11 -9 5z"/>
<path d="M4625 550 c-3 -5 -1 -10 4 -10 6 0 11 5 11 10 0 6 -2 10 -4 10 -3 0
-8 -4 -11 -10z"/>
<path d="M4592 392 c-18 -26 -32 -40 -31 -32 4 38 -2 50 -25 50 -13 0 -27 -7
-30 -16 -5 -14 -11 -12 -41 10 -33 26 -35 26 -35 7 0 -17 -6 -21 -35 -21 l-35
0 20 -20 c11 -11 20 -24 20 -29 0 -5 3 -16 6 -24 4 -12 -7 -17 -48 -22 -29 -4
-56 -13 -60 -19 -5 -7 -8 -5 -8 7 0 10 -8 17 -20 17 -19 0 -20 -7 -20 -105 0
-98 1 -105 20 -105 16 0 20 -7 20 -35 l0 -35 533 0 c294 0 568 3 609 6 l74 7
2 131 c1 88 -2 126 -8 116 -6 -8 -7 -35 -4 -60 4 -33 3 -41 -5 -30 -6 8 -11
23 -11 33 0 16 -9 17 -97 11 -62 -4 -101 -11 -107 -19 -7 -10 -17 -10 -39 -2
-25 8 -32 7 -42 -6 -16 -22 -21 -21 -29 6 -6 21 -7 21 -20 4 -13 -17 -16 -17
-52 2 -21 12 -51 21 -67 21 -15 0 -30 7 -33 15 -4 8 -17 15 -30 15 -38 0 -74
28 -74 59 0 17 -8 29 -23 37 -39 18 -49 7 -32 -33 17 -40 15 -46 -8 -38 -8 4
-18 22 -21 41 -4 19 -11 34 -16 34 -6 0 -10 9 -10 20 0 16 -7 20 -35 20 -24 0
-35 5 -35 15 0 11 -11 15 -42 15 -40 -1 -46 -4 -76 -48z m-202 -142 c0 -5 -7
-10 -15 -10 -8 0 -15 5 -15 10 0 6 7 10 15 10 8 0 15 -4 15 -10z m-80 -29 c0
-6 -4 -13 -10 -16 -5 -3 -10 1 -10 9 0 9 5 16 10 16 6 0 10 -4 10 -9z m1130 5
c0 -3 -4 -8 -10 -11 -5 -3 -10 -1 -10 4 0 6 5 11 10 11 6 0 10 -2 10 -4z"/>
<path d="M5345 360 c3 -5 8 -10 11 -10 2 0 4 5 4 10 0 6 -5 10 -11 10 -5 0 -7
-4 -4 -10z"/>
<path d="M5496 355 c4 -8 8 -15 10 -15 2 0 4 7 4 15 0 8 -4 15 -10 15 -5 0 -7
-7 -4 -15z"/>
<path d="M2960 260 c0 -5 5 -10 10 -10 6 0 10 5 10 10 0 6 -4 10 -10 10 -5 0
-10 -4 -10 -10z"/>
<path d="M3940 170 c0 -5 4 -10 9 -10 6 0 13 5 16 10 3 6 -1 10 -9 10 -9 0
-16 -4 -16 -10z"/>
<path d="M4181 163 c-13 -14 -12 -18 4 -29 28 -21 35 -17 35 16 0 33 -17 39
-39 13z"/>
<path d="M3136 163 c-3 -3 -3 -10 0 -14 7 -12 34 -11 34 0 0 11 -26 22 -34 14z"/>
<path d="M4010 115 c0 -16 -6 -25 -15 -25 -18 0 -20 -16 -3 -26 6 -4 14 -2 16
4 2 7 19 12 38 12 45 0 44 21 -1 43 l-35 17 0 -25z"/>
<path d="M4125 114 c-10 -8 -13 -14 -7 -14 17 0 15 -39 -2 -46 -8 -3 -36 -9
-62 -14 -36 -5 -41 -8 -19 -9 17 -1 39 -4 51 -7 13 -3 28 1 37 11 9 9 21 14
26 11 15 -9 20 33 7 58 -11 21 -14 22 -31 10z"/>
<path d="M4200 61 c-14 -27 -13 -41 5 -41 10 0 15 10 15 30 0 35 -5 38 -20 11z"/>
<path d="M3590 43 c0 -13 5 -23 10 -23 13 0 13 11 0 30 -8 12 -10 11 -10 -7z"/>
<path d="M3750 36 c0 -9 7 -16 16 -16 9 0 14 5 12 12 -6 18 -28 21 -28 4z"/>
<path d="M3800 35 c0 -10 11 -15 35 -15 24 0 35 5 35 15 0 10 -11 15 -35 15
-24 0 -35 -5 -35 -15z"/>
<path d="M3940 36 c0 -9 7 -16 16 -16 9 0 14 5 12 12 -6 18 -28 21 -28 4z"/>
</g>
</svg>
