<svg width="65" height="52" viewBox="0 0 65 52" fill="none" xmlns="http://www.w3.org/2000/svg">
<path d="M32.5 51.3362C50.4493 51.3362 65 49.8356 65 47.9845C65 46.1334 50.4493 44.6328 32.5 44.6328C14.5507 44.6328 0 46.1334 0 47.9845C0 49.8356 14.5507 51.3362 32.5 51.3362Z" fill="#EEF2F5"/>
<path d="M44.4922 6.30469H46.7244C46.9903 6.30469 47.2536 6.35706 47.4992 6.4588C47.7448 6.56055 47.968 6.70968 48.156 6.89769C48.344 7.08569 48.4932 7.30888 48.5949 7.55452C48.6967 7.80016 48.749 8.06343 48.749 8.32931C48.749 8.59519 48.6967 8.85846 48.5949 9.1041C48.4932 9.34974 48.344 9.57293 48.156 9.76094C47.968 9.94894 47.7448 10.0981 47.4992 10.1998C47.2536 10.3016 46.9903 10.3539 46.7244 10.3539H44.4922V6.30469Z" fill="black"/>
<path d="M44.4856 10.3461C45.6037 10.3461 46.5102 9.43967 46.5102 8.3215C46.5102 7.20333 45.6037 6.29688 44.4856 6.29688C43.3674 6.29688 42.4609 7.20333 42.4609 8.3215C42.4609 9.43967 43.3674 10.3461 44.4856 10.3461Z" fill="black"/>
<path d="M11.2422 3.57813H42.4799C43.7382 3.57812 44.945 4.078 45.8348 4.96778C46.7246 5.85756 47.2245 7.06437 47.2245 8.32271C47.2245 8.94578 47.1017 9.56274 46.8633 10.1384C46.6249 10.714 46.2754 11.2371 45.8348 11.6776C45.3942 12.1182 44.8712 12.4677 44.2955 12.7061C43.7199 12.9446 43.1029 13.0673 42.4799 13.0673H11.2422V3.58036V3.57813Z" fill="#FFE400"/>
<path d="M15.2233 8.32031C15.2233 10.9409 14.5001 13.066 11.875 13.066H24.967V8.32031H15.2233Z" fill="#9E6101"/>
<path d="M11.8795 3.57815C11.1907 3.57687 10.51 3.72553 9.88444 4.0138C9.25892 4.30207 8.70365 4.72303 8.25717 5.24747C7.8107 5.7719 7.48372 6.38723 7.29895 7.05073C7.11419 7.71423 7.07606 8.41 7.18721 9.08971C7.29836 9.76943 7.55613 10.4168 7.94262 10.9869C8.32911 11.557 8.83506 12.0361 9.42533 12.391C10.0156 12.7459 10.676 12.9681 11.3608 13.0421C12.0456 13.1161 12.7382 13.0401 13.3907 12.8195L10.6696 10.1029L13.5324 7.2401L16.1999 10.5427L16.3115 10.0159C16.5885 9.29748 16.6861 8.52239 16.5959 7.75776C16.5056 6.99314 16.2303 6.26206 15.7937 5.62789C15.3571 4.99371 14.7724 4.47559 14.0904 4.11841C13.4083 3.76123 12.6494 3.57579 11.8795 3.57815Z" fill="#FFB321"/>
<path d="M15.6006 9.30922L13.5347 7.24219L10.6719 10.105L13.393 12.8216C14.3586 12.4974 15.1944 11.8714 15.777 11.0358C15.9547 10.7731 16.0344 10.4561 16.0022 10.1405C15.97 9.8249 15.8278 9.53066 15.6006 9.30922Z" fill="#FFB321"/>
<path d="M16.6228 7.98438H15.9844V42.8282H16.6228V7.98438Z" fill="#FFB321"/>
<path d="M47.2232 42.8282H16.625V7.98438L47.2232 8.18527V42.8282Z" fill="#FFE400"/>
<path d="M42.8925 25.0625H20.9565C20.4412 25.0625 20.0234 25.4802 20.0234 25.9956C20.0234 26.5109 20.4412 26.9286 20.9565 26.9286H42.8925C43.4078 26.9286 43.8256 26.5109 43.8256 25.9956C43.8256 25.4802 43.4078 25.0625 42.8925 25.0625Z" fill="#FFB321"/>
<path d="M34.2248 29.2812H20.9565C20.4412 29.2812 20.0234 29.699 20.0234 30.2143C20.0234 30.7296 20.4412 31.1474 20.9565 31.1474H34.2248C34.7401 31.1474 35.1579 30.7296 35.1579 30.2143C35.1579 29.699 34.7401 29.2812 34.2248 29.2812Z" fill="#FFB321"/>
<path d="M42.8908 29.2812H38.5424C38.0271 29.2812 37.6094 29.699 37.6094 30.2143C37.6094 30.7296 38.0271 31.1474 38.5424 31.1474H42.8908C43.4061 31.1474 43.8239 30.7296 43.8239 30.2143C43.8239 29.699 43.4061 29.2812 42.8908 29.2812Z" fill="#FFB321"/>
<path d="M26.3674 33.5078H20.9565C20.4412 33.5078 20.0234 33.9256 20.0234 34.4409C20.0234 34.9562 20.4412 35.3739 20.9565 35.3739H26.3674C26.8827 35.3739 27.3005 34.9562 27.3005 34.4409C27.3005 33.9256 26.8827 33.5078 26.3674 33.5078Z" fill="#FFB321"/>
<path d="M42.8978 33.5078H30.2612C29.7459 33.5078 29.3281 33.9256 29.3281 34.4409C29.3281 34.9562 29.7459 35.3739 30.2612 35.3739H42.8978C43.4131 35.3739 43.8309 34.9562 43.8309 34.4409C43.8309 33.9256 43.4131 33.5078 42.8978 33.5078Z" fill="#FFB321"/>
<path d="M37.7089 13.7297L36.3149 14.6226C36.2301 14.5031 36.1564 14.3882 36.0716 14.281C35.9291 14.1014 35.7354 13.9692 35.5163 13.9018C35.2971 13.8345 35.0626 13.8352 34.8438 13.9038C34.1742 14.0991 34.1742 14.8848 34.509 15.1929C34.6324 15.3096 34.7719 15.408 34.9231 15.4853C35.2579 15.6494 35.5928 15.7934 35.9343 15.944C36.4317 16.1488 36.9003 16.4174 37.3283 16.7432C37.6072 16.9606 37.8333 17.2383 37.9897 17.5554C38.1461 17.8726 38.2287 18.2211 38.2312 18.5747C38.2659 19.0561 38.1625 19.5374 37.9332 19.962C37.6437 20.4702 37.1704 20.8481 36.6106 21.0179C35.4421 21.3962 34.3003 21.3326 33.2143 20.7288C32.7036 20.439 32.2877 20.0075 32.0167 19.4866C32.0033 19.4631 31.9933 19.4375 31.9766 19.4017L33.4387 18.5557L33.5023 18.6495C33.6879 18.9622 33.9488 19.2235 34.2612 19.4096C34.4936 19.5402 34.751 19.6202 35.0164 19.6442C35.2819 19.6683 35.5494 19.6358 35.8015 19.5491C36.1028 19.452 36.335 19.2645 36.4075 18.9386C36.4453 18.8043 36.4455 18.6622 36.4081 18.5277C36.3707 18.3933 36.2972 18.2717 36.1955 18.1763C36.0699 18.0574 35.9278 17.9574 35.7736 17.8794C35.3785 17.6863 34.9744 17.5133 34.5726 17.3347C34.1108 17.1461 33.682 16.885 33.3025 16.5612C33.0665 16.3489 32.8758 16.0913 32.7415 15.8036C32.6073 15.516 32.5324 15.2043 32.5212 14.8871C32.4798 14.4154 32.5768 13.9418 32.8002 13.5243C33.0602 13.0466 33.4875 12.6817 34.0001 12.4997C34.7863 12.1987 35.6577 12.2091 36.4365 12.5287C37.0124 12.7531 37.4031 13.1917 37.7089 13.7297Z" fill="#FFB321"/>
<path d="M25.625 19.5929L27.0849 18.71L27.1663 18.8451C27.274 19.0498 27.4142 19.2357 27.5815 19.3953C27.7529 19.527 27.9576 19.608 28.1726 19.6293C28.3876 19.6506 28.6043 19.6113 28.7981 19.5159C29.0369 19.3808 29.1329 19.1543 29.1698 18.8998C29.1927 18.7438 29.2038 18.5864 29.2032 18.4288C29.2032 16.4667 29.2032 14.5049 29.2032 12.5435V12.3984H31.0002C31.0002 12.4319 31.0002 12.4665 31.0002 12.5022V18.469C31.0183 18.9666 30.926 19.4621 30.7301 19.9199C30.4165 20.5896 29.8774 20.9891 29.1675 21.1476C28.4369 21.3333 27.6654 21.2721 26.9733 20.9735C26.3797 20.7035 25.9039 20.2278 25.6339 19.6342C25.6303 19.6206 25.6273 19.6068 25.625 19.5929Z" fill="#FFB321"/>
<path d="M53.5234 40.8047H55.7557C56.2926 40.8047 56.8076 41.018 57.1873 41.3977C57.567 41.7774 57.7803 42.2923 57.7803 42.8293C57.7803 43.3663 57.567 43.8812 57.1873 44.2609C56.8076 44.6406 56.2926 44.8539 55.7557 44.8539H53.5234V40.8047Z" fill="black"/>
<path d="M53.5246 44.8539C54.6428 44.8539 55.5492 43.9475 55.5492 42.8293C55.5492 41.7111 54.6428 40.8047 53.5246 40.8047C52.4065 40.8047 51.5 41.7111 51.5 42.8293C51.5 43.9475 52.4065 44.8539 53.5246 44.8539Z" fill="black"/>
<path d="M20.7344 38.0781H51.9721C53.2304 38.0781 54.4372 38.578 55.327 39.4678C56.2168 40.3576 56.7166 41.5644 56.7166 42.8227C56.7166 44.081 56.2168 45.2879 55.327 46.1776C54.4372 47.0674 53.2304 47.5673 51.9721 47.5673H20.7344V38.0804V38.0781Z" fill="#9E6101"/>
<path d="M20.7368 47.5673C23.3571 47.5673 25.4814 45.4431 25.4814 42.8227C25.4814 40.2023 23.3571 38.0781 20.7368 38.0781C18.1164 38.0781 15.9922 40.2023 15.9922 42.8227C15.9922 45.4431 18.1164 47.5673 20.7368 47.5673Z" fill="#FFB321"/>
<path opacity="0.2" d="M25.1855 44.5113L22.4086 41.7344L19.5469 44.5972L22.2635 47.3149C22.9269 47.0914 23.5327 46.7243 24.0378 46.2396C24.5429 45.755 24.9348 45.1648 25.1855 44.5113Z" fill="black"/>
<path d="M18.9844 41H20.9934C21.233 41 21.4703 41.0472 21.6917 41.1389C21.9131 41.2306 22.1143 41.365 22.2837 41.5345C22.4532 41.7039 22.5876 41.9051 22.6793 42.1265C22.771 42.3479 22.8182 42.5852 22.8182 42.8248C22.8182 43.3088 22.626 43.773 22.2837 44.1152C21.9415 44.4574 21.4774 44.6497 20.9934 44.6497H18.9844V41Z" fill="black"/>
<path d="M18.9889 44.6497C19.9967 44.6497 20.8137 43.8327 20.8137 42.8248C20.8137 41.817 19.9967 41 18.9889 41C17.9811 41 17.1641 41.817 17.1641 42.8248C17.1641 43.8327 17.9811 44.6497 18.9889 44.6497Z" fill="#383838"/>
<path d="M47.4986 30.7898L48.1236 32.4439C48.1387 32.4827 48.1616 32.5179 48.191 32.5473C48.2204 32.5767 48.2556 32.5996 48.2944 32.6147L49.9485 33.2397C50.0039 33.261 50.0515 33.2985 50.0851 33.3475C50.1187 33.3964 50.1367 33.4543 50.1367 33.5137C50.1367 33.573 50.1187 33.631 50.0851 33.6799C50.0515 33.7288 50.0039 33.7664 49.9485 33.7877L48.2944 34.4138C48.2556 34.4285 48.2203 34.4512 48.1909 34.4804C48.1615 34.5096 48.1386 34.5448 48.1236 34.5835L47.4986 36.2375C47.4773 36.2929 47.4398 36.3406 47.3908 36.3742C47.3419 36.4078 47.284 36.4258 47.2246 36.4258C47.1653 36.4258 47.1073 36.4078 47.0584 36.3742C47.0095 36.3406 46.9719 36.2929 46.9506 36.2375L46.3245 34.5835C46.31 34.5447 46.2873 34.5095 46.2581 34.4802C46.2288 34.4509 46.1936 34.4283 46.1548 34.4138L44.5008 33.7877C44.4454 33.7664 44.3977 33.7288 44.3641 33.6799C44.3305 33.631 44.3125 33.573 44.3125 33.5137C44.3125 33.4543 44.3305 33.3964 44.3641 33.3475C44.3977 33.2985 44.4454 33.261 44.5008 33.2397L46.1548 32.6147C46.1935 32.5997 46.2286 32.5768 46.2579 32.5474C46.2871 32.518 46.3098 32.4827 46.3245 32.4439L46.9506 30.7898C46.9719 30.7344 47.0095 30.6868 47.0584 30.6532C47.1073 30.6196 47.1653 30.6016 47.2246 30.6016C47.284 30.6016 47.3419 30.6196 47.3908 30.6532C47.4398 30.6868 47.4773 30.7344 47.4986 30.7898Z" fill="#FF4585"/>
<path d="M23.922 0.85661L24.5481 2.50957C24.5631 2.54765 24.586 2.58214 24.6152 2.6108C24.6444 2.63945 24.6794 2.66162 24.7177 2.67587L26.3718 3.30089C26.4276 3.32198 26.4756 3.35954 26.5095 3.40859C26.5434 3.45763 26.5615 3.51584 26.5615 3.57545C26.5615 3.63507 26.5434 3.69327 26.5095 3.74232C26.4756 3.79137 26.4276 3.82893 26.3718 3.85002L24.7177 4.47504C24.6789 4.48977 24.6437 4.51263 24.6145 4.54208C24.5852 4.57153 24.5626 4.60689 24.5481 4.6458L23.922 6.30323C23.9011 6.3591 23.8637 6.40726 23.8148 6.44128C23.7658 6.47529 23.7076 6.49351 23.648 6.49351C23.5883 6.49351 23.5301 6.47529 23.4812 6.44128C23.4322 6.40726 23.3948 6.3591 23.374 6.30323L22.7489 4.65027C22.7343 4.61128 22.7114 4.57588 22.682 4.54643C22.6525 4.51698 22.6171 4.49416 22.5782 4.4795L20.9241 3.85448C20.8683 3.8334 20.8203 3.79583 20.7864 3.74678C20.7525 3.69774 20.7344 3.63953 20.7344 3.57992C20.7344 3.5203 20.7525 3.4621 20.7864 3.41305C20.8203 3.36401 20.8683 3.32644 20.9241 3.30535L22.5782 2.67587C22.6171 2.66121 22.6525 2.63839 22.682 2.60894C22.7114 2.57949 22.7343 2.54409 22.7489 2.5051L23.374 0.852146C23.3952 0.796441 23.433 0.748572 23.4823 0.714957C23.5315 0.681341 23.5899 0.663586 23.6495 0.664072C23.7091 0.664558 23.7672 0.683261 23.8159 0.717675C23.8646 0.752088 23.9016 0.800566 23.922 0.85661Z" fill="#FF4585"/>
<path d="M53.797 13.2606L54.422 14.9136C54.4368 14.9524 54.4597 14.9877 54.4891 15.0172C54.5186 15.0466 54.5539 15.0695 54.5927 15.0843L56.2468 15.7093C56.3026 15.7304 56.3506 15.768 56.3845 15.817C56.4184 15.8661 56.4365 15.9243 56.4365 15.9839C56.4365 16.0435 56.4184 16.1017 56.3845 16.1508C56.3506 16.1998 56.3026 16.2374 56.2468 16.2585L54.5927 16.8835C54.5539 16.8983 54.5186 16.9212 54.4891 16.9507C54.4597 16.9801 54.4368 17.0154 54.422 17.0543L53.797 18.7072C53.7761 18.7631 53.7387 18.8113 53.6898 18.8453C53.6408 18.8793 53.5826 18.8975 53.523 18.8975C53.4633 18.8975 53.4051 18.8793 53.3562 18.8453C53.3072 18.8113 53.2698 18.7631 53.2489 18.7072L52.6228 17.0543C52.6083 17.0153 52.5857 16.98 52.5565 16.9505C52.5272 16.9211 52.492 16.8982 52.4532 16.8835L50.7991 16.2585C50.7433 16.2374 50.6953 16.1998 50.6614 16.1508C50.6275 16.1017 50.6094 16.0435 50.6094 15.9839C50.6094 15.9243 50.6275 15.8661 50.6614 15.817C50.6953 15.768 50.7433 15.7304 50.7991 15.7093L52.4532 15.0843C52.492 15.0696 52.5272 15.0467 52.5565 15.0173C52.5857 14.9878 52.6083 14.9525 52.6228 14.9136L53.2489 13.2606C53.2698 13.2047 53.3072 13.1566 53.3562 13.1226C53.4051 13.0885 53.4633 13.0703 53.523 13.0703C53.5826 13.0703 53.6408 13.0885 53.6898 13.1226C53.7387 13.1566 53.7761 13.2047 53.797 13.2606Z" fill="#FF4585"/>
<path d="M13.7657 23.2668L14.3907 24.9197C14.4054 24.9587 14.4282 24.9941 14.4577 25.0235C14.4871 25.053 14.5225 25.0758 14.5615 25.0905L16.2145 25.7155C16.2702 25.7366 16.3182 25.7741 16.3521 25.8232C16.386 25.8722 16.4042 25.9304 16.4042 25.9901C16.4042 26.0497 16.386 26.1079 16.3521 26.1569C16.3182 26.206 16.2702 26.2435 16.2145 26.2646L14.5615 26.893C14.5225 26.9077 14.4871 26.9305 14.4577 26.9599C14.4282 26.9894 14.4054 27.0248 14.3907 27.0638L13.7657 28.7167C13.7449 28.7726 13.7075 28.8208 13.6585 28.8548C13.6095 28.8888 13.5513 28.907 13.4917 28.907C13.4321 28.907 13.3739 28.8888 13.3249 28.8548C13.2759 28.8208 13.2385 28.7726 13.2177 28.7167L12.5916 27.0638C12.577 27.0247 12.5543 26.9892 12.5248 26.9598C12.4953 26.9303 12.4599 26.9075 12.4208 26.893L10.7678 26.268C10.7121 26.2469 10.6641 26.2093 10.6302 26.1603C10.5963 26.1112 10.5781 26.053 10.5781 25.9934C10.5781 25.9338 10.5963 25.8756 10.6302 25.8265C10.6641 25.7775 10.7121 25.7399 10.7678 25.7188L12.4208 25.0938C12.4599 25.0793 12.4953 25.0565 12.5248 25.0271C12.5543 24.9976 12.577 24.9621 12.5916 24.9231L13.2177 23.2701C13.2382 23.2141 13.2753 23.1657 13.3241 23.1314C13.3728 23.0971 13.4309 23.0785 13.4905 23.0781C13.5502 23.0778 13.6085 23.0956 13.6577 23.1294C13.7068 23.1631 13.7445 23.211 13.7657 23.2668Z" fill="#FF4585"/>
<path opacity="0.2" d="M15.5962 9.30364L13.5347 7.24219L10.6719 10.105L13.393 12.8216C14.223 12.5435 14.96 12.0414 15.5225 11.3707L15.6843 11.1754C15.9065 10.9089 16.0207 10.5689 16.0044 10.2223C15.9881 9.87582 15.8424 9.54801 15.5962 9.30364Z" fill="black"/>
<path d="M10.2266 6.70313H12.2356C12.4753 6.70283 12.7127 6.74978 12.9343 6.84129C13.1559 6.93279 13.3573 7.06706 13.527 7.23642C13.6966 7.40579 13.8313 7.60692 13.9232 7.82834C14.0151 8.04976 14.0625 8.28711 14.0626 8.52685C14.0626 9.01083 13.8704 9.47498 13.5281 9.81721C13.1859 10.1594 12.7218 10.3517 12.2378 10.3517H10.2288V6.70313H10.2266Z" fill="black"/>
<path d="M10.2233 10.345C11.2311 10.345 12.0481 9.52798 12.0481 8.52015C12.0481 7.51232 11.2311 6.69531 10.2233 6.69531C9.21545 6.69531 8.39844 7.51232 8.39844 8.52015C8.39844 9.52798 9.21545 10.345 10.2233 10.345Z" fill="#383838"/>
</svg>
