<svg width="1609" height="372" viewBox="0 0 1609 372" fill="none" xmlns="http://www.w3.org/2000/svg">
<path d="M10.8268 224V56.02H83.6619C96.4573 56.02 107.202 57.7425 115.896 61.1874C124.645 64.6323 131.234 69.4989 135.664 75.7872C140.147 82.0755 142.389 89.4848 142.389 98.015C142.389 104.194 141.022 109.826 138.288 114.911C135.609 119.997 131.836 124.262 126.969 127.707C122.103 131.097 116.416 133.448 109.909 134.761V136.401C117.127 136.674 123.688 138.506 129.594 141.896C135.499 145.232 140.202 149.853 143.702 155.758C147.201 161.609 148.951 168.499 148.951 176.428C148.951 185.614 146.545 193.789 141.733 200.952C136.976 208.115 130.195 213.747 121.392 217.848C112.588 221.949 102.089 224 89.8955 224H10.8268ZM56.4308 187.582H77.7564C85.4117 187.582 91.1532 186.161 94.9809 183.317C98.8085 180.419 100.722 176.154 100.722 170.522C100.722 166.585 99.8201 163.249 98.0157 160.515C96.2112 157.781 93.6412 155.703 90.3057 154.282C87.0248 152.86 83.0604 152.149 78.4125 152.149H56.4308V187.582ZM56.4308 123.934H75.1317C79.1234 123.934 82.6503 123.305 85.7124 122.047C88.7746 120.79 91.1532 118.985 92.8483 116.634C94.5981 114.228 95.473 111.302 95.473 107.858C95.473 102.663 93.6139 98.6985 89.8955 95.9645C86.1772 93.1757 81.4747 91.7814 75.7878 91.7814H56.4308V123.934ZM165.765 224V98.015H211.041V224H165.765ZM188.403 84.8916C182.279 84.8916 177.03 82.8684 172.655 78.822C168.281 74.7756 166.094 69.909 166.094 64.2222C166.094 58.5353 168.281 53.6687 172.655 49.6223C177.03 45.5759 182.279 43.5527 188.403 43.5527C194.582 43.5527 199.832 45.5759 204.151 49.6223C208.526 53.6687 210.713 58.5353 210.713 64.2222C210.713 69.909 208.526 74.7756 204.151 78.822C199.832 82.8684 194.582 84.8916 188.403 84.8916ZM233.454 224V56.02H278.729V119.997H279.386C281.026 115.732 283.432 111.822 286.604 108.268C289.775 104.659 293.712 101.788 298.415 99.6554C303.117 97.4682 308.585 96.3746 314.819 96.3746C323.13 96.3746 331.032 98.5892 338.523 103.018C346.069 107.447 352.193 114.419 356.896 123.934C361.653 133.448 364.032 145.806 364.032 161.008C364.032 175.553 361.763 187.61 357.224 197.179C352.74 206.748 346.725 213.884 339.179 218.587C331.688 223.289 323.459 225.64 314.491 225.64C308.585 225.64 303.309 224.684 298.661 222.77C294.068 220.801 290.13 218.149 286.85 214.814C283.623 211.423 281.135 207.596 279.386 203.331H278.401V224H233.454ZM277.745 161.008C277.745 167.132 278.538 172.436 280.124 176.92C281.764 181.349 284.061 184.794 287.014 187.254C290.021 189.66 293.603 190.863 297.758 190.863C301.914 190.863 305.441 189.688 308.339 187.336C311.292 184.93 313.534 181.513 315.065 177.084C316.651 172.6 317.444 167.241 317.444 161.008C317.444 154.774 316.651 149.442 315.065 145.013C313.534 140.529 311.292 137.112 308.339 134.761C305.441 132.355 301.914 131.152 297.758 131.152C293.603 131.152 290.021 132.355 287.014 134.761C284.061 137.112 281.764 140.529 280.124 145.013C278.538 149.442 277.745 154.774 277.745 161.008ZM428.255 56.02V224H382.979V56.02H428.255ZM451.323 224V98.015H496.599V224H451.323ZM473.961 84.8916C467.837 84.8916 462.588 82.8684 458.213 78.822C453.839 74.7756 451.651 69.909 451.651 64.2222C451.651 58.5353 453.839 53.6687 458.213 49.6223C462.588 45.5759 467.837 43.5527 473.961 43.5527C480.14 43.5527 485.389 45.5759 489.709 49.6223C494.084 53.6687 496.271 58.5353 496.271 64.2222C496.271 69.909 494.084 74.7756 489.709 78.822C485.389 82.8684 480.14 84.8916 473.961 84.8916ZM580.364 226.297C566.693 226.297 554.992 223.59 545.258 218.176C535.525 212.708 528.061 205.108 522.866 195.375C517.672 185.587 515.074 174.24 515.074 161.336C515.074 148.431 517.672 137.112 522.866 127.379C528.061 117.591 535.525 109.99 545.258 104.577C554.992 99.1086 566.693 96.3746 580.364 96.3746C594.034 96.3746 605.735 99.1086 615.469 104.577C625.202 109.99 632.666 117.591 637.861 127.379C643.055 137.112 645.653 148.431 645.653 161.336C645.653 174.24 643.055 185.587 637.861 195.375C632.666 205.108 625.202 212.708 615.469 218.176C605.735 223.59 594.034 226.297 580.364 226.297ZM580.692 192.832C584.519 192.832 587.827 191.547 590.616 188.977C593.405 186.407 595.565 182.743 597.096 177.986C598.627 173.229 599.392 167.569 599.392 161.008C599.392 154.391 598.627 148.732 597.096 144.029C595.565 139.272 593.405 135.608 590.616 133.038C587.827 130.468 584.519 129.183 580.692 129.183C576.645 129.183 573.173 130.468 570.275 133.038C567.377 135.608 565.162 139.272 563.631 144.029C562.1 148.732 561.335 154.391 561.335 161.008C561.335 167.569 562.1 173.229 563.631 177.986C565.162 182.743 567.377 186.407 570.275 188.977C573.173 191.547 576.645 192.832 580.692 192.832ZM739.157 98.015V130.824H656.151V98.015H739.157ZM672.228 67.8311H717.503V183.481C717.503 185.231 717.804 186.708 718.406 187.911C719.007 189.059 719.937 189.934 721.194 190.535C722.452 191.082 724.065 191.355 726.034 191.355C727.401 191.355 728.986 191.191 730.791 190.863C732.65 190.535 734.017 190.262 734.892 190.043L741.454 221.867C739.431 222.469 736.532 223.207 732.759 224.082C729.041 224.957 724.612 225.531 719.472 225.804C709.083 226.351 700.361 225.285 693.307 222.606C686.253 219.872 680.949 215.579 677.395 209.728C673.841 203.877 672.118 196.55 672.228 187.747V67.8311ZM816.647 226.297C803.195 226.297 791.603 223.727 781.87 218.587C772.191 213.392 764.727 205.955 759.478 196.277C754.283 186.544 751.686 174.896 751.686 161.336C751.686 148.322 754.311 136.948 759.56 127.215C764.809 117.481 772.219 109.908 781.788 104.495C791.357 99.0813 802.649 96.3746 815.663 96.3746C825.177 96.3746 833.789 97.851 841.499 100.804C849.209 103.757 855.798 108.049 861.267 113.681C866.735 119.259 870.945 126.039 873.898 134.022C876.851 142.006 878.327 151.001 878.327 161.008V171.506H765.794V146.572H836.66C836.605 142.963 835.676 139.791 833.871 137.057C832.122 134.268 829.743 132.109 826.736 130.578C823.783 128.992 820.42 128.199 816.647 128.199C812.983 128.199 809.62 128.992 806.558 130.578C803.496 132.109 801.035 134.241 799.176 136.975C797.372 139.709 796.415 142.908 796.306 146.572V173.475C796.306 177.521 797.153 181.13 798.848 184.302C800.543 187.473 802.977 189.961 806.148 191.766C809.32 193.57 813.147 194.472 817.631 194.472C820.748 194.472 823.591 194.035 826.161 193.16C828.786 192.285 831.028 191.027 832.887 189.387C834.746 187.692 836.113 185.669 836.988 183.317H878.327C876.905 192.066 873.542 199.667 868.238 206.119C862.934 212.517 855.908 217.493 847.159 221.047C838.465 224.547 828.294 226.297 816.647 226.297ZM957.498 226.297C943.828 226.297 932.126 223.59 922.393 218.176C912.66 212.708 905.196 205.108 900.001 195.375C894.806 185.587 892.209 174.24 892.209 161.336C892.209 148.431 894.806 137.112 900.001 127.379C905.196 117.591 912.66 109.99 922.393 104.577C932.126 99.1086 943.828 96.3746 957.498 96.3746C969.856 96.3746 980.546 98.6165 989.569 103.1C998.646 107.529 1005.67 113.818 1010.65 121.965C1015.62 130.058 1018.14 139.573 1018.19 150.509H976.199C975.598 143.892 973.684 138.862 970.458 135.417C967.286 131.917 963.185 130.167 958.154 130.167C954.217 130.167 950.772 131.316 947.82 133.612C944.867 135.854 942.57 139.272 940.93 143.865C939.289 148.404 938.469 154.118 938.469 161.008C938.469 167.897 939.289 173.639 940.93 178.232C942.57 182.771 944.867 186.188 947.82 188.485C950.772 190.727 954.217 191.848 958.154 191.848C961.49 191.848 964.443 191.082 967.013 189.551C969.583 187.965 971.661 185.669 973.246 182.661C974.887 179.599 975.871 175.881 976.199 171.506H1018.19C1018.03 182.606 1015.49 192.285 1010.57 200.542C1005.64 208.744 998.673 215.087 989.651 219.571C980.683 224.055 969.966 226.297 957.498 226.297ZM1071.98 225.969C1063.94 225.969 1056.83 224.656 1050.65 222.031C1044.53 219.352 1039.72 215.306 1036.22 209.892C1032.72 204.479 1030.97 197.589 1030.97 189.223C1030.97 182.333 1032.14 176.455 1034.5 171.588C1036.85 166.667 1040.13 162.648 1044.34 159.531C1048.55 156.414 1053.44 154.036 1059.02 152.395C1064.65 150.755 1070.72 149.689 1077.23 149.196C1084.28 148.65 1089.94 147.993 1094.21 147.228C1098.53 146.408 1101.64 145.287 1103.56 143.865C1105.47 142.389 1106.43 140.447 1106.43 138.041V137.713C1106.43 134.433 1105.17 131.917 1102.66 130.167C1100.14 128.418 1096.91 127.543 1092.98 127.543C1088.66 127.543 1085.13 128.5 1082.4 130.413C1079.72 132.273 1078.1 135.143 1077.56 139.026H1035.89C1036.44 131.37 1038.87 124.317 1043.19 117.864C1047.56 111.357 1053.94 106.162 1062.3 102.28C1070.67 98.3431 1081.11 96.3746 1093.63 96.3746C1102.66 96.3746 1110.75 97.4409 1117.91 99.5734C1125.08 101.651 1131.17 104.577 1136.2 108.35C1141.23 112.068 1145.06 116.442 1147.69 121.473C1150.36 126.449 1151.7 131.863 1151.7 137.713V224H1109.38V206.283H1108.4C1105.88 210.986 1102.82 214.786 1099.21 217.684C1095.66 220.582 1091.58 222.688 1086.99 224C1082.45 225.312 1077.45 225.969 1071.98 225.969ZM1086.74 197.425C1090.19 197.425 1093.41 196.714 1096.42 195.292C1099.48 193.871 1101.97 191.82 1103.89 189.141C1105.8 186.462 1106.76 183.208 1106.76 179.38V168.882C1105.55 169.374 1104.27 169.838 1102.9 170.276C1101.59 170.713 1100.17 171.123 1098.64 171.506C1097.16 171.889 1095.57 172.244 1093.88 172.573C1092.24 172.901 1090.52 173.201 1088.71 173.475C1085.21 174.022 1082.34 174.924 1080.1 176.181C1077.91 177.384 1076.27 178.888 1075.18 180.693C1074.14 182.442 1073.62 184.411 1073.62 186.598C1073.62 190.098 1074.85 192.777 1077.31 194.636C1079.77 196.495 1082.92 197.425 1086.74 197.425ZM1237.31 224H1172.68V56.02H1236.66C1253.94 56.02 1268.87 59.3829 1281.44 66.1087C1294.07 72.7797 1303.81 82.4036 1310.64 94.9802C1317.53 107.502 1320.98 122.512 1320.98 140.01C1320.98 157.508 1317.56 172.545 1310.72 185.122C1303.89 197.644 1294.21 207.268 1281.69 213.993C1269.17 220.664 1254.37 224 1237.31 224ZM1218.29 185.286H1235.67C1243.99 185.286 1251.07 183.946 1256.92 181.267C1262.82 178.587 1267.31 173.967 1270.37 167.405C1273.49 160.843 1275.04 151.712 1275.04 140.01C1275.04 128.308 1273.46 119.177 1270.29 112.615C1267.17 106.053 1262.58 101.433 1256.51 98.7532C1250.49 96.0738 1243.11 94.7341 1234.36 94.7341H1218.29V185.286ZM1403.1 226.297C1389.65 226.297 1378.06 223.727 1368.32 218.587C1358.64 213.392 1351.18 205.955 1345.93 196.277C1340.74 186.544 1338.14 174.896 1338.14 161.336C1338.14 148.322 1340.76 136.948 1346.01 127.215C1351.26 117.481 1358.67 109.908 1368.24 104.495C1377.81 99.0813 1389.1 96.3746 1402.12 96.3746C1411.63 96.3746 1420.24 97.851 1427.95 100.804C1435.66 103.757 1442.25 108.049 1447.72 113.681C1453.19 119.259 1457.4 126.039 1460.35 134.022C1463.3 142.006 1464.78 151.001 1464.78 161.008V171.506H1352.25V146.572H1423.11C1423.06 142.963 1422.13 139.791 1420.32 137.057C1418.58 134.268 1416.2 132.109 1413.19 130.578C1410.24 128.992 1406.87 128.199 1403.1 128.199C1399.44 128.199 1396.07 128.992 1393.01 130.578C1389.95 132.109 1387.49 134.241 1385.63 136.975C1383.83 139.709 1382.87 142.908 1382.76 146.572V173.475C1382.76 177.521 1383.61 181.13 1385.3 184.302C1387 187.473 1389.43 189.961 1392.6 191.766C1395.77 193.57 1399.6 194.472 1404.08 194.472C1407.2 194.472 1410.04 194.035 1412.61 193.16C1415.24 192.285 1417.48 191.027 1419.34 189.387C1421.2 187.692 1422.57 185.669 1423.44 183.317H1464.78C1463.36 192.066 1460 199.667 1454.69 206.119C1449.39 212.517 1442.36 217.493 1433.61 221.047C1424.92 224.547 1414.75 226.297 1403.1 226.297ZM1607.07 98.015L1564.74 224H1512.25L1469.93 98.015H1517.5L1537.84 181.349H1539.15L1559.49 98.015H1607.07Z" fill="white"/>
<path d="M121.885 355.196H111.641L110.231 360H101.04L111.978 330.896H121.786L132.724 360H123.314L121.885 355.196ZM119.999 348.902L116.783 338.44L113.587 348.902H119.999ZM146.323 330.896H155.734L162.285 351.841L168.737 330.896H177.869L167.069 360H157.322L146.323 330.896ZM181.204 330.896H190.218V360H181.204V330.896ZM196.809 330.896H210.169C212.803 330.896 214.927 331.253 216.542 331.968C218.17 332.683 219.513 333.709 220.572 335.045C221.631 336.382 222.399 337.937 222.875 339.711C223.351 341.484 223.59 343.364 223.59 345.349C223.59 348.459 223.232 350.874 222.518 352.595C221.816 354.302 220.837 355.738 219.579 356.903C218.322 358.054 216.972 358.822 215.53 359.206C213.558 359.735 211.771 360 210.169 360H196.809V330.896ZM205.802 337.487V353.389H208.005C209.885 353.389 211.222 353.184 212.016 352.774C212.81 352.35 213.432 351.622 213.882 350.59C214.332 349.544 214.557 347.857 214.557 345.527C214.557 342.444 214.054 340.333 213.048 339.194C212.042 338.056 210.375 337.487 208.045 337.487H205.802ZM244.494 355.196H234.251L232.841 360H223.649L234.588 330.896H244.395L255.334 360H245.924L244.494 355.196ZM242.608 348.902L239.392 338.44L236.196 348.902H242.608ZM270.243 350.371L278.8 349.835C278.985 351.225 279.362 352.284 279.931 353.012C280.858 354.19 282.181 354.779 283.902 354.779C285.186 354.779 286.172 354.481 286.86 353.885C287.561 353.277 287.912 352.575 287.912 351.781C287.912 351.027 287.581 350.352 286.919 349.756C286.258 349.16 284.722 348.598 282.314 348.069C278.37 347.182 275.557 346.004 273.876 344.535C272.182 343.066 271.335 341.193 271.335 338.917C271.335 337.421 271.765 336.011 272.626 334.688C273.499 333.351 274.803 332.306 276.537 331.551C278.284 330.784 280.672 330.4 283.703 330.4C287.422 330.4 290.255 331.095 292.2 332.484C294.159 333.861 295.324 336.058 295.694 339.075L287.217 339.572C286.992 338.261 286.516 337.308 285.788 336.713C285.073 336.117 284.081 335.82 282.81 335.82C281.764 335.82 280.977 336.045 280.448 336.495C279.918 336.931 279.653 337.467 279.653 338.103C279.653 338.566 279.872 338.983 280.309 339.353C280.732 339.737 281.738 340.094 283.326 340.425C287.257 341.272 290.069 342.133 291.763 343.006C293.471 343.866 294.708 344.939 295.476 346.222C296.257 347.506 296.647 348.942 296.647 350.53C296.647 352.396 296.131 354.117 295.099 355.692C294.066 357.267 292.624 358.465 290.771 359.285C288.918 360.093 286.582 360.496 283.763 360.496C278.813 360.496 275.385 359.543 273.479 357.638C271.573 355.732 270.495 353.31 270.243 350.371ZM301.174 330.896H325.275V337.11H310.187V341.736H324.183V347.672H310.187V353.409H325.711V360H301.174V330.896ZM344.274 360V330.896H359.262C362.042 330.896 364.166 331.134 365.635 331.611C367.104 332.087 368.289 332.974 369.189 334.271C370.089 335.555 370.539 337.123 370.539 338.976C370.539 340.591 370.194 341.987 369.506 343.165C368.818 344.33 367.872 345.276 366.667 346.004C365.9 346.467 364.847 346.851 363.511 347.155C364.583 347.513 365.364 347.87 365.853 348.227C366.184 348.466 366.661 348.975 367.283 349.756C367.918 350.537 368.342 351.139 368.553 351.563L372.901 360H362.736L357.932 351.106C357.323 349.955 356.781 349.207 356.304 348.863C355.656 348.413 354.921 348.188 354.101 348.188H353.306V360H344.274ZM353.306 342.689H357.098C357.509 342.689 358.303 342.556 359.481 342.291C360.076 342.172 360.559 341.868 360.93 341.378C361.314 340.889 361.506 340.326 361.506 339.691C361.506 338.751 361.208 338.03 360.612 337.527C360.017 337.024 358.898 336.772 357.257 336.772H353.306V342.689ZM375.78 330.896H399.881V337.11H384.793V341.736H398.789V347.672H384.793V353.409H400.317V360H375.78V330.896ZM403.613 350.371L412.169 349.835C412.355 351.225 412.732 352.284 413.301 353.012C414.227 354.19 415.551 354.779 417.272 354.779C418.555 354.779 419.541 354.481 420.23 353.885C420.931 353.277 421.282 352.575 421.282 351.781C421.282 351.027 420.951 350.352 420.289 349.756C419.627 349.16 418.092 348.598 415.683 348.069C411.739 347.182 408.927 346.004 407.246 344.535C405.552 343.066 404.705 341.193 404.705 338.917C404.705 337.421 405.135 336.011 405.995 334.688C406.869 333.351 408.172 332.306 409.906 331.551C411.653 330.784 414.042 330.4 417.073 330.4C420.792 330.4 423.624 331.095 425.57 332.484C427.529 333.861 428.693 336.058 429.064 339.075L420.587 339.572C420.362 338.261 419.885 337.308 419.158 336.713C418.443 336.117 417.45 335.82 416.18 335.82C415.134 335.82 414.347 336.045 413.817 336.495C413.288 336.931 413.023 337.467 413.023 338.103C413.023 338.566 413.241 338.983 413.678 339.353C414.102 339.737 415.108 340.094 416.696 340.425C420.627 341.272 423.439 342.133 425.133 343.006C426.84 343.866 428.078 344.939 428.846 346.222C429.626 347.506 430.017 348.942 430.017 350.53C430.017 352.396 429.501 354.117 428.468 355.692C427.436 357.267 425.993 358.465 424.141 359.285C422.288 360.093 419.952 360.496 417.133 360.496C412.183 360.496 408.755 359.543 406.849 357.638C404.943 355.732 403.864 353.31 403.613 350.371ZM453.502 330.896H462.476V348.247C462.476 349.968 462.205 351.596 461.662 353.131C461.132 354.653 460.292 355.99 459.141 357.141C458.002 358.279 456.805 359.08 455.547 359.543C453.8 360.192 451.703 360.516 449.254 360.516C447.838 360.516 446.289 360.417 444.609 360.218C442.941 360.02 441.545 359.629 440.42 359.047C439.295 358.451 438.262 357.611 437.323 356.526C436.396 355.441 435.761 354.322 435.417 353.171C434.861 351.318 434.583 349.677 434.583 348.247V330.896H443.556V348.664C443.556 350.252 443.993 351.496 444.867 352.396C445.753 353.283 446.978 353.727 448.539 353.727C450.088 353.727 451.299 353.29 452.172 352.416C453.059 351.53 453.502 350.279 453.502 348.664V330.896ZM468.332 330.896H480.165L484.731 348.605L489.277 330.896H501.069V360H493.724V337.805L488.026 360H481.376L475.698 337.805V360H468.332V330.896ZM506.807 330.896H530.908V337.11H515.82V341.736H529.816V347.672H515.82V353.409H531.344V360H506.807V330.896ZM567.695 355.196H557.451L556.041 360H546.849L557.788 330.896H567.595L578.534 360H569.124L567.695 355.196ZM565.809 348.902L562.592 338.44L559.396 348.902H565.809ZM595.071 330.896H603.469L614.428 346.997V330.896H622.905V360H614.428L603.528 344.019V360H595.071V330.896ZM646.787 355.196H636.543L635.134 360H625.942L636.881 330.896H646.688L657.627 360H648.217L646.787 355.196ZM644.901 348.902L641.685 338.44L638.489 348.902H644.901ZM645.735 323.69H648.872C648.885 324.034 648.892 324.332 648.892 324.583C648.892 326.052 648.521 327.19 647.78 327.998C647.039 328.805 646.086 329.209 644.921 329.209C644.074 329.209 642.79 328.858 641.07 328.156C640.024 327.733 639.303 327.521 638.906 327.521C638.522 327.521 638.224 327.64 638.012 327.879C637.801 328.117 637.688 328.54 637.675 329.149H634.578C634.565 328.831 634.558 328.554 634.558 328.315C634.558 326.899 634.949 325.774 635.729 324.94C636.51 324.107 637.437 323.69 638.509 323.69C638.972 323.69 639.409 323.743 639.819 323.848C640.229 323.954 640.984 324.239 642.082 324.702C643.194 325.165 644.001 325.397 644.504 325.397C644.862 325.397 645.146 325.278 645.358 325.04C645.583 324.788 645.709 324.338 645.735 323.69ZM659.394 345.468C659.394 340.717 660.717 337.017 663.364 334.37C666.011 331.723 669.697 330.4 674.422 330.4C679.266 330.4 682.998 331.703 685.619 334.311C688.239 336.905 689.55 340.544 689.55 345.23C689.55 348.631 688.974 351.424 687.823 353.607C686.684 355.778 685.03 357.472 682.859 358.69C680.702 359.894 678.009 360.496 674.779 360.496C671.497 360.496 668.777 359.974 666.62 358.928C664.476 357.882 662.736 356.228 661.399 353.965C660.062 351.702 659.394 348.869 659.394 345.468ZM668.387 345.508C668.387 348.446 668.93 350.557 670.015 351.841C671.113 353.124 672.602 353.766 674.482 353.766C676.414 353.766 677.909 353.138 678.968 351.88C680.027 350.623 680.557 348.366 680.557 345.111C680.557 342.371 680.001 340.372 678.889 339.115C677.79 337.845 676.295 337.209 674.402 337.209C672.589 337.209 671.133 337.851 670.035 339.135C668.936 340.419 668.387 342.543 668.387 345.508ZM706.405 350.371L714.961 349.835C715.146 351.225 715.523 352.284 716.093 353.012C717.019 354.19 718.343 354.779 720.063 354.779C721.347 354.779 722.333 354.481 723.021 353.885C723.723 353.277 724.073 352.575 724.073 351.781C724.073 351.027 723.742 350.352 723.081 349.756C722.419 349.16 720.884 348.598 718.475 348.069C714.531 347.182 711.718 346.004 710.038 344.535C708.343 343.066 707.496 341.193 707.496 338.917C707.496 337.421 707.927 336.011 708.787 334.688C709.66 333.351 710.964 332.306 712.698 331.551C714.445 330.784 716.834 330.4 719.865 330.4C723.584 330.4 726.416 331.095 728.361 332.484C730.32 333.861 731.485 336.058 731.856 339.075L723.378 339.572C723.153 338.261 722.677 337.308 721.949 336.713C721.234 336.117 720.242 335.82 718.971 335.82C717.926 335.82 717.138 336.045 716.609 336.495C716.079 336.931 715.815 337.467 715.815 338.103C715.815 338.566 716.033 338.983 716.47 339.353C716.893 339.737 717.899 340.094 719.487 340.425C723.418 341.272 726.231 342.133 727.925 343.006C729.632 343.866 730.87 344.939 731.637 346.222C732.418 347.506 732.808 348.942 732.808 350.53C732.808 352.396 732.292 354.117 731.26 355.692C730.228 357.267 728.785 358.465 726.932 359.285C725.079 360.093 722.743 360.496 719.924 360.496C714.974 360.496 711.546 359.543 709.64 357.638C707.735 355.732 706.656 353.31 706.405 350.371ZM755.262 355.196H745.018L743.608 360H734.417L745.355 330.896H755.162L766.101 360H756.691L755.262 355.196ZM753.376 348.902L750.16 338.44L746.963 348.902H753.376ZM769.02 330.896H785.855C788.66 330.896 790.811 331.591 792.307 332.981C793.815 334.37 794.57 336.091 794.57 338.142C794.57 339.863 794.034 341.339 792.962 342.569C792.247 343.39 791.202 344.039 789.825 344.515C791.916 345.018 793.452 345.885 794.431 347.116C795.424 348.333 795.92 349.869 795.92 351.721C795.92 353.23 795.569 354.587 794.868 355.791C794.166 356.996 793.207 357.949 791.989 358.65C791.235 359.087 790.096 359.404 788.574 359.603C786.549 359.868 785.206 360 784.544 360H769.02V330.896ZM778.092 342.311H782.003C783.406 342.311 784.379 342.073 784.922 341.597C785.477 341.107 785.755 340.405 785.755 339.492C785.755 338.645 785.477 337.983 784.922 337.507C784.379 337.031 783.426 336.792 782.063 336.792H778.092V342.311ZM778.092 353.746H782.678C784.227 353.746 785.319 353.475 785.954 352.932C786.589 352.377 786.907 351.635 786.907 350.709C786.907 349.849 786.589 349.16 785.954 348.644C785.332 348.115 784.233 347.85 782.658 347.85H778.092V353.746ZM800.625 330.896H824.726V337.11H809.638V341.736H823.634V347.672H809.638V353.409H825.163V360H800.625V330.896ZM830.146 360V330.896H845.134C847.914 330.896 850.038 331.134 851.507 331.611C852.976 332.087 854.161 332.974 855.061 334.271C855.961 335.555 856.411 337.123 856.411 338.976C856.411 340.591 856.067 341.987 855.378 343.165C854.69 344.33 853.744 345.276 852.539 346.004C851.772 346.467 850.72 346.851 849.383 347.155C850.455 347.513 851.236 347.87 851.725 348.227C852.056 348.466 852.533 348.975 853.155 349.756C853.79 350.537 854.214 351.139 854.425 351.563L858.773 360H848.609L843.804 351.106C843.195 349.955 842.653 349.207 842.176 348.863C841.528 348.413 840.793 348.188 839.973 348.188H839.179V360H830.146ZM839.179 342.689H842.97C843.381 342.689 844.175 342.556 845.353 342.291C845.948 342.172 846.431 341.868 846.802 341.378C847.186 340.889 847.378 340.326 847.378 339.691C847.378 338.751 847.08 338.03 846.484 337.527C845.889 337.024 844.77 336.772 843.129 336.772H839.179V342.689ZM875.31 330.896H883.708L894.667 346.997V330.896H903.144V360H894.667L883.768 344.019V360H875.31V330.896ZM926.629 355.196H916.385L914.976 360H905.784L916.723 330.896H926.53L937.469 360H928.059L926.629 355.196ZM924.743 348.902L921.527 338.44L918.331 348.902H924.743ZM940.486 330.896H953.847C956.481 330.896 958.605 331.253 960.22 331.968C961.848 332.683 963.191 333.709 964.25 335.045C965.309 336.382 966.076 337.937 966.553 339.711C967.029 341.484 967.267 343.364 967.267 345.349C967.267 348.459 966.91 350.874 966.195 352.595C965.494 354.302 964.515 355.738 963.257 356.903C962 358.054 960.65 358.822 959.207 359.206C957.235 359.735 955.449 360 953.847 360H940.486V330.896ZM949.48 337.487V353.389H951.683C953.563 353.389 954.899 353.184 955.693 352.774C956.488 352.35 957.11 351.622 957.56 350.59C958.01 349.544 958.235 347.857 958.235 345.527C958.235 342.444 957.732 340.333 956.726 339.194C955.72 338.056 954.052 337.487 951.723 337.487H949.48ZM988.172 355.196H977.928L976.519 360H967.327L978.266 330.896H988.073L999.012 360H989.602L988.172 355.196ZM986.286 348.902L983.07 338.44L979.874 348.902H986.286ZM1015.47 330.896H1039.57V337.11H1024.48V341.736H1038.48V347.672H1024.48V353.409H1040.01V360H1015.47V330.896ZM1076.36 355.196H1066.11L1064.7 360H1055.51L1066.45 330.896H1076.26L1087.2 360H1077.79L1076.36 355.196ZM1074.47 348.902L1071.26 338.44L1068.06 348.902H1074.47ZM1103.97 349.458V343.403H1117.87V355.811C1115.21 357.624 1112.85 358.862 1110.8 359.524C1108.76 360.172 1106.34 360.496 1103.54 360.496C1100.08 360.496 1097.26 359.907 1095.08 358.729C1092.91 357.552 1091.22 355.798 1090.02 353.468C1088.82 351.139 1088.23 348.466 1088.23 345.448C1088.23 342.272 1088.88 339.512 1090.19 337.17C1091.5 334.814 1093.42 333.027 1095.95 331.809C1097.92 330.87 1100.58 330.4 1103.91 330.4C1107.13 330.4 1109.53 330.691 1111.12 331.273C1112.72 331.856 1114.04 332.762 1115.09 333.993C1116.15 335.211 1116.94 336.759 1117.47 338.639L1108.8 340.187C1108.44 339.089 1107.83 338.248 1106.97 337.666C1106.12 337.084 1105.04 336.792 1103.71 336.792C1101.74 336.792 1100.17 337.481 1098.99 338.857C1097.82 340.22 1097.24 342.384 1097.24 345.349C1097.24 348.499 1097.83 350.749 1099.01 352.099C1100.2 353.449 1101.85 354.124 1103.97 354.124C1104.98 354.124 1105.94 353.978 1106.85 353.687C1107.76 353.396 1108.81 352.899 1109.99 352.198V349.458H1103.97ZM1123.57 330.896H1132.58V360H1123.57V330.896ZM1139.17 360V330.896H1154.16C1156.94 330.896 1159.06 331.134 1160.53 331.611C1162 332.087 1163.19 332.974 1164.09 334.271C1164.99 335.555 1165.44 337.123 1165.44 338.976C1165.44 340.591 1165.09 341.987 1164.4 343.165C1163.72 344.33 1162.77 345.276 1161.56 346.004C1160.8 346.467 1159.74 346.851 1158.41 347.155C1159.48 347.513 1160.26 347.87 1160.75 348.227C1161.08 348.466 1161.56 348.975 1162.18 349.756C1162.82 350.537 1163.24 351.139 1163.45 351.563L1167.8 360H1157.63L1152.83 351.106C1152.22 349.955 1151.68 349.207 1151.2 348.863C1150.55 348.413 1149.82 348.188 1149 348.188H1148.2V360H1139.17ZM1148.2 342.689H1152C1152.41 342.689 1153.2 342.556 1154.38 342.291C1154.97 342.172 1155.46 341.868 1155.83 341.378C1156.21 340.889 1156.4 340.326 1156.4 339.691C1156.4 338.751 1156.11 338.03 1155.51 337.527C1154.91 337.024 1153.8 336.772 1152.15 336.772H1148.2V342.689ZM1184.18 330.896H1196.01L1200.58 348.605L1205.12 330.896H1216.91V360H1209.57V337.805L1203.87 360H1197.22L1191.54 337.805V360H1184.18V330.896ZM1222.65 330.896H1246.75V337.11H1231.66V341.736H1245.66V347.672H1231.66V353.409H1247.19V360H1222.65V330.896ZM1250.48 350.371L1259.04 349.835C1259.23 351.225 1259.6 352.284 1260.17 353.012C1261.1 354.19 1262.42 354.779 1264.14 354.779C1265.43 354.779 1266.41 354.481 1267.1 353.885C1267.8 353.277 1268.15 352.575 1268.15 351.781C1268.15 351.027 1267.82 350.352 1267.16 349.756C1266.5 349.16 1264.96 348.598 1262.55 348.069C1258.61 347.182 1255.8 346.004 1254.12 344.535C1252.42 343.066 1251.58 341.193 1251.58 338.917C1251.58 337.421 1252.01 336.011 1252.87 334.688C1253.74 333.351 1255.04 332.306 1256.78 331.551C1258.52 330.784 1260.91 330.4 1263.94 330.4C1267.66 330.4 1270.5 331.095 1272.44 332.484C1274.4 333.861 1275.56 336.058 1275.94 339.075L1267.46 339.572C1267.23 338.261 1266.76 337.308 1266.03 336.713C1265.31 336.117 1264.32 335.82 1263.05 335.82C1262.01 335.82 1261.22 336.045 1260.69 336.495C1260.16 336.931 1259.89 337.467 1259.89 338.103C1259.89 338.566 1260.11 338.983 1260.55 339.353C1260.97 339.737 1261.98 340.094 1263.57 340.425C1267.5 341.272 1270.31 342.133 1272 343.006C1273.71 343.866 1274.95 344.939 1275.72 346.222C1276.5 347.506 1276.89 348.942 1276.89 350.53C1276.89 352.396 1276.37 354.117 1275.34 355.692C1274.31 357.267 1272.86 358.465 1271.01 359.285C1269.16 360.093 1266.82 360.496 1264 360.496C1259.05 360.496 1255.63 359.543 1253.72 357.638C1251.81 355.732 1250.74 353.31 1250.48 350.371ZM1281.34 330.896H1293.17L1297.73 348.605L1302.28 330.896H1314.07V360H1306.73V337.805L1301.03 360H1294.38L1288.7 337.805V360H1281.34V330.896ZM1318.7 345.468C1318.7 340.717 1320.02 337.017 1322.67 334.37C1325.32 331.723 1329 330.4 1333.73 330.4C1338.57 330.4 1342.3 331.703 1344.92 334.311C1347.54 336.905 1348.85 340.544 1348.85 345.23C1348.85 348.631 1348.28 351.424 1347.13 353.607C1345.99 355.778 1344.33 357.472 1342.16 358.69C1340.01 359.894 1337.31 360.496 1334.08 360.496C1330.8 360.496 1328.08 359.974 1325.92 358.928C1323.78 357.882 1322.04 356.228 1320.7 353.965C1319.37 351.702 1318.7 348.869 1318.7 345.468ZM1327.69 345.508C1327.69 348.446 1328.23 350.557 1329.32 351.841C1330.42 353.124 1331.91 353.766 1333.79 353.766C1335.72 353.766 1337.21 353.138 1338.27 351.88C1339.33 350.623 1339.86 348.366 1339.86 345.111C1339.86 342.371 1339.3 340.372 1338.19 339.115C1337.09 337.845 1335.6 337.209 1333.71 337.209C1331.89 337.209 1330.44 337.851 1329.34 339.135C1328.24 340.419 1327.69 342.543 1327.69 345.508ZM1385.18 355.196H1374.94L1373.53 360H1364.34L1375.28 330.896H1385.08L1396.02 360H1386.61L1385.18 355.196ZM1383.3 348.902L1380.08 338.44L1376.89 348.902H1383.3ZM1397.35 350.371L1405.91 349.835C1406.1 351.225 1406.47 352.284 1407.04 353.012C1407.97 354.19 1409.29 354.779 1411.01 354.779C1412.3 354.779 1413.28 354.481 1413.97 353.885C1414.67 353.277 1415.02 352.575 1415.02 351.781C1415.02 351.027 1414.69 350.352 1414.03 349.756C1413.37 349.16 1411.83 348.598 1409.42 348.069C1405.48 347.182 1402.67 346.004 1400.99 344.535C1399.29 343.066 1398.45 341.193 1398.45 338.917C1398.45 337.421 1398.88 336.011 1399.74 334.688C1400.61 333.351 1401.91 332.306 1403.65 331.551C1405.39 330.784 1407.78 330.4 1410.81 330.4C1414.53 330.4 1417.37 331.095 1419.31 332.484C1421.27 333.861 1422.43 336.058 1422.8 339.075L1414.33 339.572C1414.1 338.261 1413.63 337.308 1412.9 336.713C1412.18 336.117 1411.19 335.82 1409.92 335.82C1408.87 335.82 1408.09 336.045 1407.56 336.495C1407.03 336.931 1406.76 337.467 1406.76 338.103C1406.76 338.566 1406.98 338.983 1407.42 339.353C1407.84 339.737 1408.85 340.094 1410.44 340.425C1414.37 341.272 1417.18 342.133 1418.87 343.006C1420.58 343.866 1421.82 344.939 1422.59 346.222C1423.37 347.506 1423.76 348.942 1423.76 350.53C1423.76 352.396 1423.24 354.117 1422.21 355.692C1421.18 357.267 1419.73 358.465 1417.88 359.285C1416.03 360.093 1413.69 360.496 1410.87 360.496C1405.92 360.496 1402.5 359.543 1400.59 357.638C1398.68 355.732 1397.61 353.31 1397.35 350.371ZM1426.74 350.371L1435.29 349.835C1435.48 351.225 1435.85 352.284 1436.42 353.012C1437.35 354.19 1438.67 354.779 1440.39 354.779C1441.68 354.779 1442.66 354.481 1443.35 353.885C1444.05 353.277 1444.4 352.575 1444.4 351.781C1444.4 351.027 1444.07 350.352 1443.41 349.756C1442.75 349.16 1441.21 348.598 1438.81 348.069C1434.86 347.182 1432.05 346.004 1430.37 344.535C1428.67 343.066 1427.83 341.193 1427.83 338.917C1427.83 337.421 1428.26 336.011 1429.12 334.688C1429.99 333.351 1431.3 332.306 1433.03 331.551C1434.78 330.784 1437.16 330.4 1440.2 330.4C1443.91 330.4 1446.75 331.095 1448.69 332.484C1450.65 333.861 1451.82 336.058 1452.19 339.075L1443.71 339.572C1443.48 338.261 1443.01 337.308 1442.28 336.713C1441.57 336.117 1440.57 335.82 1439.3 335.82C1438.26 335.82 1437.47 336.045 1436.94 336.495C1436.41 336.931 1436.15 337.467 1436.15 338.103C1436.15 338.566 1436.36 338.983 1436.8 339.353C1437.22 339.737 1438.23 340.094 1439.82 340.425C1443.75 341.272 1446.56 342.133 1448.26 343.006C1449.96 343.866 1451.2 344.939 1451.97 346.222C1452.75 347.506 1453.14 348.942 1453.14 350.53C1453.14 352.396 1452.62 354.117 1451.59 355.692C1450.56 357.267 1449.12 358.465 1447.26 359.285C1445.41 360.093 1443.07 360.496 1440.26 360.496C1435.31 360.496 1431.88 359.543 1429.97 357.638C1428.07 355.732 1426.99 353.31 1426.74 350.371ZM1458.04 330.896H1467.06V360H1458.04V330.896ZM1473.43 330.896H1485.26L1489.83 348.605L1494.37 330.896H1506.17V360H1498.82V337.805L1493.12 360H1486.47L1480.79 337.805V360H1473.43V330.896Z" fill="white"/>
</svg>
