<svg width="1610" height="324" viewBox="0 0 1610 324" fill="none" xmlns="http://www.w3.org/2000/svg">
<path d="M10.8425 224V56.02H83.6775C96.4729 56.02 107.218 57.7425 115.912 61.1874C124.661 64.6323 131.25 69.4989 135.679 75.7872C140.163 82.0755 142.405 89.4848 142.405 98.015C142.405 104.194 141.038 109.826 138.304 114.911C135.624 119.997 131.851 124.262 126.985 127.707C122.118 131.097 116.431 133.448 109.924 134.761V136.401C117.142 136.674 123.704 138.506 129.61 141.896C135.515 145.232 140.218 149.853 143.717 155.758C147.217 161.609 148.967 168.499 148.967 176.428C148.967 185.614 146.561 193.789 141.749 200.952C136.992 208.115 130.211 213.747 121.407 217.848C112.604 221.949 102.105 224 89.9112 224H10.8425ZM56.4464 187.582H77.772C85.4273 187.582 91.1688 186.161 94.9965 183.317C98.8242 180.419 100.738 176.154 100.738 170.522C100.738 166.585 99.8358 163.249 98.0313 160.515C96.2268 157.781 93.6568 155.703 90.3213 154.282C87.0404 152.86 83.076 152.149 78.4282 152.149H56.4464V187.582ZM56.4464 123.934H75.1473C79.139 123.934 82.6659 123.305 85.7281 122.047C88.7902 120.79 91.1688 118.985 92.8639 116.634C94.6137 114.228 95.4886 111.302 95.4886 107.858C95.4886 102.663 93.6295 98.6985 89.9112 95.9645C86.1929 93.1757 81.4903 91.7814 75.8035 91.7814H56.4464V123.934ZM165.781 224V98.015H211.057V224H165.781ZM188.419 84.8916C182.295 84.8916 177.045 82.8684 172.671 78.822C168.296 74.7756 166.109 69.909 166.109 64.2222C166.109 58.5353 168.296 53.6687 172.671 49.6223C177.045 45.5759 182.295 43.5527 188.419 43.5527C194.598 43.5527 199.847 45.5759 204.167 49.6223C208.542 53.6687 210.729 58.5353 210.729 64.2222C210.729 69.909 208.542 74.7756 204.167 78.822C199.847 82.8684 194.598 84.8916 188.419 84.8916ZM233.469 224V56.02H278.745V119.997H279.401C281.042 115.732 283.448 111.822 286.619 108.268C289.791 104.659 293.728 101.788 298.43 99.6554C303.133 97.4682 308.601 96.3746 314.835 96.3746C323.146 96.3746 331.047 98.5892 338.539 103.018C346.085 107.447 352.209 114.419 356.912 123.934C361.669 133.448 364.047 145.806 364.047 161.008C364.047 175.553 361.778 187.61 357.24 197.179C352.756 206.748 346.741 213.884 339.195 218.587C331.704 223.289 323.474 225.64 314.506 225.64C308.601 225.64 303.324 224.684 298.676 222.77C294.083 220.801 290.146 218.149 286.865 214.814C283.639 211.423 281.151 207.596 279.401 203.331H278.417V224H233.469ZM277.761 161.008C277.761 167.132 278.554 172.436 280.139 176.92C281.78 181.349 284.077 184.794 287.029 187.254C290.037 189.66 293.618 190.863 297.774 190.863C301.93 190.863 305.457 189.688 308.355 187.336C311.308 184.93 313.55 181.513 315.081 177.084C316.666 172.6 317.459 167.241 317.459 161.008C317.459 154.774 316.666 149.442 315.081 145.013C313.55 140.529 311.308 137.112 308.355 134.761C305.457 132.355 301.93 131.152 297.774 131.152C293.618 131.152 290.037 132.355 287.029 134.761C284.077 137.112 281.78 140.529 280.139 145.013C278.554 149.442 277.761 154.774 277.761 161.008ZM428.27 56.02V224H382.994V56.02H428.27ZM451.339 224V98.015H496.615V224H451.339ZM473.977 84.8916C467.853 84.8916 462.603 82.8684 458.229 78.822C453.854 74.7756 451.667 69.909 451.667 64.2222C451.667 58.5353 453.854 53.6687 458.229 49.6223C462.603 45.5759 467.853 43.5527 473.977 43.5527C480.156 43.5527 485.405 45.5759 489.725 49.6223C494.099 53.6687 496.287 58.5353 496.287 64.2222C496.287 69.909 494.099 74.7756 489.725 78.822C485.405 82.8684 480.156 84.8916 473.977 84.8916ZM580.379 226.297C566.709 226.297 555.007 223.59 545.274 218.176C535.541 212.708 528.077 205.108 522.882 195.375C517.687 185.587 515.09 174.24 515.09 161.336C515.09 148.431 517.687 137.112 522.882 127.379C528.077 117.591 535.541 109.99 545.274 104.577C555.007 99.1086 566.709 96.3746 580.379 96.3746C594.049 96.3746 605.751 99.1086 615.484 104.577C625.218 109.99 632.681 117.591 637.876 127.379C643.071 137.112 645.668 148.431 645.668 161.336C645.668 174.24 643.071 185.587 637.876 195.375C632.681 205.108 625.218 212.708 615.484 218.176C605.751 223.59 594.049 226.297 580.379 226.297ZM580.707 192.832C584.535 192.832 587.843 191.547 590.632 188.977C593.421 186.407 595.58 182.743 597.112 177.986C598.643 173.229 599.408 167.569 599.408 161.008C599.408 154.391 598.643 148.732 597.112 144.029C595.58 139.272 593.421 135.608 590.632 133.038C587.843 130.468 584.535 129.183 580.707 129.183C576.661 129.183 573.189 130.468 570.29 133.038C567.392 135.608 565.178 139.272 563.647 144.029C562.116 148.732 561.35 154.391 561.35 161.008C561.35 167.569 562.116 173.229 563.647 177.986C565.178 182.743 567.392 186.407 570.29 188.977C573.189 191.547 576.661 192.832 580.707 192.832ZM739.173 98.015V130.824H656.167V98.015H739.173ZM672.243 67.8311H717.519V183.481C717.519 185.231 717.82 186.708 718.421 187.911C719.023 189.059 719.952 189.934 721.21 190.535C722.468 191.082 724.081 191.355 726.049 191.355C727.416 191.355 729.002 191.191 730.807 190.863C732.666 190.535 734.033 190.262 734.908 190.043L741.469 221.867C739.446 222.469 736.548 223.207 732.775 224.082C729.057 224.957 724.628 225.531 719.488 225.804C709.098 226.351 700.377 225.285 693.323 222.606C686.269 219.872 680.965 215.579 677.411 209.728C673.856 203.877 672.134 196.55 672.243 187.747V67.8311ZM816.663 226.297C803.211 226.297 791.619 223.727 781.885 218.587C772.207 213.392 764.743 205.955 759.494 196.277C754.299 186.544 751.702 174.896 751.702 161.336C751.702 148.322 754.326 136.948 759.576 127.215C764.825 117.481 772.234 109.908 781.803 104.495C791.373 99.0813 802.664 96.3746 815.678 96.3746C825.193 96.3746 833.805 97.851 841.515 100.804C849.225 103.757 855.814 108.049 861.282 113.681C866.75 119.259 870.961 126.039 873.914 134.022C876.866 142.006 878.343 151.001 878.343 161.008V171.506H765.809V146.572H836.676C836.621 142.963 835.692 139.791 833.887 137.057C832.137 134.268 829.759 132.109 826.751 130.578C823.798 128.992 820.436 128.199 816.663 128.199C812.999 128.199 809.636 128.992 806.574 130.578C803.512 132.109 801.051 134.241 799.192 136.975C797.387 139.709 796.431 142.908 796.321 146.572V173.475C796.321 177.521 797.169 181.13 798.864 184.302C800.559 187.473 802.992 189.961 806.164 191.766C809.335 193.57 813.163 194.472 817.647 194.472C820.764 194.472 823.607 194.035 826.177 193.16C828.802 192.285 831.044 191.027 832.903 189.387C834.762 187.692 836.129 185.669 837.004 183.317H878.343C876.921 192.066 873.558 199.667 868.254 206.119C862.95 212.517 855.923 217.493 847.175 221.047C838.48 224.547 828.31 226.297 816.663 226.297ZM957.514 226.297C943.844 226.297 932.142 223.59 922.409 218.176C912.675 212.708 905.212 205.108 900.017 195.375C894.822 185.587 892.225 174.24 892.225 161.336C892.225 148.431 894.822 137.112 900.017 127.379C905.212 117.591 912.675 109.99 922.409 104.577C932.142 99.1086 943.844 96.3746 957.514 96.3746C969.872 96.3746 980.562 98.6165 989.584 103.1C998.661 107.529 1005.69 113.818 1010.66 121.965C1015.64 130.058 1018.16 139.573 1018.21 150.509H976.215C975.613 143.892 973.699 138.862 970.473 135.417C967.302 131.917 963.201 130.167 958.17 130.167C954.233 130.167 950.788 131.316 947.835 133.612C944.883 135.854 942.586 139.272 940.946 143.865C939.305 148.404 938.485 154.118 938.485 161.008C938.485 167.897 939.305 173.639 940.946 178.232C942.586 182.771 944.883 186.188 947.835 188.485C950.788 190.727 954.233 191.848 958.17 191.848C961.506 191.848 964.458 191.082 967.028 189.551C969.598 187.965 971.676 185.669 973.262 182.661C974.902 179.599 975.887 175.881 976.215 171.506H1018.21C1018.05 182.606 1015.5 192.285 1010.58 200.542C1005.66 208.744 998.689 215.087 989.666 219.571C980.699 224.055 969.981 226.297 957.514 226.297ZM1072 225.969C1063.96 225.969 1056.85 224.656 1050.67 222.031C1044.55 219.352 1039.73 215.306 1036.23 209.892C1032.73 204.479 1030.98 197.589 1030.98 189.223C1030.98 182.333 1032.16 176.455 1034.51 171.588C1036.86 166.667 1040.14 162.648 1044.35 159.531C1048.56 156.414 1053.46 154.036 1059.04 152.395C1064.67 150.755 1070.74 149.689 1077.24 149.196C1084.3 148.65 1089.96 147.993 1094.22 147.228C1098.54 146.408 1101.66 145.287 1103.57 143.865C1105.49 142.389 1106.44 140.447 1106.44 138.041V137.713C1106.44 134.433 1105.19 131.917 1102.67 130.167C1100.16 128.418 1096.93 127.543 1092.99 127.543C1088.67 127.543 1085.15 128.5 1082.41 130.413C1079.73 132.273 1078.12 135.143 1077.57 139.026H1035.91C1036.45 131.37 1038.89 124.317 1043.21 117.864C1047.58 111.357 1053.95 106.162 1062.32 102.28C1070.68 98.3431 1081.13 96.3746 1093.65 96.3746C1102.67 96.3746 1110.76 97.4409 1117.93 99.5734C1125.09 101.651 1131.19 104.577 1136.22 108.35C1141.25 112.068 1145.08 116.442 1147.7 121.473C1150.38 126.449 1151.72 131.863 1151.72 137.713V224H1109.4V206.283H1108.41C1105.9 210.986 1102.84 214.786 1099.23 217.684C1095.67 220.582 1091.6 222.688 1087.01 224C1082.47 225.312 1077.46 225.969 1072 225.969ZM1086.76 197.425C1090.2 197.425 1093.43 196.714 1096.44 195.292C1099.5 193.871 1101.99 191.82 1103.9 189.141C1105.82 186.462 1106.77 183.208 1106.77 179.38V168.882C1105.57 169.374 1104.28 169.838 1102.92 170.276C1101.61 170.713 1100.18 171.123 1098.65 171.506C1097.18 171.889 1095.59 172.244 1093.9 172.573C1092.25 172.901 1090.53 173.201 1088.73 173.475C1085.23 174.022 1082.36 174.924 1080.12 176.181C1077.93 177.384 1076.29 178.888 1075.19 180.693C1074.16 182.442 1073.64 184.411 1073.64 186.598C1073.64 190.098 1074.87 192.777 1077.33 194.636C1079.79 196.495 1082.93 197.425 1086.76 197.425ZM1237.33 224H1172.7V56.02H1236.67C1253.95 56.02 1268.88 59.3829 1281.46 66.1087C1294.09 72.7797 1303.82 82.4036 1310.66 94.9802C1317.55 107.502 1320.99 122.512 1320.99 140.01C1320.99 157.508 1317.57 172.545 1310.74 185.122C1303.9 197.644 1294.23 207.268 1281.7 213.993C1269.18 220.664 1254.39 224 1237.33 224ZM1218.3 185.286H1235.69C1244 185.286 1251.08 183.946 1256.93 181.267C1262.84 178.587 1267.32 173.967 1270.38 167.405C1273.5 160.843 1275.06 151.712 1275.06 140.01C1275.06 128.308 1273.47 119.177 1270.3 112.615C1267.19 106.053 1262.59 101.433 1256.52 98.7532C1250.51 96.0738 1243.13 94.7341 1234.38 94.7341H1218.3V185.286ZM1403.12 226.297C1389.66 226.297 1378.07 223.727 1368.34 218.587C1358.66 213.392 1351.2 205.955 1345.95 196.277C1340.75 186.544 1338.16 174.896 1338.16 161.336C1338.16 148.322 1340.78 136.948 1346.03 127.215C1351.28 117.481 1358.69 109.908 1368.26 104.495C1377.83 99.0813 1389.12 96.3746 1402.13 96.3746C1411.65 96.3746 1420.26 97.851 1427.97 100.804C1435.68 103.757 1442.27 108.049 1447.74 113.681C1453.2 119.259 1457.41 126.039 1460.37 134.022C1463.32 142.006 1464.8 151.001 1464.8 161.008V171.506H1352.26V146.572H1423.13C1423.07 142.963 1422.15 139.791 1420.34 137.057C1418.59 134.268 1416.21 132.109 1413.2 130.578C1410.25 128.992 1406.89 128.199 1403.12 128.199C1399.45 128.199 1396.09 128.992 1393.03 130.578C1389.97 132.109 1387.5 134.241 1385.65 136.975C1383.84 139.709 1382.88 142.908 1382.77 146.572V173.475C1382.77 177.521 1383.62 181.13 1385.32 184.302C1387.01 187.473 1389.45 189.961 1392.62 191.766C1395.79 193.57 1399.62 194.472 1404.1 194.472C1407.22 194.472 1410.06 194.035 1412.63 193.16C1415.26 192.285 1417.5 191.027 1419.36 189.387C1421.22 187.692 1422.58 185.669 1423.46 183.317H1464.8C1463.37 192.066 1460.01 199.667 1454.71 206.119C1449.4 212.517 1442.38 217.493 1433.63 221.047C1424.93 224.547 1414.76 226.297 1403.12 226.297ZM1607.08 98.015L1564.76 224H1512.27L1469.94 98.015H1517.52L1537.86 181.349H1539.17L1559.51 98.015H1607.08Z" fill="white"/>
<path d="M276.17 310.28H268.239L267.148 314H260.031L268.5 291.466H276.094L284.563 314H277.277L276.17 310.28ZM274.71 305.408L272.22 297.307L269.745 305.408H274.71ZM295.092 291.466H302.378L307.451 307.682L312.446 291.466H319.517L311.155 314H303.608L295.092 291.466ZM322.099 291.466H329.078V314H322.099V291.466ZM334.181 291.466H344.526C346.565 291.466 348.21 291.743 349.46 292.296C350.72 292.849 351.76 293.644 352.58 294.679C353.4 295.714 353.994 296.918 354.363 298.291C354.732 299.664 354.917 301.119 354.917 302.656C354.917 305.064 354.64 306.934 354.087 308.267C353.543 309.588 352.785 310.7 351.812 311.602C350.838 312.494 349.793 313.088 348.676 313.385C347.149 313.795 345.766 314 344.526 314H334.181V291.466ZM341.144 296.569V308.881H342.85C344.305 308.881 345.34 308.723 345.955 308.405C346.57 308.077 347.052 307.513 347.4 306.714C347.748 305.905 347.923 304.598 347.923 302.794C347.923 300.407 347.533 298.772 346.754 297.891C345.976 297.01 344.685 296.569 342.881 296.569H341.144ZM371.102 310.28H363.171L362.079 314H354.963L363.432 291.466H371.025L379.495 314H372.209L371.102 310.28ZM369.642 305.408L367.152 297.307L364.677 305.408H369.642ZM391.039 306.545L397.664 306.13C397.807 307.206 398.099 308.026 398.54 308.589C399.257 309.501 400.282 309.957 401.614 309.957C402.608 309.957 403.371 309.727 403.904 309.266C404.447 308.794 404.719 308.251 404.719 307.636C404.719 307.052 404.463 306.53 403.95 306.069C403.438 305.607 402.249 305.172 400.384 304.762C397.331 304.075 395.153 303.163 393.852 302.026C392.54 300.888 391.884 299.438 391.884 297.676C391.884 296.518 392.217 295.427 392.883 294.402C393.559 293.367 394.569 292.557 395.911 291.973C397.264 291.379 399.114 291.082 401.46 291.082C404.34 291.082 406.533 291.62 408.039 292.696C409.556 293.761 410.457 295.462 410.744 297.799L404.181 298.183C404.007 297.169 403.638 296.431 403.074 295.97C402.521 295.509 401.752 295.278 400.769 295.278C399.959 295.278 399.349 295.452 398.939 295.801C398.529 296.139 398.325 296.554 398.325 297.046C398.325 297.404 398.494 297.727 398.832 298.014C399.16 298.311 399.938 298.588 401.168 298.844C404.212 299.5 406.389 300.166 407.701 300.842C409.023 301.508 409.981 302.338 410.575 303.332C411.18 304.326 411.482 305.438 411.482 306.668C411.482 308.113 411.083 309.445 410.283 310.664C409.484 311.884 408.367 312.811 406.932 313.447C405.498 314.072 403.689 314.384 401.506 314.384C397.674 314.384 395.02 313.646 393.544 312.171C392.068 310.695 391.233 308.82 391.039 306.545ZM414.987 291.466H433.647V296.277H421.965V299.859H432.802V304.455H421.965V308.897H433.985V314H414.987V291.466ZM448.357 314V291.466H459.963C462.115 291.466 463.759 291.65 464.897 292.019C466.034 292.388 466.951 293.075 467.648 294.079C468.345 295.073 468.693 296.287 468.693 297.722C468.693 298.972 468.427 300.053 467.894 300.965C467.361 301.867 466.629 302.6 465.696 303.163C465.102 303.522 464.287 303.819 463.252 304.055C464.082 304.332 464.687 304.608 465.066 304.885C465.322 305.069 465.691 305.464 466.173 306.069C466.664 306.673 466.992 307.139 467.156 307.467L470.523 314H462.653L458.933 307.114C458.461 306.222 458.041 305.643 457.672 305.377C457.17 305.028 456.601 304.854 455.966 304.854H455.351V314H448.357ZM455.351 300.596H458.287C458.605 300.596 459.22 300.494 460.132 300.289C460.593 300.197 460.967 299.961 461.254 299.582C461.551 299.203 461.7 298.767 461.7 298.275C461.7 297.548 461.469 296.989 461.008 296.6C460.547 296.211 459.681 296.016 458.41 296.016H455.351V300.596ZM472.751 291.466H491.412V296.277H479.73V299.859H490.567V304.455H479.73V308.897H491.75V314H472.751V291.466ZM494.302 306.545L500.927 306.13C501.07 307.206 501.362 308.026 501.803 308.589C502.52 309.501 503.545 309.957 504.877 309.957C505.871 309.957 506.634 309.727 507.167 309.266C507.71 308.794 507.982 308.251 507.982 307.636C507.982 307.052 507.726 306.53 507.213 306.069C506.701 305.607 505.512 305.172 503.647 304.762C500.594 304.075 498.416 303.163 497.115 302.026C495.803 300.888 495.147 299.438 495.147 297.676C495.147 296.518 495.48 295.427 496.146 294.402C496.823 293.367 497.832 292.557 499.174 291.973C500.527 291.379 502.377 291.082 504.723 291.082C507.603 291.082 509.796 291.62 511.302 292.696C512.819 293.761 513.72 295.462 514.007 297.799L507.444 298.183C507.27 297.169 506.901 296.431 506.337 295.97C505.784 295.509 505.015 295.278 504.032 295.278C503.222 295.278 502.612 295.452 502.202 295.801C501.793 296.139 501.588 296.554 501.588 297.046C501.588 297.404 501.757 297.727 502.095 298.014C502.423 298.311 503.202 298.588 504.431 298.844C507.475 299.5 509.652 300.166 510.964 300.842C512.286 301.508 513.244 302.338 513.838 303.332C514.443 304.326 514.745 305.438 514.745 306.668C514.745 308.113 514.346 309.445 513.546 310.664C512.747 311.884 511.63 312.811 510.195 313.447C508.761 314.072 506.952 314.384 504.769 314.384C500.937 314.384 498.283 313.646 496.807 312.171C495.332 310.695 494.496 308.82 494.302 306.545ZM532.929 291.466H539.877V304.9C539.877 306.232 539.667 307.493 539.247 308.682C538.837 309.86 538.186 310.895 537.295 311.787C536.413 312.668 535.486 313.288 534.512 313.646C533.16 314.149 531.536 314.4 529.64 314.4C528.543 314.4 527.344 314.323 526.043 314.169C524.752 314.015 523.671 313.713 522.8 313.262C521.929 312.801 521.129 312.15 520.402 311.31C519.684 310.47 519.193 309.604 518.926 308.712C518.496 307.278 518.281 306.007 518.281 304.9V291.466H525.228V305.223C525.228 306.453 525.566 307.416 526.243 308.113C526.929 308.799 527.877 309.143 529.086 309.143C530.285 309.143 531.223 308.805 531.899 308.128C532.586 307.442 532.929 306.473 532.929 305.223V291.466ZM544.411 291.466H553.573L557.108 305.177L560.628 291.466H569.758V314H564.071V296.815L559.66 314H554.51L550.114 296.815V314H544.411V291.466ZM574.201 291.466H592.861V296.277H581.179V299.859H592.016V304.455H581.179V308.897H593.199V314H574.201V291.466ZM621.344 310.28H613.412L612.321 314H605.204L613.674 291.466H621.267L629.736 314H622.451L621.344 310.28ZM619.884 305.408L617.393 297.307L614.919 305.408H619.884ZM642.541 291.466H649.043L657.527 303.932V291.466H664.091V314H657.527L649.089 301.626V314H642.541V291.466ZM682.582 310.28H674.651L673.559 314H666.443L674.912 291.466H682.505L690.975 314H683.689L682.582 310.28ZM681.122 305.408L678.632 297.307L676.157 305.408H681.122ZM681.768 285.886H684.196C684.206 286.153 684.212 286.383 684.212 286.578C684.212 287.715 683.925 288.597 683.351 289.222C682.777 289.847 682.039 290.159 681.137 290.159C680.482 290.159 679.488 289.888 678.155 289.345C677.346 289.017 676.787 288.853 676.48 288.853C676.183 288.853 675.952 288.945 675.788 289.13C675.624 289.314 675.537 289.642 675.527 290.113H673.129C673.119 289.867 673.114 289.652 673.114 289.468C673.114 288.371 673.416 287.5 674.021 286.855C674.625 286.209 675.342 285.886 676.173 285.886C676.531 285.886 676.869 285.927 677.187 286.009C677.505 286.091 678.089 286.312 678.939 286.67C679.8 287.029 680.425 287.208 680.815 287.208C681.091 287.208 681.312 287.116 681.476 286.931C681.65 286.737 681.747 286.388 681.768 285.886ZM692.343 302.748C692.343 299.07 693.368 296.205 695.417 294.156C697.467 292.106 700.321 291.082 703.979 291.082C707.729 291.082 710.619 292.091 712.648 294.11C714.677 296.118 715.692 298.936 715.692 302.564C715.692 305.197 715.246 307.36 714.354 309.051C713.473 310.731 712.192 312.043 710.512 312.986C708.841 313.918 706.756 314.384 704.256 314.384C701.714 314.384 699.608 313.98 697.938 313.17C696.278 312.36 694.93 311.079 693.895 309.327C692.86 307.575 692.343 305.382 692.343 302.748ZM699.306 302.779C699.306 305.054 699.726 306.688 700.566 307.682C701.417 308.676 702.57 309.173 704.025 309.173C705.521 309.173 706.679 308.687 707.499 307.713C708.319 306.74 708.729 304.993 708.729 302.472C708.729 300.35 708.298 298.803 707.437 297.83C706.587 296.846 705.429 296.354 703.963 296.354C702.56 296.354 701.432 296.851 700.582 297.845C699.731 298.839 699.306 300.484 699.306 302.779ZM728.742 306.545L735.367 306.13C735.51 307.206 735.802 308.026 736.243 308.589C736.96 309.501 737.985 309.957 739.317 309.957C740.311 309.957 741.074 309.727 741.607 309.266C742.15 308.794 742.422 308.251 742.422 307.636C742.422 307.052 742.166 306.53 741.653 306.069C741.141 305.607 739.952 305.172 738.087 304.762C735.034 304.075 732.856 303.163 731.555 302.026C730.243 300.888 729.587 299.438 729.587 297.676C729.587 296.518 729.92 295.427 730.586 294.402C731.263 293.367 732.272 292.557 733.614 291.973C734.967 291.379 736.817 291.082 739.163 291.082C742.043 291.082 744.236 291.62 745.742 292.696C747.259 293.761 748.161 295.462 748.447 297.799L741.884 298.183C741.71 297.169 741.341 296.431 740.777 295.97C740.224 295.509 739.455 295.278 738.472 295.278C737.662 295.278 737.052 295.452 736.642 295.801C736.233 296.139 736.028 296.554 736.028 297.046C736.028 297.404 736.197 297.727 736.535 298.014C736.863 298.311 737.642 298.588 738.871 298.844C741.915 299.5 744.092 300.166 745.404 300.842C746.726 301.508 747.684 302.338 748.278 303.332C748.883 304.326 749.185 305.438 749.185 306.668C749.185 308.113 748.786 309.445 747.986 310.664C747.187 311.884 746.07 312.811 744.635 313.447C743.201 314.072 741.392 314.384 739.209 314.384C735.377 314.384 732.723 313.646 731.247 312.171C729.772 310.695 728.936 308.82 728.742 306.545ZM766.57 310.28H758.638L757.547 314H750.43L758.9 291.466H766.493L774.963 314H767.677L766.57 310.28ZM765.11 305.408L762.62 297.307L760.145 305.408H765.11ZM777.222 291.466H790.257C792.429 291.466 794.095 292.004 795.252 293.08C796.421 294.156 797.005 295.488 797.005 297.076C797.005 298.409 796.59 299.551 795.76 300.504C795.206 301.14 794.397 301.642 793.331 302.011C794.95 302.4 796.139 303.071 796.897 304.024C797.666 304.967 798.05 306.156 798.05 307.59C798.05 308.758 797.778 309.809 797.235 310.741C796.692 311.674 795.949 312.412 795.007 312.955C794.422 313.293 793.541 313.539 792.363 313.693C790.795 313.898 789.755 314 789.242 314H777.222V291.466ZM784.247 300.304H787.275C788.361 300.304 789.114 300.12 789.534 299.751C789.965 299.372 790.18 298.829 790.18 298.122C790.18 297.466 789.965 296.953 789.534 296.585C789.114 296.216 788.376 296.031 787.321 296.031H784.247V300.304ZM784.247 309.158H787.797C788.996 309.158 789.842 308.948 790.334 308.528C790.826 308.097 791.072 307.524 791.072 306.806C791.072 306.14 790.826 305.607 790.334 305.208C789.852 304.798 789.002 304.593 787.782 304.593H784.247V309.158ZM801.693 291.466H820.353V296.277H808.671V299.859H819.508V304.455H808.671V308.897H820.692V314H801.693V291.466ZM824.55 314V291.466H836.155C838.307 291.466 839.952 291.65 841.089 292.019C842.227 292.388 843.144 293.075 843.84 294.079C844.537 295.073 844.886 296.287 844.886 297.722C844.886 298.972 844.619 300.053 844.086 300.965C843.554 301.867 842.821 302.6 841.888 303.163C841.294 303.522 840.479 303.819 839.444 304.055C840.274 304.332 840.879 304.608 841.258 304.885C841.514 305.069 841.883 305.464 842.365 306.069C842.857 306.673 843.185 307.139 843.349 307.467L846.715 314H838.845L835.125 307.114C834.654 306.222 834.234 305.643 833.865 305.377C833.363 305.028 832.794 304.854 832.158 304.854H831.544V314H824.55ZM831.544 300.596H834.479C834.797 300.596 835.412 300.494 836.324 300.289C836.785 300.197 837.159 299.961 837.446 299.582C837.743 299.203 837.892 298.767 837.892 298.275C837.892 297.548 837.661 296.989 837.2 296.6C836.739 296.211 835.873 296.016 834.602 296.016H831.544V300.596ZM859.519 291.466H866.021L874.506 303.932V291.466H881.069V314H874.506L866.067 301.626V314H859.519V291.466ZM899.253 310.28H891.322L890.23 314H883.114L891.583 291.466H899.176L907.646 314H900.36L899.253 310.28ZM897.793 305.408L895.303 297.307L892.828 305.408H897.793ZM909.982 291.466H920.327C922.366 291.466 924.011 291.743 925.261 292.296C926.522 292.849 927.562 293.644 928.382 294.679C929.201 295.714 929.796 296.918 930.165 298.291C930.533 299.664 930.718 301.119 930.718 302.656C930.718 305.064 930.441 306.934 929.888 308.267C929.345 309.588 928.586 310.7 927.613 311.602C926.639 312.494 925.594 313.088 924.477 313.385C922.95 313.795 921.567 314 920.327 314H909.982V291.466ZM916.945 296.569V308.881H918.652C920.107 308.881 921.142 308.723 921.757 308.405C922.371 308.077 922.853 307.513 923.201 306.714C923.55 305.905 923.724 304.598 923.724 302.794C923.724 300.407 923.335 298.772 922.556 297.891C921.777 297.01 920.486 296.569 918.682 296.569H916.945ZM946.904 310.28H938.972L937.881 314H930.764L939.234 291.466H946.827L955.296 314H948.01L946.904 310.28ZM945.443 305.408L942.953 297.307L940.479 305.408H945.443ZM968.039 291.466H986.699V296.277H975.017V299.859H985.854V304.455H975.017V308.897H987.038V314H968.039V291.466ZM1015.18 310.28H1007.25L1006.16 314H999.042L1007.51 291.466H1015.11L1023.57 314H1016.29L1015.18 310.28ZM1013.72 305.408L1011.23 297.307L1008.76 305.408H1013.72ZM1036.56 305.838V301.15H1047.32V310.757C1045.26 312.161 1043.44 313.119 1041.85 313.631C1040.27 314.133 1038.4 314.384 1036.23 314.384C1033.55 314.384 1031.37 313.928 1029.68 313.016C1028 312.104 1026.69 310.746 1025.76 308.943C1024.84 307.139 1024.37 305.069 1024.37 302.733C1024.37 300.274 1024.88 298.137 1025.9 296.323C1026.91 294.499 1028.4 293.116 1030.35 292.173C1031.88 291.445 1033.93 291.082 1036.52 291.082C1039.01 291.082 1040.87 291.307 1042.1 291.758C1043.34 292.209 1044.36 292.911 1045.17 293.864C1045.99 294.807 1046.61 296.006 1047.02 297.461L1040.3 298.66C1040.02 297.809 1039.55 297.158 1038.88 296.708C1038.23 296.257 1037.39 296.031 1036.36 296.031C1034.84 296.031 1033.62 296.564 1032.71 297.63C1031.8 298.685 1031.35 300.361 1031.35 302.656C1031.35 305.095 1031.81 306.837 1032.72 307.882C1033.64 308.928 1034.92 309.45 1036.56 309.45C1037.34 309.45 1038.09 309.337 1038.79 309.112C1039.5 308.887 1040.31 308.502 1041.22 307.959V305.838H1036.56ZM1051.73 291.466H1058.71V314H1051.73V291.466ZM1063.82 314V291.466H1075.42C1077.57 291.466 1079.22 291.65 1080.36 292.019C1081.49 292.388 1082.41 293.075 1083.11 294.079C1083.8 295.073 1084.15 296.287 1084.15 297.722C1084.15 298.972 1083.89 300.053 1083.35 300.965C1082.82 301.867 1082.09 302.6 1081.15 303.163C1080.56 303.522 1079.75 303.819 1078.71 304.055C1079.54 304.332 1080.15 304.608 1080.52 304.885C1080.78 305.069 1081.15 305.464 1081.63 306.069C1082.12 306.673 1082.45 307.139 1082.62 307.467L1085.98 314H1078.11L1074.39 307.114C1073.92 306.222 1073.5 305.643 1073.13 305.377C1072.63 305.028 1072.06 304.854 1071.42 304.854H1070.81V314H1063.82ZM1070.81 300.596H1073.75C1074.06 300.596 1074.68 300.494 1075.59 300.289C1076.05 300.197 1076.43 299.961 1076.71 299.582C1077.01 299.203 1077.16 298.767 1077.16 298.275C1077.16 297.548 1076.93 296.989 1076.47 296.6C1076.01 296.211 1075.14 296.016 1073.87 296.016H1070.81V300.596ZM1098.66 291.466H1107.82L1111.36 305.177L1114.88 291.466H1124.01V314H1118.32V296.815L1113.91 314H1108.76L1104.37 296.815V314H1098.66V291.466ZM1128.45 291.466H1147.11V296.277H1135.43V299.859H1146.27V304.455H1135.43V308.897H1147.45V314H1128.45V291.466ZM1150 306.545L1156.63 306.13C1156.77 307.206 1157.06 308.026 1157.5 308.589C1158.22 309.501 1159.25 309.957 1160.58 309.957C1161.57 309.957 1162.33 309.727 1162.87 309.266C1163.41 308.794 1163.68 308.251 1163.68 307.636C1163.68 307.052 1163.43 306.53 1162.91 306.069C1162.4 305.607 1161.21 305.172 1159.35 304.762C1156.29 304.075 1154.12 303.163 1152.81 302.026C1151.5 300.888 1150.85 299.438 1150.85 297.676C1150.85 296.518 1151.18 295.427 1151.85 294.402C1152.52 293.367 1153.53 292.557 1154.87 291.973C1156.23 291.379 1158.08 291.082 1160.42 291.082C1163.3 291.082 1165.5 291.62 1167 292.696C1168.52 293.761 1169.42 295.462 1169.71 297.799L1163.14 298.183C1162.97 297.169 1162.6 296.431 1162.04 295.97C1161.48 295.509 1160.72 295.278 1159.73 295.278C1158.92 295.278 1158.31 295.452 1157.9 295.801C1157.49 296.139 1157.29 296.554 1157.29 297.046C1157.29 297.404 1157.46 297.727 1157.8 298.014C1158.12 298.311 1158.9 298.588 1160.13 298.844C1163.18 299.5 1165.35 300.166 1166.66 300.842C1167.99 301.508 1168.94 302.338 1169.54 303.332C1170.14 304.326 1170.45 305.438 1170.45 306.668C1170.45 308.113 1170.05 309.445 1169.25 310.664C1168.45 311.884 1167.33 312.811 1165.9 313.447C1164.46 314.072 1162.65 314.384 1160.47 314.384C1156.64 314.384 1153.98 313.646 1152.51 312.171C1151.03 310.695 1150.2 308.82 1150 306.545ZM1173.89 291.466H1183.05L1186.59 305.177L1190.11 291.466H1199.24V314H1193.55V296.815L1189.14 314H1183.99L1179.59 296.815V314H1173.89V291.466ZM1202.82 302.748C1202.82 299.07 1203.84 296.205 1205.89 294.156C1207.94 292.106 1210.79 291.082 1214.45 291.082C1218.2 291.082 1221.09 292.091 1223.12 294.11C1225.15 296.118 1226.17 298.936 1226.17 302.564C1226.17 305.197 1225.72 307.36 1224.83 309.051C1223.95 310.731 1222.67 312.043 1220.99 312.986C1219.32 313.918 1217.23 314.384 1214.73 314.384C1212.19 314.384 1210.08 313.98 1208.41 313.17C1206.75 312.36 1205.4 311.079 1204.37 309.327C1203.33 307.575 1202.82 305.382 1202.82 302.748ZM1209.78 302.779C1209.78 305.054 1210.2 306.688 1211.04 307.682C1211.89 308.676 1213.04 309.173 1214.5 309.173C1216 309.173 1217.15 308.687 1217.97 307.713C1218.79 306.74 1219.2 304.993 1219.2 302.472C1219.2 300.35 1218.77 298.803 1217.91 297.83C1217.06 296.846 1215.9 296.354 1214.44 296.354C1213.03 296.354 1211.91 296.851 1211.06 297.845C1210.21 298.839 1209.78 300.484 1209.78 302.779ZM1254.29 310.28H1246.36L1245.27 314H1238.16L1246.62 291.466H1254.22L1262.69 314H1255.4L1254.29 310.28ZM1252.83 305.408L1250.34 297.307L1247.87 305.408H1252.83ZM1263.72 306.545L1270.34 306.13C1270.49 307.206 1270.78 308.026 1271.22 308.589C1271.94 309.501 1272.96 309.957 1274.29 309.957C1275.29 309.957 1276.05 309.727 1276.58 309.266C1277.13 308.794 1277.4 308.251 1277.4 307.636C1277.4 307.052 1277.14 306.53 1276.63 306.069C1276.12 305.607 1274.93 305.172 1273.06 304.762C1270.01 304.075 1267.83 303.163 1266.53 302.026C1265.22 300.888 1264.56 299.438 1264.56 297.676C1264.56 296.518 1264.9 295.427 1265.56 294.402C1266.24 293.367 1267.25 292.557 1268.59 291.973C1269.94 291.379 1271.79 291.082 1274.14 291.082C1277.02 291.082 1279.21 291.62 1280.72 292.696C1282.23 293.761 1283.14 295.462 1283.42 297.799L1276.86 298.183C1276.69 297.169 1276.32 296.431 1275.75 295.97C1275.2 295.509 1274.43 295.278 1273.45 295.278C1272.64 295.278 1272.03 295.452 1271.62 295.801C1271.21 296.139 1271 296.554 1271 297.046C1271 297.404 1271.17 297.727 1271.51 298.014C1271.84 298.311 1272.62 298.588 1273.85 298.844C1276.89 299.5 1279.07 300.166 1280.38 300.842C1281.7 301.508 1282.66 302.338 1283.25 303.332C1283.86 304.326 1284.16 305.438 1284.16 306.668C1284.16 308.113 1283.76 309.445 1282.96 310.664C1282.16 311.884 1281.05 312.811 1279.61 313.447C1278.18 314.072 1276.37 314.384 1274.19 314.384C1270.35 314.384 1267.7 313.646 1266.22 312.171C1264.75 310.695 1263.91 308.82 1263.72 306.545ZM1286.47 306.545L1293.09 306.13C1293.24 307.206 1293.53 308.026 1293.97 308.589C1294.69 309.501 1295.71 309.957 1297.04 309.957C1298.04 309.957 1298.8 309.727 1299.33 309.266C1299.88 308.794 1300.15 308.251 1300.15 307.636C1300.15 307.052 1299.89 306.53 1299.38 306.069C1298.87 305.607 1297.68 305.172 1295.81 304.762C1292.76 304.075 1290.58 303.163 1289.28 302.026C1287.97 300.888 1287.31 299.438 1287.31 297.676C1287.31 296.518 1287.65 295.427 1288.31 294.402C1288.99 293.367 1290 292.557 1291.34 291.973C1292.69 291.379 1294.54 291.082 1296.89 291.082C1299.77 291.082 1301.96 291.62 1303.47 292.696C1304.98 293.761 1305.89 295.462 1306.17 297.799L1299.61 298.183C1299.43 297.169 1299.07 296.431 1298.5 295.97C1297.95 295.509 1297.18 295.278 1296.2 295.278C1295.39 295.278 1294.78 295.452 1294.37 295.801C1293.96 296.139 1293.75 296.554 1293.75 297.046C1293.75 297.404 1293.92 297.727 1294.26 298.014C1294.59 298.311 1295.37 298.588 1296.6 298.844C1299.64 299.5 1301.82 300.166 1303.13 300.842C1304.45 301.508 1305.41 302.338 1306 303.332C1306.61 304.326 1306.91 305.438 1306.91 306.668C1306.91 308.113 1306.51 309.445 1305.71 310.664C1304.91 311.884 1303.8 312.811 1302.36 313.447C1300.93 314.072 1299.12 314.384 1296.93 314.384C1293.1 314.384 1290.45 313.646 1288.97 312.171C1287.5 310.695 1286.66 308.82 1286.47 306.545ZM1310.71 291.466H1317.69V314H1310.71V291.466ZM1322.62 291.466H1331.78L1335.32 305.177L1338.84 291.466H1347.97V314H1342.28V296.815L1337.87 314H1332.72L1328.32 296.815V314H1322.62V291.466Z" fill="white"/>
</svg>
