<svg width="1609" height="345" viewBox="0 0 1609 345" fill="none" xmlns="http://www.w3.org/2000/svg">
<path d="M10.8268 224V56.02H83.6619C96.4573 56.02 107.202 57.7425 115.896 61.1874C124.645 64.6323 131.234 69.4989 135.664 75.7872C140.147 82.0755 142.389 89.4848 142.389 98.015C142.389 104.194 141.022 109.826 138.288 114.911C135.609 119.997 131.836 124.262 126.969 127.707C122.103 131.097 116.416 133.448 109.909 134.761V136.401C117.127 136.674 123.688 138.506 129.594 141.896C135.499 145.232 140.202 149.853 143.702 155.758C147.201 161.609 148.951 168.499 148.951 176.428C148.951 185.614 146.545 193.789 141.733 200.952C136.976 208.115 130.195 213.747 121.392 217.848C112.588 221.949 102.089 224 89.8955 224H10.8268ZM56.4308 187.582H77.7564C85.4117 187.582 91.1532 186.161 94.9809 183.317C98.8085 180.419 100.722 176.154 100.722 170.522C100.722 166.585 99.8201 163.249 98.0157 160.515C96.2112 157.781 93.6412 155.703 90.3057 154.282C87.0248 152.86 83.0604 152.149 78.4125 152.149H56.4308V187.582ZM56.4308 123.934H75.1317C79.1234 123.934 82.6503 123.305 85.7124 122.047C88.7746 120.79 91.1532 118.985 92.8483 116.634C94.5981 114.228 95.473 111.302 95.473 107.858C95.473 102.663 93.6139 98.6985 89.8955 95.9645C86.1772 93.1757 81.4747 91.7814 75.7878 91.7814H56.4308V123.934ZM165.765 224V98.015H211.041V224H165.765ZM188.403 84.8916C182.279 84.8916 177.03 82.8684 172.655 78.822C168.281 74.7756 166.094 69.909 166.094 64.2222C166.094 58.5353 168.281 53.6687 172.655 49.6223C177.03 45.5759 182.279 43.5527 188.403 43.5527C194.582 43.5527 199.832 45.5759 204.151 49.6223C208.526 53.6687 210.713 58.5353 210.713 64.2222C210.713 69.909 208.526 74.7756 204.151 78.822C199.832 82.8684 194.582 84.8916 188.403 84.8916ZM233.454 224V56.02H278.729V119.997H279.386C281.026 115.732 283.432 111.822 286.604 108.268C289.775 104.659 293.712 101.788 298.415 99.6554C303.117 97.4682 308.585 96.3746 314.819 96.3746C323.13 96.3746 331.032 98.5892 338.523 103.018C346.069 107.447 352.193 114.419 356.896 123.934C361.653 133.448 364.032 145.806 364.032 161.008C364.032 175.553 361.763 187.61 357.224 197.179C352.74 206.748 346.725 213.884 339.179 218.587C331.688 223.289 323.459 225.64 314.491 225.64C308.585 225.64 303.309 224.684 298.661 222.77C294.068 220.801 290.13 218.149 286.85 214.814C283.623 211.423 281.135 207.596 279.386 203.331H278.401V224H233.454ZM277.745 161.008C277.745 167.132 278.538 172.436 280.124 176.92C281.764 181.349 284.061 184.794 287.014 187.254C290.021 189.66 293.603 190.863 297.758 190.863C301.914 190.863 305.441 189.688 308.339 187.336C311.292 184.93 313.534 181.513 315.065 177.084C316.651 172.6 317.444 167.241 317.444 161.008C317.444 154.774 316.651 149.442 315.065 145.013C313.534 140.529 311.292 137.112 308.339 134.761C305.441 132.355 301.914 131.152 297.758 131.152C293.603 131.152 290.021 132.355 287.014 134.761C284.061 137.112 281.764 140.529 280.124 145.013C278.538 149.442 277.745 154.774 277.745 161.008ZM428.255 56.02V224H382.979V56.02H428.255ZM451.323 224V98.015H496.599V224H451.323ZM473.961 84.8916C467.837 84.8916 462.588 82.8684 458.213 78.822C453.839 74.7756 451.651 69.909 451.651 64.2222C451.651 58.5353 453.839 53.6687 458.213 49.6223C462.588 45.5759 467.837 43.5527 473.961 43.5527C480.14 43.5527 485.389 45.5759 489.709 49.6223C494.084 53.6687 496.271 58.5353 496.271 64.2222C496.271 69.909 494.084 74.7756 489.709 78.822C485.389 82.8684 480.14 84.8916 473.961 84.8916ZM580.364 226.297C566.693 226.297 554.992 223.59 545.258 218.176C535.525 212.708 528.061 205.108 522.866 195.375C517.672 185.587 515.074 174.24 515.074 161.336C515.074 148.431 517.672 137.112 522.866 127.379C528.061 117.591 535.525 109.99 545.258 104.577C554.992 99.1086 566.693 96.3746 580.364 96.3746C594.034 96.3746 605.735 99.1086 615.469 104.577C625.202 109.99 632.666 117.591 637.861 127.379C643.055 137.112 645.653 148.431 645.653 161.336C645.653 174.24 643.055 185.587 637.861 195.375C632.666 205.108 625.202 212.708 615.469 218.176C605.735 223.59 594.034 226.297 580.364 226.297ZM580.692 192.832C584.519 192.832 587.827 191.547 590.616 188.977C593.405 186.407 595.565 182.743 597.096 177.986C598.627 173.229 599.392 167.569 599.392 161.008C599.392 154.391 598.627 148.732 597.096 144.029C595.565 139.272 593.405 135.608 590.616 133.038C587.827 130.468 584.519 129.183 580.692 129.183C576.645 129.183 573.173 130.468 570.275 133.038C567.377 135.608 565.162 139.272 563.631 144.029C562.1 148.732 561.335 154.391 561.335 161.008C561.335 167.569 562.1 173.229 563.631 177.986C565.162 182.743 567.377 186.407 570.275 188.977C573.173 191.547 576.645 192.832 580.692 192.832ZM739.157 98.015V130.824H656.151V98.015H739.157ZM672.228 67.8311H717.503V183.481C717.503 185.231 717.804 186.708 718.406 187.911C719.007 189.059 719.937 189.934 721.194 190.535C722.452 191.082 724.065 191.355 726.034 191.355C727.401 191.355 728.986 191.191 730.791 190.863C732.65 190.535 734.017 190.262 734.892 190.043L741.454 221.867C739.431 222.469 736.532 223.207 732.759 224.082C729.041 224.957 724.612 225.531 719.472 225.804C709.083 226.351 700.361 225.285 693.307 222.606C686.253 219.872 680.949 215.579 677.395 209.728C673.841 203.877 672.118 196.55 672.228 187.747V67.8311ZM816.647 226.297C803.195 226.297 791.603 223.727 781.87 218.587C772.191 213.392 764.727 205.955 759.478 196.277C754.283 186.544 751.686 174.896 751.686 161.336C751.686 148.322 754.311 136.948 759.56 127.215C764.809 117.481 772.219 109.908 781.788 104.495C791.357 99.0813 802.649 96.3746 815.663 96.3746C825.177 96.3746 833.789 97.851 841.499 100.804C849.209 103.757 855.798 108.049 861.267 113.681C866.735 119.259 870.945 126.039 873.898 134.022C876.851 142.006 878.327 151.001 878.327 161.008V171.506H765.794V146.572H836.66C836.605 142.963 835.676 139.791 833.871 137.057C832.122 134.268 829.743 132.109 826.736 130.578C823.783 128.992 820.42 128.199 816.647 128.199C812.983 128.199 809.62 128.992 806.558 130.578C803.496 132.109 801.035 134.241 799.176 136.975C797.372 139.709 796.415 142.908 796.306 146.572V173.475C796.306 177.521 797.153 181.13 798.848 184.302C800.543 187.473 802.977 189.961 806.148 191.766C809.32 193.57 813.147 194.472 817.631 194.472C820.748 194.472 823.591 194.035 826.161 193.16C828.786 192.285 831.028 191.027 832.887 189.387C834.746 187.692 836.113 185.669 836.988 183.317H878.327C876.905 192.066 873.542 199.667 868.238 206.119C862.934 212.517 855.908 217.493 847.159 221.047C838.465 224.547 828.294 226.297 816.647 226.297ZM957.498 226.297C943.828 226.297 932.126 223.59 922.393 218.176C912.66 212.708 905.196 205.108 900.001 195.375C894.806 185.587 892.209 174.24 892.209 161.336C892.209 148.431 894.806 137.112 900.001 127.379C905.196 117.591 912.66 109.99 922.393 104.577C932.126 99.1086 943.828 96.3746 957.498 96.3746C969.856 96.3746 980.546 98.6165 989.569 103.1C998.646 107.529 1005.67 113.818 1010.65 121.965C1015.62 130.058 1018.14 139.573 1018.19 150.509H976.199C975.598 143.892 973.684 138.862 970.458 135.417C967.286 131.917 963.185 130.167 958.154 130.167C954.217 130.167 950.772 131.316 947.82 133.612C944.867 135.854 942.57 139.272 940.93 143.865C939.289 148.404 938.469 154.118 938.469 161.008C938.469 167.897 939.289 173.639 940.93 178.232C942.57 182.771 944.867 186.188 947.82 188.485C950.772 190.727 954.217 191.848 958.154 191.848C961.49 191.848 964.443 191.082 967.013 189.551C969.583 187.965 971.661 185.669 973.246 182.661C974.887 179.599 975.871 175.881 976.199 171.506H1018.19C1018.03 182.606 1015.49 192.285 1010.57 200.542C1005.64 208.744 998.673 215.087 989.651 219.571C980.683 224.055 969.966 226.297 957.498 226.297ZM1071.98 225.969C1063.94 225.969 1056.83 224.656 1050.65 222.031C1044.53 219.352 1039.72 215.306 1036.22 209.892C1032.72 204.479 1030.97 197.589 1030.97 189.223C1030.97 182.333 1032.14 176.455 1034.5 171.588C1036.85 166.667 1040.13 162.648 1044.34 159.531C1048.55 156.414 1053.44 154.036 1059.02 152.395C1064.65 150.755 1070.72 149.689 1077.23 149.196C1084.28 148.65 1089.94 147.993 1094.21 147.228C1098.53 146.408 1101.64 145.287 1103.56 143.865C1105.47 142.389 1106.43 140.447 1106.43 138.041V137.713C1106.43 134.433 1105.17 131.917 1102.66 130.167C1100.14 128.418 1096.91 127.543 1092.98 127.543C1088.66 127.543 1085.13 128.5 1082.4 130.413C1079.72 132.273 1078.1 135.143 1077.56 139.026H1035.89C1036.44 131.37 1038.87 124.317 1043.19 117.864C1047.56 111.357 1053.94 106.162 1062.3 102.28C1070.67 98.3431 1081.11 96.3746 1093.63 96.3746C1102.66 96.3746 1110.75 97.4409 1117.91 99.5734C1125.08 101.651 1131.17 104.577 1136.2 108.35C1141.23 112.068 1145.06 116.442 1147.69 121.473C1150.36 126.449 1151.7 131.863 1151.7 137.713V224H1109.38V206.283H1108.4C1105.88 210.986 1102.82 214.786 1099.21 217.684C1095.66 220.582 1091.58 222.688 1086.99 224C1082.45 225.312 1077.45 225.969 1071.98 225.969ZM1086.74 197.425C1090.19 197.425 1093.41 196.714 1096.42 195.292C1099.48 193.871 1101.97 191.82 1103.89 189.141C1105.8 186.462 1106.76 183.208 1106.76 179.38V168.882C1105.55 169.374 1104.27 169.838 1102.9 170.276C1101.59 170.713 1100.17 171.123 1098.64 171.506C1097.16 171.889 1095.57 172.244 1093.88 172.573C1092.24 172.901 1090.52 173.201 1088.71 173.475C1085.21 174.022 1082.34 174.924 1080.1 176.181C1077.91 177.384 1076.27 178.888 1075.18 180.693C1074.14 182.442 1073.62 184.411 1073.62 186.598C1073.62 190.098 1074.85 192.777 1077.31 194.636C1079.77 196.495 1082.92 197.425 1086.74 197.425ZM1237.31 224H1172.68V56.02H1236.66C1253.94 56.02 1268.87 59.3829 1281.44 66.1087C1294.07 72.7797 1303.81 82.4036 1310.64 94.9802C1317.53 107.502 1320.98 122.512 1320.98 140.01C1320.98 157.508 1317.56 172.545 1310.72 185.122C1303.89 197.644 1294.21 207.268 1281.69 213.993C1269.17 220.664 1254.37 224 1237.31 224ZM1218.29 185.286H1235.67C1243.99 185.286 1251.07 183.946 1256.92 181.267C1262.82 178.587 1267.31 173.967 1270.37 167.405C1273.49 160.843 1275.04 151.712 1275.04 140.01C1275.04 128.308 1273.46 119.177 1270.29 112.615C1267.17 106.053 1262.58 101.433 1256.51 98.7532C1250.49 96.0738 1243.11 94.7341 1234.36 94.7341H1218.29V185.286ZM1403.1 226.297C1389.65 226.297 1378.06 223.727 1368.32 218.587C1358.64 213.392 1351.18 205.955 1345.93 196.277C1340.74 186.544 1338.14 174.896 1338.14 161.336C1338.14 148.322 1340.76 136.948 1346.01 127.215C1351.26 117.481 1358.67 109.908 1368.24 104.495C1377.81 99.0813 1389.1 96.3746 1402.12 96.3746C1411.63 96.3746 1420.24 97.851 1427.95 100.804C1435.66 103.757 1442.25 108.049 1447.72 113.681C1453.19 119.259 1457.4 126.039 1460.35 134.022C1463.3 142.006 1464.78 151.001 1464.78 161.008V171.506H1352.25V146.572H1423.11C1423.06 142.963 1422.13 139.791 1420.32 137.057C1418.58 134.268 1416.2 132.109 1413.19 130.578C1410.24 128.992 1406.87 128.199 1403.1 128.199C1399.44 128.199 1396.07 128.992 1393.01 130.578C1389.95 132.109 1387.49 134.241 1385.63 136.975C1383.83 139.709 1382.87 142.908 1382.76 146.572V173.475C1382.76 177.521 1383.61 181.13 1385.3 184.302C1387 187.473 1389.43 189.961 1392.6 191.766C1395.77 193.57 1399.6 194.472 1404.08 194.472C1407.2 194.472 1410.04 194.035 1412.61 193.16C1415.24 192.285 1417.48 191.027 1419.34 189.387C1421.2 187.692 1422.57 185.669 1423.44 183.317H1464.78C1463.36 192.066 1460 199.667 1454.69 206.119C1449.39 212.517 1442.36 217.493 1433.61 221.047C1424.92 224.547 1414.75 226.297 1403.1 226.297ZM1607.07 98.015L1564.74 224H1512.25L1469.93 98.015H1517.5L1537.84 181.349H1539.15L1559.49 98.015H1607.07Z" fill="white"/>
<path d="M383.845 334.045H377.545L376.678 337H371.024L377.752 319.099H383.784L390.512 337H384.725L383.845 334.045ZM382.685 330.174L380.707 323.739L378.741 330.174H382.685ZM398.876 319.099H404.664L408.694 331.981L412.662 319.099H418.279L411.636 337H405.641L398.876 319.099ZM420.33 319.099H425.874V337H420.33V319.099ZM429.928 319.099H438.145C439.765 319.099 441.072 319.319 442.065 319.759C443.066 320.198 443.892 320.829 444.544 321.651C445.195 322.474 445.667 323.43 445.96 324.521C446.253 325.612 446.4 326.768 446.4 327.989C446.4 329.902 446.18 331.387 445.74 332.445C445.309 333.496 444.706 334.379 443.933 335.095C443.16 335.803 442.329 336.276 441.442 336.512C440.229 336.837 439.13 337 438.145 337H429.928V319.099ZM435.459 323.153V332.934H436.814C437.97 332.934 438.793 332.808 439.281 332.555C439.769 332.295 440.152 331.847 440.429 331.212C440.705 330.569 440.844 329.531 440.844 328.099C440.844 326.202 440.535 324.903 439.916 324.203C439.297 323.503 438.272 323.153 436.839 323.153H435.459ZM459.257 334.045H452.957L452.09 337H446.436L453.164 319.099H459.196L465.924 337H460.136L459.257 334.045ZM458.097 330.174L456.119 323.739L454.153 330.174H458.097ZM475.094 331.078L480.357 330.748C480.471 331.603 480.703 332.254 481.053 332.702C481.623 333.426 482.437 333.789 483.495 333.789C484.285 333.789 484.891 333.605 485.314 333.239C485.746 332.865 485.962 332.433 485.962 331.945C485.962 331.481 485.758 331.066 485.351 330.699C484.944 330.333 484 329.987 482.518 329.662C480.092 329.116 478.363 328.392 477.329 327.488C476.287 326.584 475.766 325.433 475.766 324.032C475.766 323.113 476.03 322.246 476.559 321.432C477.097 320.609 477.899 319.966 478.965 319.502C480.039 319.03 481.509 318.794 483.373 318.794C485.66 318.794 487.402 319.222 488.599 320.076C489.804 320.923 490.52 322.274 490.748 324.13L485.534 324.435C485.396 323.63 485.103 323.043 484.655 322.677C484.215 322.311 483.605 322.128 482.823 322.128C482.18 322.128 481.696 322.266 481.37 322.543C481.045 322.811 480.882 323.141 480.882 323.532C480.882 323.817 481.016 324.073 481.285 324.301C481.545 324.537 482.164 324.757 483.141 324.96C485.559 325.481 487.288 326.011 488.33 326.548C489.38 327.077 490.142 327.736 490.614 328.526C491.094 329.316 491.334 330.199 491.334 331.176C491.334 332.323 491.017 333.382 490.382 334.35C489.747 335.319 488.859 336.056 487.72 336.56C486.58 337.057 485.143 337.305 483.41 337.305C480.365 337.305 478.257 336.719 477.085 335.547C475.912 334.375 475.249 332.885 475.094 331.078ZM494.118 319.099H508.942V322.921H499.662V325.766H508.27V329.417H499.662V332.946H509.21V337H494.118V319.099ZM520.627 337V319.099H529.846C531.555 319.099 532.862 319.246 533.766 319.539C534.669 319.832 535.398 320.377 535.951 321.175C536.505 321.965 536.782 322.929 536.782 324.069C536.782 325.062 536.57 325.921 536.147 326.646C535.723 327.362 535.141 327.944 534.4 328.392C533.928 328.677 533.281 328.913 532.459 329.1C533.118 329.32 533.599 329.539 533.9 329.759C534.103 329.906 534.396 330.219 534.779 330.699C535.17 331.18 535.43 331.55 535.56 331.811L538.235 337H531.983L529.028 331.53C528.653 330.822 528.32 330.362 528.027 330.15C527.628 329.873 527.176 329.735 526.671 329.735H526.183V337H520.627ZM526.183 326.352H528.515C528.767 326.352 529.256 326.271 529.98 326.108C530.347 326.035 530.644 325.848 530.872 325.547C531.108 325.245 531.226 324.899 531.226 324.509C531.226 323.931 531.043 323.487 530.676 323.178C530.31 322.868 529.622 322.714 528.613 322.714H526.183V326.352ZM540.005 319.099H554.829V322.921H545.549V325.766H554.157V329.417H545.549V332.946H555.097V337H540.005V319.099ZM557.124 331.078L562.387 330.748C562.501 331.603 562.733 332.254 563.083 332.702C563.653 333.426 564.467 333.789 565.525 333.789C566.315 333.789 566.921 333.605 567.344 333.239C567.776 332.865 567.991 332.433 567.991 331.945C567.991 331.481 567.788 331.066 567.381 330.699C566.974 330.333 566.03 329.987 564.548 329.662C562.122 329.116 560.392 328.392 559.359 327.488C558.317 326.584 557.796 325.433 557.796 324.032C557.796 323.113 558.06 322.246 558.589 321.432C559.127 320.609 559.928 319.966 560.995 319.502C562.069 319.03 563.539 318.794 565.403 318.794C567.69 318.794 569.432 319.222 570.629 320.076C571.834 320.923 572.55 322.274 572.778 324.13L567.564 324.435C567.426 323.63 567.133 323.043 566.685 322.677C566.245 322.311 565.635 322.128 564.853 322.128C564.21 322.128 563.726 322.266 563.4 322.543C563.075 322.811 562.912 323.141 562.912 323.532C562.912 323.817 563.046 324.073 563.315 324.301C563.575 324.537 564.194 324.757 565.171 324.96C567.589 325.481 569.318 326.011 570.36 326.548C571.41 327.077 572.172 327.736 572.644 328.526C573.124 329.316 573.364 330.199 573.364 331.176C573.364 332.323 573.047 333.382 572.412 334.35C571.777 335.319 570.889 336.056 569.75 336.56C568.61 337.057 567.173 337.305 565.439 337.305C562.395 337.305 560.287 336.719 559.114 335.547C557.942 334.375 557.279 332.885 557.124 331.078ZM587.809 319.099H593.328V329.771C593.328 330.83 593.161 331.831 592.828 332.775C592.502 333.711 591.985 334.533 591.277 335.242C590.577 335.942 589.84 336.434 589.067 336.719C587.992 337.118 586.702 337.317 585.196 337.317C584.325 337.317 583.373 337.256 582.339 337.134C581.313 337.012 580.454 336.772 579.762 336.414C579.07 336.048 578.435 335.531 577.858 334.863C577.288 334.196 576.897 333.508 576.685 332.8C576.343 331.66 576.172 330.651 576.172 329.771V319.099H581.692V330.028C581.692 331.005 581.96 331.77 582.497 332.323C583.043 332.869 583.796 333.141 584.756 333.141C585.709 333.141 586.454 332.873 586.991 332.336C587.536 331.79 587.809 331.021 587.809 330.028V319.099ZM596.93 319.099H604.208L607.016 329.991L609.812 319.099H617.065V337H612.547V323.349L609.043 337H604.953L601.46 323.349V337H596.93V319.099ZM620.594 319.099H635.418V322.921H626.138V325.766H634.746V329.417H626.138V332.946H635.686V337H620.594V319.099ZM658.044 334.045H651.743L650.876 337H645.223L651.951 319.099H657.983L664.711 337H658.923L658.044 334.045ZM656.884 330.174L654.906 323.739L652.94 330.174H656.884ZM674.882 319.099H680.047L686.787 329.002V319.099H692.001V337H686.787L680.084 327.171V337H674.882V319.099ZM706.69 334.045H700.39L699.523 337H693.869L700.597 319.099H706.629L713.357 337H707.569L706.69 334.045ZM705.53 330.174L703.552 323.739L701.586 330.174H705.53ZM706.043 314.667H707.972C707.98 314.879 707.984 315.062 707.984 315.217C707.984 316.12 707.757 316.82 707.301 317.317C706.845 317.813 706.259 318.062 705.542 318.062C705.021 318.062 704.232 317.846 703.174 317.414C702.53 317.154 702.087 317.024 701.843 317.024C701.607 317.024 701.423 317.097 701.293 317.243C701.163 317.39 701.094 317.65 701.086 318.025H699.181C699.173 317.83 699.169 317.659 699.169 317.512C699.169 316.641 699.409 315.949 699.889 315.436C700.369 314.923 700.939 314.667 701.598 314.667C701.883 314.667 702.152 314.7 702.404 314.765C702.657 314.83 703.121 315.005 703.796 315.29C704.48 315.575 704.977 315.717 705.286 315.717C705.506 315.717 705.681 315.644 705.811 315.497C705.949 315.343 706.027 315.066 706.043 314.667ZM714.444 328.062C714.444 325.14 715.258 322.864 716.886 321.236C718.514 319.608 720.781 318.794 723.687 318.794C726.666 318.794 728.962 319.596 730.574 321.2C732.186 322.795 732.992 325.034 732.992 327.915C732.992 330.007 732.637 331.725 731.929 333.068C731.229 334.403 730.212 335.445 728.877 336.194C727.55 336.935 725.893 337.305 723.907 337.305C721.888 337.305 720.215 336.984 718.888 336.341C717.57 335.698 716.499 334.68 715.677 333.288C714.855 331.896 714.444 330.154 714.444 328.062ZM719.975 328.086C719.975 329.894 720.309 331.192 720.976 331.981C721.652 332.771 722.568 333.166 723.724 333.166C724.912 333.166 725.832 332.779 726.483 332.006C727.135 331.233 727.46 329.845 727.46 327.842C727.46 326.157 727.118 324.928 726.434 324.155C725.759 323.373 724.839 322.982 723.675 322.982C722.56 322.982 721.664 323.377 720.989 324.167C720.313 324.956 719.975 326.263 719.975 328.086ZM743.358 331.078L748.621 330.748C748.735 331.603 748.967 332.254 749.317 332.702C749.887 333.426 750.701 333.789 751.759 333.789C752.549 333.789 753.155 333.605 753.578 333.239C754.01 332.865 754.226 332.433 754.226 331.945C754.226 331.481 754.022 331.066 753.615 330.699C753.208 330.333 752.264 329.987 750.782 329.662C748.356 329.116 746.627 328.392 745.593 327.488C744.551 326.584 744.03 325.433 744.03 324.032C744.03 323.113 744.294 322.246 744.823 321.432C745.361 320.609 746.163 319.966 747.229 319.502C748.303 319.03 749.773 318.794 751.637 318.794C753.924 318.794 755.666 319.222 756.863 320.076C758.068 320.923 758.784 322.274 759.012 324.13L753.798 324.435C753.66 323.63 753.367 323.043 752.919 322.677C752.479 322.311 751.869 322.128 751.087 322.128C750.444 322.128 749.96 322.266 749.634 322.543C749.309 322.811 749.146 323.141 749.146 323.532C749.146 323.817 749.28 324.073 749.549 324.301C749.809 324.537 750.428 324.757 751.405 324.96C753.823 325.481 755.552 326.011 756.594 326.548C757.644 327.077 758.406 327.736 758.878 328.526C759.358 329.316 759.598 330.199 759.598 331.176C759.598 332.323 759.281 333.382 758.646 334.35C758.011 335.319 757.123 336.056 755.984 336.56C754.844 337.057 753.407 337.305 751.674 337.305C748.629 337.305 746.521 336.719 745.348 335.547C744.176 334.375 743.513 332.885 743.358 331.078ZM773.408 334.045H767.108L766.241 337H760.587L767.315 319.099H773.347L780.075 337H774.287L773.408 334.045ZM772.248 330.174L770.27 323.739L768.304 330.174H772.248ZM781.87 319.099H792.224C793.95 319.099 795.273 319.527 796.193 320.382C797.121 321.236 797.585 322.295 797.585 323.556C797.585 324.615 797.255 325.522 796.596 326.279C796.156 326.784 795.513 327.183 794.667 327.476C795.953 327.785 796.897 328.318 797.499 329.075C798.11 329.824 798.415 330.769 798.415 331.908C798.415 332.836 798.199 333.671 797.768 334.411C797.337 335.152 796.746 335.738 795.998 336.17C795.534 336.438 794.833 336.634 793.897 336.756C792.652 336.919 791.826 337 791.419 337H781.87V319.099ZM787.45 326.12H789.856C790.719 326.12 791.317 325.974 791.651 325.681C791.992 325.38 792.163 324.948 792.163 324.387C792.163 323.866 791.992 323.459 791.651 323.166C791.317 322.872 790.731 322.726 789.892 322.726H787.45V326.12ZM787.45 333.154H790.271C791.223 333.154 791.895 332.987 792.286 332.653C792.676 332.311 792.872 331.855 792.872 331.286C792.872 330.756 792.676 330.333 792.286 330.016C791.903 329.69 791.227 329.527 790.259 329.527H787.45V333.154ZM801.309 319.099H816.133V322.921H806.853V325.766H815.461V329.417H806.853V332.946H816.401V337H801.309V319.099ZM819.466 337V319.099H828.685C830.394 319.099 831.701 319.246 832.604 319.539C833.508 319.832 834.237 320.377 834.79 321.175C835.344 321.965 835.62 322.929 835.62 324.069C835.62 325.062 835.409 325.921 834.986 326.646C834.562 327.362 833.98 327.944 833.239 328.392C832.767 328.677 832.12 328.913 831.298 329.1C831.957 329.32 832.438 329.539 832.739 329.759C832.942 329.906 833.235 330.219 833.618 330.699C834.009 331.18 834.269 331.55 834.399 331.811L837.074 337H830.822L827.867 331.53C827.492 330.822 827.159 330.362 826.866 330.15C826.467 329.873 826.015 329.735 825.51 329.735H825.022V337H819.466ZM825.022 326.352H827.354C827.606 326.352 828.095 326.271 828.819 326.108C829.186 326.035 829.483 325.848 829.711 325.547C829.947 325.245 830.065 324.899 830.065 324.509C830.065 323.931 829.882 323.487 829.515 323.178C829.149 322.868 828.461 322.714 827.452 322.714H825.022V326.352ZM847.245 319.099H852.41L859.15 329.002V319.099H864.364V337H859.15L852.447 327.171V337H847.245V319.099ZM878.809 334.045H872.508L871.641 337H865.988L872.716 319.099H878.748L885.476 337H879.688L878.809 334.045ZM877.649 330.174L875.671 323.739L873.705 330.174H877.649ZM887.332 319.099H895.549C897.169 319.099 898.476 319.319 899.469 319.759C900.47 320.198 901.296 320.829 901.948 321.651C902.599 322.474 903.071 323.43 903.364 324.521C903.657 325.612 903.804 326.768 903.804 327.989C903.804 329.902 903.584 331.387 903.144 332.445C902.713 333.496 902.111 334.379 901.337 335.095C900.564 335.803 899.734 336.276 898.846 336.512C897.633 336.837 896.534 337 895.549 337H887.332V319.099ZM892.863 323.153V332.934H894.218C895.374 332.934 896.197 332.808 896.685 332.555C897.173 332.295 897.556 331.847 897.833 331.212C898.11 330.569 898.248 329.531 898.248 328.099C898.248 326.202 897.939 324.903 897.32 324.203C896.701 323.503 895.676 323.153 894.243 323.153H892.863ZM916.661 334.045H910.361L909.494 337H903.84L910.568 319.099H916.6L923.328 337H917.54L916.661 334.045ZM915.501 330.174L913.523 323.739L911.557 330.174H915.501ZM933.451 319.099H948.274V322.921H938.994V325.766H947.603V329.417H938.994V332.946H948.543V337H933.451V319.099ZM970.9 334.045H964.6L963.733 337H958.079L964.807 319.099H970.839L977.567 337H971.779L970.9 334.045ZM969.74 330.174L967.762 323.739L965.796 330.174H969.74ZM987.885 330.516V326.792H996.432V334.424C994.796 335.539 993.347 336.3 992.085 336.707C990.832 337.106 989.342 337.305 987.616 337.305C985.492 337.305 983.758 336.943 982.415 336.219C981.08 335.494 980.042 334.415 979.301 332.983C978.568 331.55 978.202 329.906 978.202 328.05C978.202 326.096 978.605 324.399 979.411 322.958C980.217 321.509 981.397 320.41 982.952 319.661C984.165 319.083 985.797 318.794 987.848 318.794C989.826 318.794 991.304 318.973 992.281 319.331C993.266 319.69 994.08 320.247 994.723 321.004C995.374 321.753 995.863 322.706 996.188 323.862L990.852 324.814C990.632 324.138 990.258 323.621 989.729 323.263C989.208 322.905 988.54 322.726 987.726 322.726C986.513 322.726 985.545 323.149 984.82 323.996C984.104 324.834 983.746 326.165 983.746 327.989C983.746 329.926 984.108 331.31 984.832 332.14C985.565 332.971 986.583 333.386 987.885 333.386C988.504 333.386 989.094 333.296 989.656 333.117C990.217 332.938 990.86 332.633 991.585 332.201V330.516H987.885ZM999.937 319.099H1005.48V337H999.937V319.099ZM1009.53 337V319.099H1018.75C1020.46 319.099 1021.77 319.246 1022.67 319.539C1023.58 319.832 1024.3 320.377 1024.86 321.175C1025.41 321.965 1025.69 322.929 1025.69 324.069C1025.69 325.062 1025.48 325.921 1025.05 326.646C1024.63 327.362 1024.05 327.944 1023.31 328.392C1022.84 328.677 1022.19 328.913 1021.37 329.1C1022.03 329.32 1022.51 329.539 1022.81 329.759C1023.01 329.906 1023.3 330.219 1023.69 330.699C1024.08 331.18 1024.34 331.55 1024.47 331.811L1027.14 337H1020.89L1017.93 331.53C1017.56 330.822 1017.23 330.362 1016.93 330.15C1016.53 329.873 1016.08 329.735 1015.58 329.735H1015.09V337H1009.53ZM1015.09 326.352H1017.42C1017.67 326.352 1018.16 326.271 1018.89 326.108C1019.25 326.035 1019.55 325.848 1019.78 325.547C1020.01 325.245 1020.13 324.899 1020.13 324.509C1020.13 323.931 1019.95 323.487 1019.58 323.178C1019.22 322.868 1018.53 322.714 1017.52 322.714H1015.09V326.352ZM1037.22 319.099H1044.49L1047.3 329.991L1050.1 319.099H1057.35V337H1052.83V323.349L1049.33 337H1045.24L1041.75 323.349V337H1037.22V319.099ZM1060.88 319.099H1075.7V322.921H1066.42V325.766H1075.03V329.417H1066.42V332.946H1075.97V337H1060.88V319.099ZM1078 331.078L1083.26 330.748C1083.37 331.603 1083.61 332.254 1083.96 332.702C1084.53 333.426 1085.34 333.789 1086.4 333.789C1087.19 333.789 1087.8 333.605 1088.22 333.239C1088.65 332.865 1088.87 332.433 1088.87 331.945C1088.87 331.481 1088.66 331.066 1088.26 330.699C1087.85 330.333 1086.9 329.987 1085.42 329.662C1083 329.116 1081.27 328.392 1080.23 327.488C1079.19 326.584 1078.67 325.433 1078.67 324.032C1078.67 323.113 1078.93 322.246 1079.46 321.432C1080 320.609 1080.8 319.966 1081.87 319.502C1082.94 319.03 1084.41 318.794 1086.28 318.794C1088.56 318.794 1090.31 319.222 1091.5 320.076C1092.71 320.923 1093.42 322.274 1093.65 324.13L1088.44 324.435C1088.3 323.63 1088.01 323.043 1087.56 322.677C1087.12 322.311 1086.51 322.128 1085.73 322.128C1085.08 322.128 1084.6 322.266 1084.27 322.543C1083.95 322.811 1083.79 323.141 1083.79 323.532C1083.79 323.817 1083.92 324.073 1084.19 324.301C1084.45 324.537 1085.07 324.757 1086.04 324.96C1088.46 325.481 1090.19 326.011 1091.23 326.548C1092.28 327.077 1093.05 327.736 1093.52 328.526C1094 329.316 1094.24 330.199 1094.24 331.176C1094.24 332.323 1093.92 333.382 1093.29 334.35C1092.65 335.319 1091.76 336.056 1090.62 336.56C1089.48 337.057 1088.05 337.305 1086.31 337.305C1083.27 337.305 1081.16 336.719 1079.99 335.547C1078.82 334.375 1078.15 332.885 1078 331.078ZM1096.97 319.099H1104.25L1107.06 329.991L1109.86 319.099H1117.11V337H1112.59V323.349L1109.09 337H1105L1101.5 323.349V337H1096.97V319.099ZM1119.95 328.062C1119.95 325.14 1120.77 322.864 1122.4 321.236C1124.02 319.608 1126.29 318.794 1129.2 318.794C1132.18 318.794 1134.47 319.596 1136.08 321.2C1137.7 322.795 1138.5 325.034 1138.5 327.915C1138.5 330.007 1138.15 331.725 1137.44 333.068C1136.74 334.403 1135.72 335.445 1134.39 336.194C1133.06 336.935 1131.4 337.305 1129.42 337.305C1127.4 337.305 1125.72 336.984 1124.4 336.341C1123.08 335.698 1122.01 334.68 1121.19 333.288C1120.36 331.896 1119.95 330.154 1119.95 328.062ZM1125.48 328.086C1125.48 329.894 1125.82 331.192 1126.49 331.981C1127.16 332.771 1128.08 333.166 1129.23 333.166C1130.42 333.166 1131.34 332.779 1131.99 332.006C1132.64 331.233 1132.97 329.845 1132.97 327.842C1132.97 326.157 1132.63 324.928 1131.94 324.155C1131.27 323.373 1130.35 322.982 1129.18 322.982C1128.07 322.982 1127.17 323.377 1126.5 324.167C1125.82 324.956 1125.48 326.263 1125.48 328.086ZM1160.85 334.045H1154.55L1153.68 337H1148.03L1154.75 319.099H1160.79L1167.51 337H1161.73L1160.85 334.045ZM1159.69 330.174L1157.71 323.739L1155.74 330.174H1159.69ZM1168.33 331.078L1173.59 330.748C1173.71 331.603 1173.94 332.254 1174.29 332.702C1174.86 333.426 1175.67 333.789 1176.73 333.789C1177.52 333.789 1178.13 333.605 1178.55 333.239C1178.98 332.865 1179.2 332.433 1179.2 331.945C1179.2 331.481 1179 331.066 1178.59 330.699C1178.18 330.333 1177.24 329.987 1175.76 329.662C1173.33 329.116 1171.6 328.392 1170.57 327.488C1169.52 326.584 1169 325.433 1169 324.032C1169 323.113 1169.27 322.246 1169.8 321.432C1170.33 320.609 1171.14 319.966 1172.2 319.502C1173.28 319.03 1174.75 318.794 1176.61 318.794C1178.9 318.794 1180.64 319.222 1181.84 320.076C1183.04 320.923 1183.76 322.274 1183.99 324.13L1178.77 324.435C1178.63 323.63 1178.34 323.043 1177.89 322.677C1177.45 322.311 1176.84 322.128 1176.06 322.128C1175.42 322.128 1174.93 322.266 1174.61 322.543C1174.28 322.811 1174.12 323.141 1174.12 323.532C1174.12 323.817 1174.25 324.073 1174.52 324.301C1174.78 324.537 1175.4 324.757 1176.38 324.96C1178.8 325.481 1180.53 326.011 1181.57 326.548C1182.62 327.077 1183.38 327.736 1183.85 328.526C1184.33 329.316 1184.57 330.199 1184.57 331.176C1184.57 332.323 1184.25 333.382 1183.62 334.35C1182.98 335.319 1182.1 336.056 1180.96 336.56C1179.82 337.057 1178.38 337.305 1176.65 337.305C1173.6 337.305 1171.49 336.719 1170.32 335.547C1169.15 334.375 1168.49 332.885 1168.33 331.078ZM1186.4 331.078L1191.67 330.748C1191.78 331.603 1192.01 332.254 1192.36 332.702C1192.93 333.426 1193.75 333.789 1194.8 333.789C1195.59 333.789 1196.2 333.605 1196.62 333.239C1197.05 332.865 1197.27 332.433 1197.27 331.945C1197.27 331.481 1197.07 331.066 1196.66 330.699C1196.25 330.333 1195.31 329.987 1193.83 329.662C1191.4 329.116 1189.67 328.392 1188.64 327.488C1187.6 326.584 1187.07 325.433 1187.07 324.032C1187.07 323.113 1187.34 322.246 1187.87 321.432C1188.41 320.609 1189.21 319.966 1190.27 319.502C1191.35 319.03 1192.82 318.794 1194.68 318.794C1196.97 318.794 1198.71 319.222 1199.91 320.076C1201.11 320.923 1201.83 322.274 1202.06 324.13L1196.84 324.435C1196.7 323.63 1196.41 323.043 1195.96 322.677C1195.52 322.311 1194.91 322.128 1194.13 322.128C1193.49 322.128 1193 322.266 1192.68 322.543C1192.35 322.811 1192.19 323.141 1192.19 323.532C1192.19 323.817 1192.32 324.073 1192.59 324.301C1192.85 324.537 1193.47 324.757 1194.45 324.96C1196.87 325.481 1198.6 326.011 1199.64 326.548C1200.69 327.077 1201.45 327.736 1201.92 328.526C1202.4 329.316 1202.64 330.199 1202.64 331.176C1202.64 332.323 1202.33 333.382 1201.69 334.35C1201.06 335.319 1200.17 336.056 1199.03 336.56C1197.89 337.057 1196.45 337.305 1194.72 337.305C1191.67 337.305 1189.57 336.719 1188.39 335.547C1187.22 334.375 1186.56 332.885 1186.4 331.078ZM1205.66 319.099H1211.2V337H1205.66V319.099ZM1215.12 319.099H1222.4L1225.21 329.991L1228 319.099H1235.26V337H1230.74V323.349L1227.23 337H1223.14L1219.65 323.349V337H1215.12V319.099Z" fill="white"/>
</svg>
