<svg width="65" height="52" viewBox="0 0 65 52" fill="none" xmlns="http://www.w3.org/2000/svg">
<g clip-path="url(#clip0_620_276)">
<path d="M32.4994 51.172C50.4484 51.172 64.9989 49.6714 64.9989 47.8204C64.9989 45.9693 50.4484 44.4688 32.4994 44.4688C14.5505 44.4688 0 45.9693 0 47.8204C0 49.6714 14.5505 51.172 32.4994 51.172Z" fill="#EEF2F5"/>
<path d="M31.3359 12.89L31.3359 44.8158C31.3359 46.665 32.835 48.1641 34.6842 48.1641H48.1085C49.9577 48.1641 51.4568 46.665 51.4568 44.8158V12.89C51.4568 11.0408 49.9577 9.54175 48.1085 9.54175H34.6842C32.835 9.54175 31.3359 11.0408 31.3359 12.89Z" fill="#5252EE"/>
<path d="M30.3672 12.89L30.3672 44.8158C30.3672 46.665 31.8663 48.1641 33.7155 48.1641H47.1398C48.989 48.1641 50.4881 46.665 50.4881 44.8158V12.89C50.4881 11.0408 48.989 9.54175 47.1398 9.54175H33.7155C31.8663 9.54175 30.3672 11.0408 30.3672 12.89Z" fill="#7F7FF0"/>
<path d="M28.7656 46.8667V10.8281H45.7414C46.5755 10.8281 47.3755 11.1595 47.9653 11.7493C48.5551 12.3391 48.8865 13.1391 48.8865 13.9733V43.7215C48.8865 44.1346 48.8052 44.5436 48.6471 44.9251C48.489 45.3067 48.2574 45.6534 47.9653 45.9455C47.6733 46.2376 47.3265 46.4692 46.945 46.6273C46.5634 46.7853 46.1544 46.8667 45.7414 46.8667H28.7656Z" fill="white"/>
<path d="M23.1016 48.1636V9.54688H39.9668C40.8285 9.54687 41.6551 9.88849 42.2653 10.4969C42.8756 11.1053 43.2198 11.9308 43.2224 12.7925V44.908C43.2224 45.7714 42.8794 46.5995 42.2689 47.2101C41.6583 47.8206 40.8303 48.1636 39.9668 48.1636H23.1016Z" fill="#5252EE"/>
<path d="M14.7188 13.3298L14.7188 44.3761C14.7188 46.4681 16.4147 48.1641 18.5068 48.1641H38.17C40.2621 48.1641 41.9581 46.4681 41.9581 44.3761V13.3298C41.9581 11.2377 40.2621 9.54175 38.17 9.54175H18.5068C16.4147 9.54175 14.7188 11.2377 14.7188 13.3298Z" fill="#7F7FF0"/>
<path d="M14.7188 44.3722V13.3271C14.7188 12.3224 15.1178 11.3589 15.8282 10.6485C16.5386 9.93816 17.5021 9.53906 18.5068 9.53906H19.0715V48.1558H18.5056C17.502 48.1555 16.5394 47.7569 15.8294 47.0475C15.1194 46.3381 14.7199 45.3759 14.7188 44.3722Z" fill="#FFCB2C"/>
<g opacity="0.2">
<path d="M16.5871 43.2523C17.3169 43.2523 17.9085 42.6606 17.9085 41.9308C17.9085 41.201 17.3169 40.6094 16.5871 40.6094C15.8573 40.6094 15.2656 41.201 15.2656 41.9308C15.2656 42.6606 15.8573 43.2523 16.5871 43.2523Z" fill="black"/>
<path d="M16.5871 38.1038C17.3169 38.1038 17.9085 37.5122 17.9085 36.7824C17.9085 36.0526 17.3169 35.4609 16.5871 35.4609C15.8573 35.4609 15.2656 36.0526 15.2656 36.7824C15.2656 37.5122 15.8573 38.1038 16.5871 38.1038Z" fill="black"/>
<path d="M16.5871 32.9476C17.3169 32.9476 17.9085 32.356 17.9085 31.6261C17.9085 30.8963 17.3169 30.3047 16.5871 30.3047C15.8573 30.3047 15.2656 30.8963 15.2656 31.6261C15.2656 32.356 15.8573 32.9476 16.5871 32.9476Z" fill="black"/>
<path d="M16.5871 27.7913C17.3169 27.7913 17.9085 27.1997 17.9085 26.4699C17.9085 25.7401 17.3169 25.1484 16.5871 25.1484C15.8573 25.1484 15.2656 25.7401 15.2656 26.4699C15.2656 27.1997 15.8573 27.7913 16.5871 27.7913Z" fill="black"/>
<path d="M16.5871 22.6351C17.3169 22.6351 17.9085 22.0435 17.9085 21.3136C17.9085 20.5838 17.3169 19.9922 16.5871 19.9922C15.8573 19.9922 15.2656 20.5838 15.2656 21.3136C15.2656 22.0435 15.8573 22.6351 16.5871 22.6351Z" fill="black"/>
<path d="M16.5871 17.4788C17.3169 17.4788 17.9085 16.8872 17.9085 16.1574C17.9085 15.4276 17.3169 14.8359 16.5871 14.8359C15.8573 14.8359 15.2656 15.4276 15.2656 16.1574C15.2656 16.8872 15.8573 17.4788 16.5871 17.4788Z" fill="black"/>
</g>
<path d="M13.6172 41.7723V42.0993C13.6172 42.3767 13.842 42.6016 14.1194 42.6016H16.1775C16.4549 42.6016 16.6797 42.3767 16.6797 42.0993V41.7723C16.6797 41.4949 16.4549 41.2701 16.1775 41.2701H14.1194C13.842 41.2701 13.6172 41.4949 13.6172 41.7723Z" fill="#363636"/>
<path d="M13.6172 36.6161V36.9431C13.6172 37.2205 13.842 37.4453 14.1194 37.4453H16.1775C16.4549 37.4453 16.6797 37.2205 16.6797 36.9431V36.6161C16.6797 36.3387 16.4549 36.1138 16.1775 36.1138H14.1194C13.842 36.1138 13.6172 36.3387 13.6172 36.6161Z" fill="#363636"/>
<path d="M13.6172 31.4598V31.7868C13.6172 32.0642 13.842 32.2891 14.1194 32.2891H16.1775C16.4549 32.2891 16.6797 32.0642 16.6797 31.7868V31.4598C16.6797 31.1824 16.4549 30.9576 16.1775 30.9576H14.1194C13.842 30.9576 13.6172 31.1824 13.6172 31.4598Z" fill="#363636"/>
<path d="M13.6172 26.3036V26.6306C13.6172 26.908 13.842 27.1328 14.1194 27.1328H16.1775C16.4549 27.1328 16.6797 26.908 16.6797 26.6306V26.3036C16.6797 26.0262 16.4549 25.8013 16.1775 25.8013H14.1194C13.842 25.8013 13.6172 26.0262 13.6172 26.3036Z" fill="#363636"/>
<path d="M13.6172 21.1473V21.4743C13.6172 21.7517 13.842 21.9766 14.1194 21.9766H16.1775C16.4549 21.9766 16.6797 21.7517 16.6797 21.4743V21.1473C16.6797 20.8699 16.4549 20.6451 16.1775 20.6451H14.1194C13.842 20.6451 13.6172 20.8699 13.6172 21.1473Z" fill="#363636"/>
<path d="M13.6172 15.9911V16.3181C13.6172 16.5955 13.842 16.8203 14.1194 16.8203H16.1775C16.4549 16.8203 16.6797 16.5955 16.6797 16.3181V15.9911C16.6797 15.7137 16.4549 15.4888 16.1775 15.4888H14.1194C13.842 15.4888 13.6172 15.7137 13.6172 15.9911Z" fill="#363636"/>
<path opacity="0.1" d="M44.2031 10.8281H44.4788V31.9557H44.2031V10.8281ZM44.2031 36.8464H44.4788V46.9549H44.2031V36.8464ZM45.9264 24.796H46.202V46.8667H45.9264V24.796ZM47.7188 25.988H47.4431V11.3304L47.7188 11.5301V25.988ZM47.4431 32.5405H47.7188V37.6288H47.4431V32.5405ZM45.9264 14.3483H46.202V19.4365H45.9264V14.3483Z" fill="black"/>
<path d="M26.5552 30.2474C26.4818 30.2475 26.4092 30.2332 26.3414 30.2052C26.2736 30.1773 26.212 30.1362 26.1601 30.0844L23.6478 27.5688C23.5431 27.4641 23.4844 27.3222 23.4844 27.1742C23.4844 27.0262 23.5431 26.8843 23.6478 26.7797L26.1601 24.2674C26.2653 24.1657 26.4063 24.1095 26.5526 24.1107C26.6989 24.112 26.8389 24.1707 26.9424 24.2742C27.0458 24.3776 27.1045 24.5176 27.1058 24.6639C27.1071 24.8102 27.0508 24.9512 26.9492 25.0564L24.8286 27.177L26.9492 29.2976C27.0274 29.3756 27.0807 29.4752 27.1023 29.5835C27.1239 29.6919 27.1129 29.8043 27.0706 29.9064C27.0283 30.0085 26.9566 30.0957 26.8646 30.157C26.7727 30.2183 26.6646 30.2509 26.5541 30.2507L26.5552 30.2474ZM33.7897 30.2474C33.6792 30.2476 33.5711 30.215 33.4791 30.1536C33.3872 30.0923 33.3155 30.0051 33.2732 29.903C33.2308 29.8009 33.2198 29.6886 33.2414 29.5802C33.263 29.4718 33.3163 29.3723 33.3946 29.2942L35.5152 27.1737L33.3946 25.0531C33.2929 24.9478 33.2367 24.8069 33.238 24.6606C33.2392 24.5142 33.2979 24.3743 33.4014 24.2708C33.5048 24.1673 33.6448 24.1087 33.7911 24.1074C33.9374 24.1061 34.0784 24.1624 34.1837 24.264L36.696 26.7763C36.8006 26.881 36.8594 27.0229 36.8594 27.1709C36.8594 27.3188 36.8006 27.4608 36.696 27.5654L34.1837 30.0777C34.1324 30.1306 34.0712 30.1728 34.0036 30.2019C33.936 30.231 33.8633 30.2465 33.7897 30.2474ZM29.149 31.907C29.0636 31.9071 28.9793 31.8875 28.9026 31.8499C28.826 31.8123 28.759 31.7576 28.7068 31.69C28.6546 31.6224 28.6186 31.5437 28.6016 31.46C28.5847 31.3763 28.5871 31.2898 28.6088 31.2072L30.8097 22.8533C30.8475 22.7102 30.9405 22.5879 31.0684 22.5134C31.1963 22.4389 31.3485 22.4182 31.4916 22.4559C31.6348 22.4937 31.757 22.5867 31.8315 22.7146C31.9061 22.8425 31.9267 22.9948 31.889 23.1379L29.6858 31.4907C29.6546 31.6095 29.5851 31.7147 29.488 31.79C29.391 31.8652 29.2718 31.9064 29.149 31.907Z" fill="white"/>
<path d="M10.346 20.8141L10.904 22.2762C10.9155 22.3108 10.9341 22.3426 10.9587 22.3696C10.9834 22.3965 11.0134 22.4179 11.0469 22.4324L12.5089 22.9905C12.5581 23.0091 12.6005 23.0422 12.6304 23.0855C12.6603 23.1287 12.6763 23.1801 12.6763 23.2327C12.6763 23.2852 12.6603 23.3366 12.6304 23.3799C12.6005 23.4231 12.5581 23.4563 12.5089 23.4749L11.0469 24.0329C11.0125 24.0459 10.9813 24.066 10.9553 24.092C10.9293 24.118 10.9092 24.1492 10.8962 24.1836L10.3381 25.6457C10.3195 25.6948 10.2864 25.7372 10.2431 25.7671C10.1999 25.797 10.1485 25.813 10.096 25.813C10.0434 25.813 9.99203 25.797 9.94876 25.7671C9.9055 25.7372 9.87236 25.6948 9.85376 25.6457L9.29571 24.1836C9.28273 24.1492 9.26257 24.118 9.2366 24.092C9.21062 24.066 9.17941 24.0459 9.14504 24.0329L7.68296 23.4749C7.63378 23.4563 7.59142 23.4231 7.56153 23.3799C7.53164 23.3366 7.51563 23.2852 7.51562 23.2327C7.51563 23.1801 7.53164 23.1287 7.56153 23.0855C7.59142 23.0422 7.63378 23.0091 7.68296 22.9905L9.14504 22.4324C9.17941 22.4194 9.21062 22.3993 9.2366 22.3733C9.26257 22.3473 9.28273 22.3161 9.29571 22.2818L9.85376 20.8197C9.87014 20.7676 9.90256 20.722 9.9464 20.6895C9.99023 20.6569 10.0432 20.639 10.0978 20.6384C10.1524 20.6378 10.2058 20.6545 10.2504 20.686C10.295 20.7176 10.3284 20.7624 10.346 20.8141ZM53.4672 29.6747L54.0677 31.2618C54.0818 31.2993 54.1037 31.3333 54.132 31.3616C54.1603 31.3899 54.1943 31.4118 54.2318 31.4259L55.8188 32.0308C55.8725 32.0509 55.9187 32.0869 55.9513 32.1339C55.984 32.181 56.0015 32.2369 56.0015 32.2942C56.0015 32.3515 55.984 32.4074 55.9513 32.4545C55.9187 32.5015 55.8725 32.5375 55.8188 32.5576L54.2318 33.1581C54.1943 33.1722 54.1603 33.1941 54.132 33.2224C54.1037 33.2507 54.0818 33.2847 54.0677 33.3221L53.4672 34.9092C53.4471 34.9628 53.4112 35.0091 53.3641 35.0417C53.317 35.0743 53.2611 35.0918 53.2038 35.0918C53.1466 35.0918 53.0906 35.0743 53.0436 35.0417C52.9965 35.0091 52.9605 34.9628 52.9404 34.9092L52.3422 33.3165C52.3281 33.2791 52.3062 33.2451 52.2779 33.2168C52.2496 33.1885 52.2156 33.1666 52.1781 33.1525L50.5911 32.552C50.5374 32.5319 50.4912 32.496 50.4586 32.4489C50.4259 32.4018 50.4084 32.3459 50.4084 32.2886C50.4084 32.2313 50.4259 32.1754 50.4586 32.1284C50.4912 32.0813 50.5374 32.0453 50.5911 32.0252L52.1781 31.4248C52.2156 31.4107 52.2496 31.3887 52.2779 31.3604C52.3062 31.3322 52.3281 31.2981 52.3422 31.2607L52.9427 29.6736C52.9633 29.6208 52.9994 29.5753 53.0463 29.5434C53.0931 29.5114 53.1486 29.4944 53.2053 29.4945C53.2621 29.4946 53.3175 29.5119 53.3642 29.5441C53.4109 29.5762 53.4469 29.6218 53.4672 29.6747ZM28.8083 2.00797L29.4411 3.68211C29.456 3.72158 29.4792 3.75742 29.509 3.78725C29.5388 3.81708 29.5747 3.84021 29.6141 3.8551L31.2883 4.48792C31.3456 4.50874 31.395 4.54669 31.43 4.59661C31.465 4.64652 31.4837 4.706 31.4837 4.76695C31.4837 4.82789 31.465 4.88737 31.43 4.93728C31.395 4.9872 31.3456 5.02515 31.2883 5.04597L29.6141 5.67879C29.5747 5.69368 29.5388 5.71681 29.509 5.74664C29.4792 5.77647 29.456 5.81231 29.4411 5.85179L28.8083 7.52592C28.7875 7.5832 28.7496 7.63269 28.6996 7.66766C28.6497 7.70263 28.5903 7.72139 28.5293 7.72139C28.4684 7.72139 28.4089 7.70263 28.359 7.66766C28.309 7.63269 28.2711 7.5832 28.2503 7.52592L27.6175 5.85179C27.6026 5.81231 27.5794 5.77647 27.5496 5.74664C27.5198 5.71681 27.4839 5.69368 27.4445 5.67879L25.7703 5.04597C25.713 5.02515 25.6636 4.9872 25.6286 4.93728C25.5936 4.88737 25.5749 4.82789 25.5749 4.76695C25.5749 4.706 25.5936 4.64652 25.6286 4.59661C25.6636 4.54669 25.713 4.50874 25.7703 4.48792L27.4445 3.8551C27.4839 3.84021 27.5198 3.81708 27.5496 3.78725C27.5794 3.75742 27.6026 3.72158 27.6175 3.68211L28.2503 2.00797C28.2711 1.95069 28.309 1.9012 28.359 1.86623C28.4089 1.83126 28.4684 1.8125 28.5293 1.8125C28.5903 1.8125 28.6497 1.83126 28.6996 1.86623C28.7496 1.9012 28.7875 1.95069 28.8083 2.00797ZM23.2625 40.4986L23.8953 42.1727C23.9102 42.2122 23.9333 42.248 23.9631 42.2779C23.993 42.3077 24.0288 42.3308 24.0683 42.3457L25.7424 42.9785C25.7997 42.9994 25.8492 43.0373 25.8842 43.0872C25.9191 43.1371 25.9379 43.1966 25.9379 43.2576C25.9379 43.3185 25.9191 43.378 25.8842 43.4279C25.8492 43.4778 25.7997 43.5158 25.7424 43.5366L24.0683 44.1694C24.0288 44.1843 23.993 44.2074 23.9631 44.2373C23.9333 44.2671 23.9102 44.3029 23.8953 44.3424L23.2625 46.0165C23.2417 46.0738 23.2037 46.1233 23.1538 46.1583C23.1039 46.1932 23.0444 46.212 22.9834 46.212C22.9225 46.212 22.863 46.1932 22.8131 46.1583C22.7632 46.1233 22.7252 46.0738 22.7044 46.0165L22.0716 44.3424C22.0567 44.3029 22.0336 44.2671 22.0038 44.2373C21.9739 44.2074 21.9381 44.1843 21.8986 44.1694L20.2245 43.5366C20.1672 43.5158 20.1177 43.4778 20.0827 43.4279C20.0478 43.378 20.029 43.3185 20.029 43.2576C20.029 43.1966 20.0478 43.1371 20.0827 43.0872C20.1177 43.0373 20.1672 42.9994 20.2245 42.9785L21.8986 42.3457C21.9381 42.3308 21.9739 42.3077 22.0038 42.2779C22.0336 42.248 22.0567 42.2122 22.0716 42.1727L22.7044 40.4986C22.7252 40.4413 22.7632 40.3918 22.8131 40.3568C22.863 40.3219 22.9225 40.3031 22.9834 40.3031C23.0444 40.3031 23.1039 40.3219 23.1538 40.3568C23.2037 40.3918 23.2417 40.4413 23.2625 40.4986Z" fill="#FFE400"/>
<path d="M63.5373 21.6673L57.062 17.8652C56.4539 17.5082 55.6715 17.7117 55.3144 18.3198L53.245 21.8443C52.8879 22.4524 53.0914 23.2347 53.6995 23.5918L60.1749 27.3939C60.783 27.7509 61.5654 27.5474 61.9224 26.9393L63.9919 23.4149C64.3489 22.8068 64.1454 22.0244 63.5373 21.6673Z" fill="#FF4585"/>
<path d="M56.42 27.0813C56.3523 27.1085 56.2793 27.1199 56.2066 27.1144C56.1339 27.109 56.0633 27.0869 56.0005 27.0499C55.9376 27.013 55.8841 26.962 55.844 26.9011C55.8039 26.8402 55.7784 26.7709 55.7693 26.6985L55.603 25.3737L55.4802 24.3949C55.4692 24.3066 55.4831 24.217 55.5204 24.1362C55.5577 24.0554 55.6169 23.9867 55.6912 23.9378C55.7656 23.8889 55.8521 23.8618 55.9411 23.8595C56.03 23.8573 56.1178 23.88 56.1945 23.925L57.4155 24.6416L58.6365 25.3581C58.7133 25.4031 58.7758 25.4688 58.8172 25.5476C58.8585 25.6264 58.877 25.7151 58.8705 25.8039C58.864 25.8926 58.8328 25.9778 58.7804 26.0497C58.728 26.1216 58.6565 26.1774 58.574 26.2108L57.66 26.5802L56.42 27.0813Z" fill="#FF4585"/>
<path d="M57.1426 22.0456C57.3221 21.7378 57.218 21.3428 56.9102 21.1634C56.6024 20.984 56.2074 21.088 56.028 21.3958C55.8486 21.7036 55.9526 22.0986 56.2604 22.278C56.5682 22.4574 56.9632 22.3534 57.1426 22.0456Z" fill="white"/>
<path d="M59.0489 23.1628C59.2283 22.855 59.1243 22.46 58.8165 22.2806C58.5087 22.1011 58.1137 22.2052 57.9343 22.513C57.7548 22.8208 57.8589 23.2158 58.1667 23.3952C58.4745 23.5746 58.8695 23.4706 59.0489 23.1628Z" fill="white"/>
<path d="M60.9708 24.28C61.1502 23.9722 61.0461 23.5772 60.7383 23.3978C60.4305 23.2183 60.0356 23.3224 59.8561 23.6302C59.6767 23.938 59.7808 24.333 60.0886 24.5124C60.3964 24.6918 60.7913 24.5878 60.9708 24.28Z" fill="white"/>
<path d="M14.4975 0.105413L7.94296 3.03326C7.32725 3.30829 7.05108 4.03038 7.32611 4.64608L8.91977 8.21376C9.1948 8.82946 9.91689 9.10563 10.5326 8.8306L17.0871 5.90275C17.7028 5.62772 17.979 4.90564 17.7039 4.28993L16.1103 0.722258C15.8352 0.106552 15.1132 -0.169619 14.4975 0.105413Z" fill="#00E5A0"/>
<path d="M14.7487 8.64897C14.7325 8.71674 14.7008 8.77986 14.6563 8.83348C14.6118 8.8871 14.5556 8.92979 14.492 8.95825C14.4283 8.98672 14.359 9.0002 14.2894 8.99766C14.2198 8.99513 14.1516 8.97664 14.0902 8.94362L12.9675 8.33758L12.1382 7.89115C12.0632 7.85084 12.001 7.79032 11.9587 7.71646C11.9164 7.64259 11.8956 7.55834 11.8987 7.47327C11.9019 7.3882 11.9288 7.30571 11.9765 7.23516C12.0241 7.16462 12.0906 7.10884 12.1683 7.07417L13.4039 6.52171L14.6394 5.96924C14.717 5.93457 14.8028 5.92234 14.8871 5.93394C14.9714 5.94554 15.0507 5.98051 15.1161 6.03487C15.1815 6.08924 15.2304 6.16084 15.2572 6.24156C15.284 6.32227 15.2876 6.40888 15.2677 6.49157L15.0445 7.40788L14.7487 8.64897Z" fill="#00E5A0"/>
<path d="M12.9375 5.9543L11.0312 5.36501L11.3002 4.49111L12.3795 4.82482L13.2512 2.46094L14.1083 2.77791L12.9375 5.9543Z" fill="white"/>
</g>
<defs>
<clipPath id="clip0_620_276">
<rect width="65" height="51.1716" fill="white"/>
</clipPath>
</defs>
</svg>
